<svg width="32" height="33" viewBox="0 0 32 33" fill="none" xmlns="http://www.w3.org/2000/svg">
<path d="M27.0723 20.6058L27.6078 21.1487C27.9036 21.4486 27.9036 21.9347 27.6078 22.2346L25.5995 24.2708C25.5257 24.3456 25.5257 24.4673 25.5995 24.5422L27.6078 26.5784C27.9036 26.8783 27.9036 27.3644 27.6078 27.6643L27.0723 28.2072C26.7765 28.5071 26.2971 28.5071 26.0013 28.2072L23.993 26.171C23.9192 26.0961 23.7991 26.0961 23.7253 26.171L21.717 28.2072C21.4212 28.5071 20.9418 28.5071 20.646 28.2072L20.1105 27.6643C19.8147 27.3644 19.8147 26.8783 20.1105 26.5784L22.1188 24.5422C22.1926 24.4673 22.1926 24.3456 22.1188 24.2708L20.1105 22.2346C19.8147 21.9347 19.8147 21.4486 20.1105 21.1487L20.646 20.6058C20.9418 20.3059 21.4212 20.3059 21.717 20.6058L23.7253 22.642C23.7991 22.7168 23.9192 22.7168 23.993 22.642L26.0013 20.6058C26.2971 20.3055 26.7765 20.3055 27.0723 20.6058Z" fill="#00AAFF"/>
<path d="M31.894 7.50558L28.2981 1.33559C28.005 0.832594 27.287 0.832594 26.9938 1.33559L23.398 7.50558C23.0996 8.01741 23.4635 8.66401 24.0501 8.66401H26.3205C26.425 8.66401 26.5099 8.75002 26.5099 8.85599V10.1999C26.5099 12.7444 24.4751 14.8075 21.9654 14.8075H10.6041C6.83936 14.8075 3.78735 17.9019 3.78735 21.7189V22.4796C3.78735 22.566 3.72941 22.6393 3.64723 22.6616C1.38786 23.2755 -0.232259 25.4734 0.0279138 28.0122C0.26347 30.3118 2.09415 32.1828 4.36034 32.4382C7.33131 32.7726 9.84669 30.4235 9.84669 27.4785C9.84669 25.17 8.29928 23.2325 6.2001 22.662C6.11755 22.6393 6.0596 22.5656 6.0596 22.4792V21.7189C6.0596 19.1744 8.0944 17.1113 10.6041 17.1113H21.9654C25.7301 17.1113 28.7821 14.0169 28.7821 10.1999V8.85599C28.7821 8.75002 28.8669 8.66401 28.9715 8.66401H31.2418C31.8284 8.66401 32.1924 8.01741 31.894 7.50558ZM7.57444 27.4785C7.57444 28.9606 6.38529 30.1662 4.92348 30.1662C3.46166 30.1662 2.27252 28.9606 2.27252 27.4785C2.27252 25.9963 3.46166 24.7907 4.92348 24.7907C6.38529 24.7907 7.57444 25.9963 7.57444 27.4785Z" fill="#00AAFF"/>
<path d="M11.9239 3.71122L12.4594 4.25415C12.7551 4.55403 12.7551 5.04013 12.4594 5.34001L10.4511 7.3762C10.3772 7.45107 10.3772 7.57279 10.4511 7.64766L12.4594 9.68385C12.7551 9.98373 12.7551 10.4698 12.4594 10.7697L11.9239 11.3126C11.6281 11.6125 11.1486 11.6125 10.8529 11.3126L8.84458 9.27646C8.77073 9.20158 8.65068 9.20158 8.57683 9.27646L6.56854 11.3126C6.27277 11.6125 5.79333 11.6125 5.49756 11.3126L4.96206 10.7697C4.66629 10.4698 4.66629 9.98373 4.96206 9.68385L6.97035 7.64766C7.0442 7.57279 7.0442 7.45107 6.97035 7.3762L4.96206 5.34001C4.66629 5.04013 4.66629 4.55403 4.96206 4.25415L5.49756 3.71122C5.79333 3.41134 6.27277 3.41134 6.56854 3.71122L8.57683 5.7474C8.65068 5.82228 8.77073 5.82228 8.84458 5.7474L10.8529 3.71122C11.1486 3.41096 11.6281 3.41096 11.9239 3.71122Z" fill="#00AAFF"/>
</svg>
