<svg width="13" height="15" viewBox="0 0 13 15" fill="none" xmlns="http://www.w3.org/2000/svg">
<path d="M12.3998 7.6336C12.0589 7.27925 11.5062 7.27925 11.1654 7.6336L7.56921 11.3736L7.56921 1.54658C7.56921 1.04516 7.17835 0.638763 6.69637 0.638763C6.21428 0.638763 5.82352 1.04516 5.82352 1.54658L5.82352 11.3777L2.14529 7.55242C1.80446 7.19807 1.25173 7.19807 0.910896 7.55242C0.570065 7.90699 0.570065 8.48168 0.910896 8.83614L5.91515 14.0405C5.941 14.0673 5.9685 14.0916 5.99663 14.1143C6.15549 14.3366 6.40946 14.4812 6.69626 14.4812C6.97426 14.4812 7.22144 14.3455 7.38124 14.1348C7.386 14.1303 7.39087 14.1262 7.39548 14.1214L12.3996 8.91711C12.7405 8.56291 12.7405 7.98801 12.3998 7.6336Z" fill="white"/>
</svg>
