<svg width="17" height="17" viewBox="0 0 17 17" fill="none" xmlns="http://www.w3.org/2000/svg">
<path d="M10.5864 8.49994L15.803 3.28182C16.3889 2.71515 16.4051 1.78102 15.8384 1.19516C15.2718 0.609307 14.3376 0.593074 13.7518 1.15827C13.74 1.17008 13.7267 1.18188 13.7164 1.19516L8.49973 6.41181L3.28161 1.19664C2.71641 0.609307 1.78228 0.59455 1.19643 1.15975C0.609093 1.72642 0.594336 2.66055 1.15953 3.2464C1.17134 3.25821 1.18462 3.27149 1.19643 3.2833L6.41159 8.49994L1.19495 13.7181C0.609093 14.2847 0.59286 15.2189 1.15806 15.8047C1.72473 16.3906 2.65886 16.4068 3.24472 15.8401C3.25652 15.8283 3.2698 15.8165 3.28013 15.8047L8.49973 10.5866L13.7178 15.8032C14.2845 16.3891 15.2186 16.4053 15.8045 15.8387C16.3904 15.272 16.4066 14.3379 15.8399 13.752C15.8281 13.7402 15.8163 13.7269 15.8045 13.7166L10.5864 8.49994Z" fill="#232323"/>
</svg>
