<svg width="587" height="902" viewBox="0 0 587 902" fill="none" xmlns="http://www.w3.org/2000/svg">
<path d="M454.997 253.863C415.158 209.1 347.462 188.462 291.841 210.804C220.598 239.352 182.998 326.575 108.93 346.648C66.0821 358.262 20.43 344.169 -19.393 324.612C-59.216 305.056 -96.6133 279.761 -139.019 266.826C-218.548 242.472 -310.912 267.562 -367.188 328.73C-423.463 389.899 -440.747 484.029 -409.806 561.149C-378.865 638.269 -326.272 720.094 -238.962 742.735L-195.341 752.933C-107.223 773.611 -15.1662 770.348 71.2847 743.483C108.178 731.988 141.396 725.716 176.63 711.785C262.09 677.986 350.222 644.789 413.476 578.146C454.74 534.677 487.12 481.104 497.681 422.187C508.243 363.269 494.845 298.605 454.997 253.863Z" fill="#0017F0"/>
</svg>
