<svg width="214" height="232" viewBox="0 0 214 232" fill="none" xmlns="http://www.w3.org/2000/svg">
<path d="M344.239 101.14C336.293 80.3369 315.49 64.247 293.219 64.6823C264.702 65.2155 240.146 90.5697 211.764 87.786C195.345 86.1764 181.339 75.2649 170.078 63.2228C158.817 51.1806 149.155 37.4643 136.124 27.3827C111.698 8.44208 76.2984 4.99131 48.6851 18.8318C21.0718 32.6722 2.66413 63.1031 3.25488 93.9769C3.84562 124.851 11.34 160.212 38.6952 179.582L52.509 188.873C80.4036 207.668 112.821 218.662 146.4 220.717C160.734 221.584 173.103 223.781 187.182 223.582C221.33 223.097 256.327 223.173 287.087 208.35C307.152 198.682 325.462 184.333 336.894 165.252C348.326 146.171 352.19 121.937 344.239 101.14Z" fill="#E6E6E6"/>
</svg>
