<svg width="721" height="575" viewBox="0 0 721 575" fill="none" xmlns="http://www.w3.org/2000/svg">
<path d="M918.331 245.163C896.95 189.183 840.968 145.885 781.038 147.057C704.302 148.492 638.221 216.718 561.847 209.228C517.665 204.896 479.975 175.534 449.672 143.129C419.369 110.724 393.369 73.8144 358.304 46.6852C292.575 -4.28299 197.315 -13.5689 123.009 23.6752C48.7031 60.9192 -0.830948 142.807 0.758719 225.887C2.34839 308.967 22.5154 404.123 96.1269 456.248L133.299 481.249C208.362 531.824 295.596 561.41 385.956 566.94C424.529 569.272 457.812 575.184 495.697 574.649C587.588 573.343 681.765 573.549 764.538 533.661C818.532 507.645 867.802 469.031 898.566 417.685C929.33 366.34 939.727 301.125 918.331 245.163Z" fill="#E6E6E6"/>
</svg>
