<svg width="312" height="242" viewBox="0 0 312 242" fill="none" xmlns="http://www.w3.org/2000/svg">
<path d="M299.613 233.092C299.613 233.179 235.341 233.254 156.006 233.254C76.6707 233.254 12.3862 233.204 12.3862 233.092C12.3862 232.98 76.6582 232.93 156.006 232.93C235.354 232.93 299.613 233.005 299.613 233.092Z" fill="#263238"/>
<path d="M284.039 46.646H193.384V107.15H284.039V46.646Z" fill="white"/>
<path d="M284.039 107.144C284.039 107.144 284.039 106.765 284.039 106.043V102.853C284.039 100.054 284.039 95.9426 284.001 90.6871C284.001 80.1697 283.964 65.0623 283.933 46.646L284.064 46.7704L193.415 46.8077L193.577 46.646C193.577 68.197 193.577 88.6906 193.577 107.144L193.428 106.995L258.742 107.07L277.399 107.107H282.36H283.646H282.398H277.462L258.835 107.144L193.428 107.219H193.278V107.07C193.278 88.6159 193.278 68.1223 193.278 46.5714V46.4034H193.446L284.095 46.4408H284.226V46.5714C284.226 65.0249 284.176 80.1573 284.157 90.6871C284.157 95.9364 284.157 100.016 284.126 102.828C284.126 104.215 284.126 105.278 284.126 106C284.126 106.721 284.039 107.144 284.039 107.144Z" fill="#263BFF"/>
<path d="M193.384 52.0446C193.384 51.9513 213.664 51.8829 238.674 51.8829C263.684 51.8829 283.964 51.9513 283.964 52.0446C283.964 52.1379 263.69 52.2063 238.674 52.2063C213.658 52.2063 193.384 52.1628 193.384 52.0446Z" fill="#263BFF"/>
<g opacity="0.3">
<path opacity="0.3" d="M196.96 49.3205C196.96 49.4647 196.917 49.6056 196.836 49.7254C196.756 49.8452 196.641 49.9385 196.507 49.9934C196.374 50.0483 196.227 50.0623 196.085 50.0337C195.943 50.0052 195.813 49.9352 195.711 49.8328C195.609 49.7304 195.54 49.6002 195.513 49.4586C195.485 49.3171 195.501 49.1705 195.557 49.0377C195.613 48.9048 195.708 48.7916 195.829 48.7124C195.949 48.6332 196.091 48.5916 196.236 48.5928C196.331 48.5928 196.426 48.6117 196.514 48.6483C196.602 48.685 196.683 48.7387 196.75 48.8063C196.817 48.874 196.87 48.9542 196.906 49.0425C196.942 49.1307 196.96 49.2252 196.96 49.3205Z" fill="#263BFF"/>
</g>
<g opacity="0.3">
<path opacity="0.3" d="M199.449 49.3205C199.449 49.4647 199.406 49.6056 199.326 49.7254C199.245 49.8452 199.131 49.9385 198.997 49.9934C198.864 50.0483 198.716 50.0623 198.575 50.0337C198.433 50.0052 198.303 49.9352 198.201 49.8328C198.099 49.7304 198.03 49.6002 198.003 49.4586C197.975 49.3171 197.99 49.1705 198.047 49.0377C198.103 48.9048 198.197 48.7916 198.318 48.7124C198.439 48.6332 198.581 48.5916 198.726 48.5928C198.821 48.5928 198.916 48.6117 199.004 48.6483C199.092 48.685 199.172 48.7387 199.24 48.8063C199.307 48.874 199.36 48.9542 199.396 49.0425C199.432 49.1307 199.45 49.2252 199.449 49.3205Z" fill="#263BFF"/>
</g>
<g opacity="0.3">
<path opacity="0.3" d="M201.902 49.3205C201.902 49.4647 201.859 49.6056 201.778 49.7254C201.698 49.8452 201.583 49.9385 201.449 49.9934C201.316 50.0483 201.169 50.0623 201.027 50.0337C200.885 50.0052 200.755 49.9352 200.653 49.8328C200.551 49.7304 200.482 49.6002 200.455 49.4586C200.427 49.3171 200.443 49.1705 200.499 49.0377C200.555 48.9048 200.65 48.7916 200.77 48.7124C200.891 48.6332 201.033 48.5916 201.178 48.5928C201.273 48.5928 201.368 48.6117 201.456 48.6483C201.544 48.685 201.625 48.7387 201.692 48.8063C201.759 48.874 201.812 48.9542 201.848 49.0425C201.884 49.1307 201.902 49.2252 201.902 49.3205Z" fill="#263BFF"/>
</g>
<path d="M225.358 58.3513H201.178V82.4523H225.358V58.3513Z" fill="#263BFF"/>
<path d="M271.609 65.1618C271.609 65.2551 262.174 65.3236 250.542 65.3236C238.911 65.3236 229.476 65.2551 229.476 65.1618C229.476 65.0685 238.911 65.0001 250.542 65.0001C262.174 65.0001 271.609 65.0748 271.609 65.1618Z" fill="#263BFF"/>
<path d="M271.609 69.6461C271.609 69.7332 262.174 69.8078 250.542 69.8078C238.911 69.8078 229.476 69.7332 229.476 69.6461C229.476 69.559 238.911 69.4844 250.542 69.4844C262.174 69.4844 271.609 69.5777 271.609 69.6461Z" fill="#263BFF"/>
<path d="M271.609 74.1242C271.609 74.2113 262.174 74.286 250.542 74.286C238.911 74.286 229.476 74.2113 229.476 74.1242C229.476 74.0372 238.911 73.9625 250.542 73.9625C262.174 73.9625 271.609 74.0309 271.609 74.1242Z" fill="#263BFF"/>
<path d="M254.38 78.6024C254.056 78.653 253.728 78.6738 253.4 78.6646L250.73 78.7144C248.477 78.7455 245.363 78.7641 241.931 78.7641C238.499 78.7641 235.379 78.7641 233.126 78.7144L230.456 78.6646C230.128 78.6738 229.8 78.653 229.476 78.6024C229.8 78.5518 230.128 78.531 230.456 78.5402L233.126 78.4904C235.379 78.4593 238.493 78.4407 241.931 78.4407C245.369 78.4407 248.477 78.4407 250.73 78.4904L253.4 78.5402C253.728 78.531 254.056 78.5518 254.38 78.6024Z" fill="#263BFF"/>
<g opacity="0.3">
<path opacity="0.3" d="M214.051 90.5813H202.688V101.907H214.051V90.5813Z" fill="#263BFF"/>
</g>
<path d="M234.661 90.5813H223.298V101.907H234.661V90.5813Z" fill="#263BFF"/>
<path d="M255.272 90.5813H243.909V101.907H255.272V90.5813Z" fill="#263BFF"/>
<path d="M275.883 90.5813H264.52V101.907H275.883V90.5813Z" fill="#263BFF"/>
<g opacity="0.3">
<path opacity="0.3" d="M225.358 58.3513H201.178V82.4523H225.358V58.3513Z" fill="white"/>
</g>
<g opacity="0.3">
<path opacity="0.3" d="M234.661 90.5813H223.298V101.907H234.661V90.5813Z" fill="white"/>
</g>
<g opacity="0.3">
<path opacity="0.3" d="M255.272 90.5813H243.909V101.907H255.272V90.5813Z" fill="white"/>
</g>
<g opacity="0.3">
<path opacity="0.3" d="M275.883 90.5813H264.52V101.907H275.883V90.5813Z" fill="white"/>
</g>
<path d="M108.345 68.4396H27.5869V101.136H108.345V68.4396Z" fill="white"/>
<path d="M108.345 101.136C108.345 101.136 108.345 100.937 108.345 100.551C108.345 100.166 108.345 99.5997 108.345 98.8534C108.345 97.3607 108.345 95.1714 108.345 92.3477C108.345 86.7065 108.345 78.5401 108.295 68.4395L108.383 68.5265L27.6308 68.5639L27.7618 68.4395C27.7618 79.8898 27.7618 90.942 27.7618 101.136L27.637 101.012L85.538 101.068L102.336 101.105H106.835H107.996H106.86H102.392L85.6253 101.136L27.637 101.192H27.4561V68.3337H27.5871L108.339 68.3773H108.433V68.4644C108.433 78.5899 108.395 86.7687 108.383 92.4285C108.383 95.2398 108.383 97.4042 108.383 98.9156C108.383 99.6495 108.383 100.209 108.383 100.595C108.383 100.98 108.345 101.136 108.345 101.136Z" fill="#263BFF"/>
<path d="M27.668 72.8492C27.668 72.7808 45.7203 72.7186 67.9784 72.7186C90.2365 72.7186 108.301 72.7808 108.301 72.8492C108.301 72.9176 90.2489 72.9736 67.9784 72.9736C45.7078 72.9736 27.668 72.9176 27.668 72.8492Z" fill="#263BFF"/>
<g opacity="0.3">
<path opacity="0.3" d="M31.0506 70.8776C31.0506 70.9932 31.0162 71.1063 30.9517 71.2024C30.8872 71.2986 30.7956 71.3735 30.6885 71.4178C30.5813 71.462 30.4633 71.4736 30.3496 71.451C30.2358 71.4285 30.1313 71.3728 30.0492 71.291C29.9672 71.2093 29.9113 71.1051 29.8887 70.9917C29.8661 70.8783 29.8777 70.7607 29.9221 70.6539C29.9665 70.5471 30.0417 70.4557 30.1381 70.3915C30.2346 70.3273 30.348 70.293 30.464 70.293C30.6196 70.293 30.7688 70.3546 30.8788 70.4642C30.9888 70.5739 31.0506 70.7226 31.0506 70.8776Z" fill="#263BFF"/>
</g>
<g opacity="0.3">
<path opacity="0.3" d="M33.0721 70.8776C33.0721 70.9932 33.0377 71.1063 32.9732 71.2024C32.9088 71.2986 32.8171 71.3735 32.71 71.4178C32.6028 71.462 32.4848 71.4736 32.3711 71.451C32.2573 71.4285 32.1528 71.3728 32.0707 71.291C31.9887 71.2093 31.9328 71.1051 31.9102 70.9917C31.8876 70.8783 31.8992 70.7607 31.9436 70.6539C31.988 70.5471 32.0632 70.4557 32.1596 70.3915C32.2561 70.3273 32.3695 70.293 32.4855 70.293C32.6411 70.293 32.7903 70.3546 32.9003 70.4642C33.0103 70.5739 33.0721 70.7226 33.0721 70.8776Z" fill="#263BFF"/>
</g>
<g opacity="0.3">
<path opacity="0.3" d="M35.0379 70.8776C35.0379 70.9932 35.0035 71.1063 34.939 71.2024C34.8746 71.2986 34.7829 71.3735 34.6758 71.4178C34.5686 71.462 34.4507 71.4736 34.3369 71.451C34.2231 71.4285 34.1186 71.3728 34.0365 71.291C33.9545 71.2093 33.8986 71.1051 33.876 70.9917C33.8534 70.8783 33.865 70.7607 33.9094 70.6539C33.9538 70.5471 34.029 70.4557 34.1254 70.3915C34.2219 70.3273 34.3353 70.293 34.4513 70.293C34.6069 70.293 34.7561 70.3546 34.8661 70.4642C34.9761 70.5739 35.0379 70.7226 35.0379 70.8776Z" fill="#263BFF"/>
</g>
<path d="M53.9574 78.1608H34.4512V97.6032H53.9574V78.1608Z" fill="#263BFF"/>
<path d="M102.761 83.3728C102.761 83.4412 92.7204 83.5034 80.3403 83.5034C67.9601 83.5034 57.9199 83.4412 57.9199 83.3728C57.9199 83.3044 67.9601 83.2484 80.3403 83.2484C92.7204 83.2484 102.761 83.3044 102.761 83.3728Z" fill="#263BFF"/>
<path d="M102.761 87.3347C102.761 87.4031 92.7204 87.4591 80.3403 87.4591C67.9601 87.4591 57.9199 87.4031 57.9199 87.3347C57.9199 87.2663 67.9601 87.2041 80.3403 87.2041C92.7204 87.2041 102.761 87.2663 102.761 87.3347Z" fill="#263BFF"/>
<path d="M86.7857 91.2967C86.6881 91.3033 86.5901 91.3033 86.4924 91.2967H85.65L82.5612 91.334L72.3526 91.3713L62.1502 91.334L59.0302 91.2967H58.1878C58.0902 91.3028 57.9922 91.3028 57.8945 91.2967C57.9918 91.2825 58.0906 91.2825 58.1878 91.2967H59.0302L62.1502 91.2531L72.3526 91.2158L82.5612 91.2531L85.65 91.2967H86.4924C86.5896 91.282 86.6885 91.282 86.7857 91.2967Z" fill="#263BFF"/>
<g opacity="0.3">
<path opacity="0.3" d="M53.9574 78.1608H34.4512V97.6032H53.9574V78.1608Z" fill="#F5F5F5"/>
</g>
<path d="M167.688 27.4033C166.333 26.5014 164.474 27.0488 163.12 27.9506C161.766 28.8524 160.624 30.0839 159.095 30.6686C156.25 31.7694 152.512 30.4633 150.303 32.5345C148.899 33.8654 148.755 36.0548 147.682 37.6656C145.873 40.3774 141.53 41.3974 141.161 44.6316C140.943 46.4975 142.441 48.326 144.281 48.8547C145.211 49.0722 146.177 49.0882 147.114 48.9015C148.05 48.7148 148.936 48.3298 149.71 47.7725C151.582 46.5286 153.024 44.6627 155.133 43.9537C157.242 43.2446 159.956 43.8355 161.66 42.3366C163.363 40.8376 163.107 38.0699 164.33 36.1543C165.066 35.1915 165.938 34.3408 166.92 33.6291C167.837 32.8392 168.711 31.8627 168.867 30.6624C169.023 29.462 168.53 27.4157 167.7 27.3722" fill="#F5F5F5"/>
<path d="M132.525 159.539C132.606 159.495 132.856 159.744 133.093 160.099C133.33 160.453 133.461 160.789 133.386 160.839C133.311 160.889 133.062 160.64 132.818 160.279C132.575 159.918 132.45 159.589 132.525 159.539Z" fill="white"/>
<path d="M129.854 153.929C130.191 154.336 130.444 154.805 130.597 155.31C130.844 155.775 130.994 156.284 131.04 156.809C130.45 155.94 130.047 154.96 129.854 153.929Z" fill="white"/>
<path d="M128.407 147.883C128.807 148.853 129 149.895 128.975 150.943C128.726 150.479 128.575 149.969 128.532 149.444C128.385 148.938 128.343 148.407 128.407 147.883Z" fill="white"/>
<path d="M128.189 141.67C128.386 142.699 128.371 143.757 128.145 144.78C127.986 144.278 127.937 143.747 128.001 143.225C127.953 142.699 128.016 142.169 128.189 141.67Z" fill="white"/>
<path d="M129.168 135.556C129.218 136.08 129.161 136.61 128.999 137.111C128.937 137.634 128.772 138.139 128.513 138.598C128.463 138.073 128.52 137.544 128.681 137.043C128.744 136.52 128.91 136.015 129.168 135.556Z" fill="white"/>
<path d="M131.439 129.741C131.231 130.764 130.806 131.731 130.191 132.577C130.254 132.053 130.422 131.548 130.684 131.09C131.04 130.301 131.358 129.697 131.439 129.741Z" fill="white"/>
<path d="M134.878 124.554C134.705 125.052 134.433 125.511 134.079 125.903C133.798 126.347 133.441 126.739 133.024 127.06C132.937 127.004 133.299 126.401 133.817 125.71C134.335 125.02 134.784 124.498 134.878 124.554Z" fill="white"/>
<path d="M139.071 119.951C139.14 120.013 138.709 120.573 138.116 121.195C137.524 121.817 136.987 122.265 136.918 122.209C136.85 122.153 137.28 121.587 137.879 120.965C138.478 120.343 139.009 119.883 139.071 119.951Z" fill="white"/>
<path d="M143.464 115.523C143.532 115.585 143.089 116.145 142.484 116.767C141.879 117.389 141.336 117.824 141.274 117.762C141.211 117.7 141.648 117.14 142.253 116.518C142.858 115.896 143.401 115.461 143.464 115.523Z" fill="white"/>
<path d="M147.57 110.833C147.372 111.322 147.077 111.767 146.702 112.139C146.153 112.811 145.654 113.302 145.585 113.24C145.789 112.754 146.083 112.311 146.453 111.934C146.996 111.3 147.495 110.783 147.57 110.833Z" fill="white"/>
<path d="M150.752 105.497C150.696 106.024 150.517 106.531 150.228 106.977C150.03 107.47 149.72 107.91 149.323 108.264C149.444 107.752 149.656 107.266 149.947 106.828C150.138 106.342 150.41 105.892 150.752 105.497Z" fill="white"/>
<path d="M152.256 99.4824C152.378 99.9992 152.367 100.538 152.225 101.05C152.189 101.581 152.024 102.095 151.744 102.549C151.712 102.027 151.767 101.504 151.906 101C151.94 100.479 152.058 99.9662 152.256 99.4824Z" fill="white"/>
<path d="M151.807 93.3064C152.083 93.76 152.242 94.2751 152.268 94.8052C152.397 95.322 152.397 95.862 152.268 96.3787C152.072 95.893 151.958 95.378 151.932 94.855C151.806 94.3489 151.764 93.8259 151.807 93.3064Z" fill="white"/>
<path d="M149.354 87.6152C149.429 87.5655 149.885 88.1066 150.297 88.8592C150.594 89.3016 150.778 89.8098 150.833 90.3395C150.49 89.9444 150.212 89.4972 150.01 89.0147C149.721 88.5842 149.5 88.1123 149.354 87.6152Z" fill="white"/>
<path d="M145.005 83.1993C145.514 83.3584 145.976 83.638 146.353 84.0141C147.021 84.5739 147.458 85.1336 147.395 85.1958C147.333 85.258 146.771 84.8102 146.147 84.2629C145.523 83.7156 144.949 83.274 145.005 83.1993Z" fill="white"/>
<path d="M139.333 80.6743C139.865 80.6418 140.396 80.7401 140.881 80.9604C141.402 81.0804 141.884 81.3285 142.285 81.6819C141.762 81.623 141.253 81.4824 140.774 81.2651C140.264 81.1511 139.776 80.9513 139.333 80.6743Z" fill="white"/>
<path d="M133.13 80.3943C133.608 80.1569 134.139 80.0455 134.672 80.0709C135.201 79.9929 135.742 80.0485 136.244 80.2326C135.737 80.364 135.214 80.4186 134.69 80.3943C134.174 80.4758 133.647 80.4758 133.13 80.3943Z" fill="white"/>
<path d="M127.377 82.6894C127.321 82.6148 127.858 82.1483 128.625 81.7378C129.067 81.4359 129.582 81.2576 130.116 81.2216C129.71 81.5496 129.258 81.8177 128.775 82.0177C128.345 82.3099 127.874 82.5363 127.377 82.6894Z" fill="white"/>
<path d="M123.09 87.155C123.226 86.6398 123.49 86.167 123.858 85.7805C124.388 85.0901 124.937 84.6361 125 84.6983C125.062 84.7605 124.632 85.3203 124.114 85.9795C123.596 86.6388 123.165 87.1985 123.09 87.155Z" fill="white"/>
<path d="M120.987 92.9642C120.889 92.4403 120.93 91.9001 121.106 91.3968C121.184 90.8662 121.399 90.3648 121.73 89.9414C121.71 90.4633 121.611 90.9792 121.436 91.4714C121.364 91.9891 121.213 92.4925 120.987 92.9642Z" fill="white"/>
<path d="M121.73 99.0905C121.399 98.6672 121.185 98.1658 121.106 97.6352C120.927 97.1328 120.884 96.5922 120.981 96.0679C121.197 96.5426 121.347 97.0449 121.424 97.5606C121.6 98.0531 121.703 98.5685 121.73 99.0905Z" fill="white"/>
<path d="M124.894 104.415C124.825 104.477 124.307 103.992 123.802 103.283C123.449 102.884 123.198 102.406 123.072 101.889C123.153 101.846 123.565 102.406 124.064 103.096C124.411 103.487 124.691 103.933 124.894 104.415Z" fill="white"/>
<path d="M129.486 108.613C128.982 108.444 128.523 108.163 128.145 107.792C127.464 107.251 126.996 106.722 127.059 106.654C127.535 106.875 127.97 107.175 128.344 107.543C129.012 108.078 129.542 108.538 129.486 108.613Z" fill="white"/>
<path d="M134.896 111.704C133.879 111.433 132.931 110.952 132.113 110.292C132.634 110.381 133.132 110.571 133.58 110.852C134.072 111.044 134.52 111.334 134.896 111.704Z" fill="white"/>
<path d="M140.837 113.588C140.307 113.649 139.771 113.585 139.271 113.402C138.744 113.324 138.243 113.121 137.811 112.811C138.336 112.819 138.857 112.913 139.352 113.091C139.873 113.168 140.375 113.336 140.837 113.588Z" fill="white"/>
<path d="M147.052 113.906C146.038 114.216 144.957 114.238 143.932 113.968C144.438 113.834 144.963 113.788 145.485 113.831C146.008 113.769 146.537 113.794 147.052 113.906Z" fill="white"/>
<path d="M153.055 112.307C152.197 112.928 151.18 113.293 150.122 113.358C150.562 113.072 151.047 112.862 151.557 112.736C152.028 112.509 152.535 112.364 153.055 112.307Z" fill="white"/>
<path d="M158.259 108.905C158.321 108.973 157.847 109.527 157.154 110.025C156.767 110.387 156.298 110.654 155.788 110.802C155.738 110.721 156.281 110.292 156.961 109.77C157.345 109.414 157.783 109.123 158.259 108.905Z" fill="white"/>
<path d="M162.321 104.203C162.177 104.713 161.914 105.182 161.553 105.571C161.036 106.268 160.518 106.747 160.449 106.691C160.38 106.635 160.786 106.069 161.298 105.379C161.809 104.688 162.24 104.153 162.321 104.203Z" fill="white"/>
<path d="M165.023 98.6053C165.021 99.1364 164.89 99.6592 164.642 100.129C164.318 100.938 163.937 101.535 163.856 101.491C163.931 100.974 164.094 100.474 164.336 100.011C164.486 99.5081 164.718 99.0332 165.023 98.6053Z" fill="white"/>
<path d="M166.233 92.5164C166.369 93.5619 166.222 94.6246 165.809 95.595C165.792 94.5532 165.935 93.5149 166.233 92.5164Z" fill="white"/>
<path d="M166.072 86.303C166.275 86.7891 166.373 87.3127 166.359 87.8392C166.448 88.3594 166.433 88.8921 166.315 89.4066C166.022 88.3973 165.939 87.3391 166.072 86.2968V86.303Z" fill="white"/>
<path d="M164.736 80.2327C165.025 80.6752 165.219 81.173 165.304 81.6942C165.492 82.1861 165.577 82.711 165.554 83.2367C165.267 82.7927 165.074 82.2955 164.986 81.7751C164.798 81.2834 164.713 80.7584 164.736 80.2327Z" fill="white"/>
<path d="M162.327 74.4858C162.408 74.4422 162.783 75.0393 163.157 75.8167C163.421 76.2754 163.587 76.7837 163.644 77.3094C163.046 76.4502 162.601 75.4951 162.327 74.4858Z" fill="white"/>
<path d="M159.257 69.0685C159.338 69.0187 159.75 69.5847 160.187 70.3124C160.491 70.7397 160.703 71.2244 160.811 71.7367C160.423 71.3865 160.107 70.9639 159.881 70.4928C159.583 70.0627 159.371 69.579 159.257 69.0685Z" fill="white"/>
<path d="M156.162 63.6637C156.243 63.6201 156.643 64.1986 157.061 64.9449C157.362 65.3801 157.574 65.8705 157.685 66.3878C157.303 66.0222 156.997 65.5846 156.786 65.1004C156.481 64.6695 156.269 64.1803 156.162 63.6637Z" fill="white"/>
<path d="M153.723 57.9415C154.288 58.827 154.66 59.8207 154.815 60.8585C154.484 60.4446 154.246 59.9655 154.116 59.4529C153.883 58.981 153.749 58.4667 153.723 57.9415Z" fill="white"/>
<path d="M152.662 51.8276C152.845 52.3191 152.938 52.8395 152.936 53.3639C153.045 53.8751 153.064 54.4011 152.993 54.9188C152.747 54.4482 152.618 53.9255 152.618 53.395C152.51 52.8763 152.525 52.3396 152.662 51.8276Z" fill="white"/>
<path d="M153.179 45.6392C153.229 46.1601 153.191 46.6856 153.067 47.1941C153.045 47.7183 152.929 48.2344 152.724 48.7179C152.603 48.2003 152.603 47.6619 152.724 47.1443C152.755 46.6138 152.911 46.0981 153.179 45.6392Z" fill="white"/>
<path d="M155.214 39.774C155.134 40.2925 154.965 40.7933 154.714 41.2543C154.56 41.7549 154.321 42.2259 154.009 42.6475C154.142 41.5985 154.558 40.6053 155.214 39.774Z" fill="white"/>
<path d="M158.689 34.618C158.758 34.6802 158.346 35.24 157.822 35.9179C157.298 36.5959 156.855 37.1619 156.78 37.081C156.928 36.5704 157.198 36.1031 157.566 35.7189C158.096 35.0347 158.627 34.562 158.689 34.618Z" fill="white"/>
<path d="M163.376 30.5255C163.426 30.6001 162.883 31.0417 162.209 31.5642C161.826 31.9238 161.385 32.2161 160.905 32.4287C160.842 32.3603 161.323 31.8067 162.009 31.3092C162.397 30.9447 162.865 30.6762 163.376 30.5255Z" fill="white"/>
<path d="M168.929 27.7142C168.509 28.0288 168.039 28.2706 167.538 28.4295C167.081 28.6857 166.583 28.8604 166.065 28.9457C166.022 28.8649 166.614 28.4792 167.413 28.1372C167.877 27.8754 168.397 27.7302 168.929 27.7142Z" fill="white"/>
<path d="M173.472 26.5699C173.472 26.657 173.154 26.7938 172.736 26.8684C172.318 26.9431 171.956 26.9431 171.937 26.8684C171.919 26.7938 172.249 26.6445 172.674 26.5637C173.098 26.4828 173.472 26.4828 173.472 26.5699Z" fill="white"/>
<path d="M186.189 8.25934C186.189 8.25934 193.515 3.04731 203.661 6.39346C203.661 6.39346 204.491 14.7651 196.36 21.42" fill="#263BFF"/>
<path d="M163.083 23.7213C163.395 24.1878 171.351 36.9317 171.351 36.9317L195.231 22.2659C196.217 21.6604 197.065 20.8575 197.724 19.9081C198.382 18.9586 198.835 17.8832 199.054 16.7501C199.274 15.6169 199.254 14.4507 198.998 13.3253C198.742 12.1999 198.254 11.1399 197.565 10.2123C196.285 8.49062 194.388 7.3269 192.27 6.96317C190.151 6.59944 187.973 7.06368 186.189 8.25936L163.083 23.7213Z" fill="#263BFF"/>
<path d="M171.351 36.9317L170.814 45.9004C170.814 45.9004 186.289 38.4368 182.427 30.1274L171.351 36.9317Z" fill="#263238"/>
<path d="M174.146 16.3199C174.146 16.3199 163.65 11.705 155.014 18.4719L163.082 23.7213L174.146 16.3199Z" fill="#263238"/>
<path d="M174.096 23.7275L159.164 33.0569C159.164 33.0569 159.675 34.6616 160.075 34.5247C160.474 34.3879 171.637 27.8076 175.275 25.6618C175.414 25.5793 175.534 25.4679 175.626 25.3351C175.718 25.2023 175.779 25.0513 175.807 24.8924C175.835 24.7335 175.828 24.5705 175.787 24.4145C175.746 24.2585 175.671 24.1133 175.569 23.9887C175.397 23.7736 175.153 23.6284 174.882 23.5803C174.611 23.5322 174.331 23.5845 174.096 23.7275Z" fill="#263238"/>
<path d="M192.487 17.761C193.091 15.1998 191.498 12.6349 188.929 12.0323C186.359 11.4296 183.786 13.0174 183.181 15.5787C182.577 18.14 184.17 20.7048 186.739 21.3075C189.309 21.9101 191.882 20.3223 192.487 17.761Z" fill="#FAFAFA"/>
<path d="M192.61 16.6683C192.572 16.6683 192.61 16.2453 192.398 15.5238C192.119 14.5024 191.504 13.6042 190.65 12.9738C190.071 12.5404 189.398 12.2486 188.685 12.1217C187.869 11.9768 187.029 12.0498 186.251 12.3332C185.381 12.6401 184.624 13.2016 184.08 13.9441C183.496 14.7331 183.181 15.6878 183.181 16.6683C183.181 17.6487 183.496 18.6034 184.08 19.3925C184.619 20.1311 185.366 20.6939 186.226 21.0096C187.005 21.2927 187.844 21.3656 188.66 21.221C189.373 21.0941 190.046 20.8023 190.625 20.3689C191.477 19.7372 192.092 18.8395 192.373 17.8189C192.566 17.0974 192.547 16.6683 192.585 16.6683C192.601 16.7713 192.601 16.8762 192.585 16.9792C192.583 17.2726 192.547 17.5647 192.479 17.85C192.267 18.7557 191.797 19.5808 191.125 20.2255C190.453 20.8702 189.607 21.3067 188.691 21.4822C187.779 21.6601 186.836 21.5756 185.971 21.2386C185.105 20.9015 184.354 20.3259 183.805 19.579C183.177 18.7377 182.838 17.7169 182.838 16.6683C182.838 15.6196 183.177 14.5988 183.805 13.7575C184.383 12.971 185.185 12.3769 186.108 12.0533C186.881 11.774 187.713 11.6955 188.525 11.8249C189.337 11.9544 190.103 12.2877 190.75 12.7934C191.644 13.4656 192.271 14.4301 192.522 15.5176C192.591 15.8029 192.627 16.095 192.629 16.3884C192.636 16.4821 192.63 16.5764 192.61 16.6683Z" fill="#263238"/>
<path d="M198.432 19.8714C198.37 19.8714 198.301 18.9447 197.933 17.4955C197.715 16.6478 197.438 15.8165 197.103 15.0076C196.271 13.0331 195.097 11.2203 193.633 9.65255C193.034 9.01473 192.39 8.42029 191.705 7.87375C190.526 6.94702 189.708 6.49921 189.74 6.44324C189.948 6.51275 190.147 6.6067 190.332 6.72312C190.562 6.84174 190.785 6.97254 191 7.11495C191.25 7.28288 191.543 7.45703 191.843 7.69338C192.56 8.21947 193.23 8.80629 193.846 9.44731C195.37 11.0149 196.57 12.8662 197.377 14.8957C197.707 15.7208 197.968 16.5716 198.157 17.4395C198.251 17.8065 198.288 18.1485 198.338 18.4471C198.38 18.7004 198.407 18.9558 198.42 19.2121C198.455 19.4301 198.46 19.6522 198.432 19.8714Z" fill="#263238"/>
<path d="M197.147 20.5307C197.084 20.5307 197.009 19.5915 196.635 18.1175C196.413 17.2574 196.131 16.4137 195.793 15.5923C195.367 14.5906 194.86 13.6254 194.276 12.7064C193.681 11.7959 193.014 10.9347 192.279 10.1315C191.671 9.47802 191.016 8.869 190.32 8.30914C189.128 7.35754 188.298 6.89729 188.329 6.84131C188.549 6.91283 188.758 7.01101 188.953 7.13363C189.184 7.2547 189.407 7.38971 189.621 7.5379C189.877 7.70583 190.177 7.89242 190.476 8.15986C191.195 8.69296 191.871 9.28148 192.498 9.92001C193.259 10.7258 193.946 11.598 194.551 12.526C195.142 13.4627 195.649 14.4492 196.067 15.4741C196.401 16.3137 196.666 17.179 196.86 18.0615C196.953 18.4347 196.991 18.783 197.041 19.0815C197.086 19.3385 197.116 19.5982 197.128 19.8589C197.159 20.0815 197.166 20.3068 197.147 20.5307Z" fill="#263238"/>
<path d="M51.0677 218.277C50.5311 216.162 51.9351 214.048 53.5013 212.524C55.0676 211 56.9333 209.638 57.757 207.616C59.0861 204.345 57.3452 200.084 59.629 197.36C60.9519 195.756 63.3231 195.233 64.4962 193.517C65.0429 192.57 65.4069 191.53 65.5695 190.45C66.8446 185.004 69.5644 179.999 73.4444 175.959C73.6861 180.816 72.6082 185.649 70.3244 189.947C69.4071 191.663 68.2839 193.336 67.9781 195.258C67.4665 198.368 69.2261 201.596 68.4149 204.656C67.5101 208.151 63.554 210.477 63.3418 214.079C63.1671 217.132 65.8378 219.819 65.6007 222.867C65.4366 224.162 64.9637 225.399 64.2216 226.474C61.7756 230.362 58.2999 233.042 53.0396 232.924L46.5874 233.111L51.0677 218.277Z" fill="#263BFF"/>
<g opacity="0.3">
<path opacity="0.3" d="M51.0677 218.277C50.5311 216.162 51.9351 214.048 53.5013 212.524C55.0676 211 56.9333 209.638 57.757 207.616C59.0861 204.345 57.3452 200.084 59.629 197.36C60.9519 195.756 63.3231 195.233 64.4962 193.517C65.0429 192.57 65.4069 191.53 65.5695 190.45C66.8446 185.004 69.5644 179.999 73.4444 175.959C73.6861 180.816 72.6082 185.649 70.3244 189.947C69.4071 191.663 68.2839 193.336 67.9781 195.258C67.4665 198.368 69.2261 201.596 68.4149 204.656C67.5101 208.151 63.554 210.477 63.3418 214.079C63.1671 217.132 65.8378 219.819 65.6007 222.867C65.4366 224.162 64.9637 225.399 64.2216 226.474C61.7756 230.362 58.2999 233.042 53.0396 232.924L46.5874 233.111L51.0677 218.277Z" fill="black"/>
</g>
<path d="M45.2772 233.272C44.6861 233.361 44.0839 233.344 43.4988 233.223C42.7859 233.114 42.0856 232.935 41.4084 232.688C40.4742 232.356 39.6014 231.872 38.825 231.257C38.3594 230.88 37.9966 230.393 37.7705 229.839C37.5792 229.216 37.4804 228.569 37.4772 227.917C37.4675 227.221 37.4217 226.525 37.3399 225.834C37.2182 225.099 36.9532 224.395 36.5599 223.763C35.8111 222.425 34.5506 221.163 34.1575 219.347C33.7644 217.53 34.0514 215.615 34.3634 213.718C34.6754 211.821 34.9874 209.688 34.2449 207.672C33.5023 205.657 32.1607 203.835 31.4681 201.565C30.7754 199.295 31.1186 196.813 30.9813 194.381C30.9457 193.147 30.668 191.932 30.1639 190.805C29.646 189.667 28.9159 188.591 28.373 187.39C27.2436 184.958 27.0564 182.216 26.7569 179.522C26.6133 178.167 26.4636 176.792 26.3201 175.411C26.2314 174.018 25.9971 172.638 25.6212 171.294C25.1957 169.936 24.6893 168.605 24.1049 167.307C23.8008 166.635 23.5545 165.938 23.3685 165.224C23.2623 164.49 23.1957 163.75 23.1689 163.009C23.1078 161.524 23.1746 160.036 23.3685 158.562C23.5495 157.082 23.8303 155.608 23.9925 154.122C23.9925 154.034 23.9925 153.947 23.9925 153.867L24.0237 153.574L24.2858 153.705C25.6517 154.405 26.8352 155.412 27.7428 156.647C28.6309 157.851 29.3432 159.174 29.8581 160.578C30.9189 163.345 31.2871 166.244 31.8175 169.005C32.3479 171.767 33.0156 174.497 34.4196 176.798C35.1247 177.949 35.9733 179 36.7159 180.12C37.5057 181.213 38.0447 182.465 38.2946 183.789C38.6565 186.513 37.1402 188.895 37.4397 191.302C37.5957 192.488 38.0042 193.627 38.6378 194.642C39.2181 195.675 39.8858 196.626 40.5473 197.59C41.2106 198.526 41.785 199.521 42.2633 200.563C42.7198 201.585 42.9883 202.681 43.0557 203.798C43.1993 205.968 42.881 208.021 43.0557 209.967C43.222 211.817 43.7521 213.615 44.6157 215.26C45.3833 216.846 46.2444 218.283 46.962 219.67C47.3201 220.339 47.643 221.026 47.9292 221.729C48.187 222.385 48.3732 223.067 48.4845 223.763C48.662 224.979 48.662 226.215 48.4845 227.432C48.3061 229.132 47.6581 230.749 46.6125 232.103C46.4552 232.305 46.2797 232.492 46.0884 232.663C45.9608 232.797 45.8184 232.915 45.6641 233.017L45.2959 233.272C45.7556 232.904 46.174 232.487 46.5439 232.028C47.5454 230.672 48.1599 229.071 48.3223 227.395C48.4747 226.191 48.4537 224.972 48.2599 223.775C48.1439 223.094 47.9556 222.426 47.6983 221.785C47.43 221.119 47.0743 220.447 46.7311 219.757C46.001 218.383 45.1337 216.952 44.3474 215.354C43.4593 213.681 42.9102 211.851 42.7313 209.967C42.569 207.983 42.881 205.925 42.7313 203.804C42.6649 202.73 42.4071 201.677 41.97 200.694C41.4947 199.672 40.9265 198.696 40.2727 197.777C39.6487 196.819 38.9373 195.861 38.3383 194.81C37.6928 193.747 37.2803 192.56 37.1277 191.327C36.8345 188.759 38.3383 186.352 37.9639 183.833C37.7178 182.569 37.1935 181.375 36.4289 180.337C35.6988 179.236 34.8439 178.185 34.1201 177.01C32.6724 174.64 31.9735 171.866 31.4556 169.086C30.9377 166.306 30.5508 163.439 29.5087 160.727C29.0077 159.361 28.3144 158.073 27.4495 156.902C26.5802 155.721 25.4482 154.756 24.1423 154.084L24.4418 153.916L24.4106 154.178C24.2359 155.683 23.9613 157.157 23.7866 158.618C23.5928 160.071 23.526 161.539 23.5869 163.003C23.6244 163.718 23.6681 164.471 23.7741 165.149C23.959 165.836 24.1968 166.507 24.4855 167.158C25.077 168.47 25.5895 169.816 26.0205 171.188C26.3956 172.552 26.6278 173.95 26.7132 175.362C26.8629 176.742 27.0065 178.117 27.15 179.473C27.4433 182.178 27.6305 184.878 28.7162 187.222C29.2591 188.392 29.9642 189.468 30.5009 190.649C31.0233 191.827 31.3115 193.094 31.3495 194.381C31.4743 196.869 31.1373 199.288 31.7988 201.49C32.4602 203.692 33.8517 205.508 34.5506 207.592C35.2495 209.675 34.9687 211.858 34.6505 213.78C34.3322 215.702 34.0265 217.599 34.4133 219.309C34.8002 221.02 35.9921 222.295 36.7596 223.663C37.1623 224.322 37.4315 225.053 37.5521 225.815C37.6323 226.515 37.6739 227.219 37.6769 227.923C37.6707 228.555 37.759 229.184 37.9389 229.789C38.1516 230.318 38.4925 230.786 38.9311 231.151C39.6795 231.76 40.5226 232.244 41.4271 232.582C42.0932 232.839 42.7828 233.031 43.4863 233.154C43.9191 233.232 44.3571 233.278 44.7967 233.291C45.1212 233.266 45.2772 233.272 45.2772 233.272Z" fill="white"/>
<path d="M25.3276 157.418C25.3565 157.479 25.3774 157.544 25.39 157.611C25.4212 157.766 25.4712 157.953 25.5273 158.189C25.6521 158.699 25.7956 159.464 26.0328 160.422C26.2699 161.38 26.8627 162.456 27.3556 163.787C27.8486 165.118 28.3852 166.636 28.8595 168.352C29.3337 170.069 29.7705 171.978 30.2136 174.018C30.5905 176.209 31.2731 178.336 32.2416 180.337C32.7657 181.382 33.3523 182.446 33.8203 183.603C34.277 184.791 34.5831 186.033 34.7313 187.297C35.041 189.914 35.4889 192.514 36.0729 195.084C37.3209 200.358 38.5689 205.384 39.636 209.961C40.703 214.539 41.77 218.631 42.6249 222.096C43.4798 225.56 44.1288 228.315 44.603 230.281L45.1209 232.514C45.1708 232.75 45.2145 232.943 45.2457 233.098C45.2526 233.164 45.2526 233.231 45.2457 233.297C45.214 233.236 45.1909 233.171 45.1771 233.104L45.0086 232.532C44.8651 231.997 44.6654 231.257 44.3846 230.318L42.2755 222.164C41.4019 218.706 40.3598 214.601 39.2054 210.055C38.051 205.508 36.8841 200.451 35.6049 195.171C35.0363 192.581 34.6072 189.963 34.3195 187.328C34.1837 186.093 33.8901 184.881 33.4459 183.721C32.9966 182.595 32.4163 181.538 31.8921 180.48C30.9279 178.463 30.2495 176.321 29.8766 174.118C29.446 172.071 29.0404 170.168 28.5787 168.458C28.1169 166.747 27.6302 165.211 27.1372 163.893C26.6443 162.574 26.1139 161.473 25.8892 160.484C25.6646 159.495 25.5523 158.749 25.4587 158.233C25.415 157.997 25.3838 157.797 25.3588 157.642C25.3379 157.569 25.3274 157.494 25.3276 157.418Z" fill="#263238"/>
<path d="M44.1354 233.285C39.9359 230.766 38.769 223.184 40.5537 218.631C42.3383 214.079 45.4396 209.924 45.9388 205.073C46.3257 201.341 45.1213 197.497 46.0137 193.877C47.2242 188.951 52.0727 185.17 52.0477 180.095C52.0477 177.252 50.4253 174.566 50.5689 171.723C50.7498 168.24 53.4455 165.504 55.1241 162.431C57.6949 157.748 57.8946 152.194 58.7932 146.932C59.6917 141.67 61.7384 136.035 66.4372 133.473C67.1048 137.951 68.2717 141.023 67.8661 147.081C67.7164 149.252 65.158 153.406 64.7836 158.171C64.5652 161.019 64.4029 163.874 64.2157 166.729C64.0285 169.584 63.8288 172.326 62.818 174.92C62.0442 176.904 60.8025 178.702 60.2221 180.754C59.1301 184.616 60.5154 188.808 59.5981 192.721C58.8493 196.036 56.5281 198.878 56.0351 202.237C55.3487 206.963 58.3876 211.889 56.7901 216.392C55.9977 218.625 54.1444 220.41 53.6077 222.718C53.1897 224.509 53.6077 226.406 53.2458 228.203C52.6218 231.102 47.0682 233.322 44.1042 233.129" fill="#263BFF"/>
<path d="M65.2516 137.876C65.2599 137.961 65.2599 138.046 65.2516 138.131C65.2516 138.318 65.1955 138.56 65.1518 138.865C65.052 139.487 64.9396 140.457 64.715 141.682C64.4903 142.908 63.8227 144.301 63.3047 145.968C62.7868 147.635 62.2127 149.556 61.726 151.715C61.2393 153.873 60.8212 156.249 60.3844 158.811C59.9476 161.374 59.4672 164.166 58.1755 166.834C57.5515 168.172 56.9275 169.515 56.4033 170.939C55.9101 172.407 55.6019 173.93 55.486 175.473C55.2332 178.753 54.802 182.017 54.1944 185.251C52.8652 191.868 51.6048 198.175 50.4504 203.91L47.2305 219.11C46.3008 223.414 45.5457 226.903 45.0216 229.348C44.7532 230.536 44.5473 231.469 44.3976 232.128L44.2291 232.849C44.2117 232.932 44.1866 233.014 44.1542 233.092C44.1472 233.009 44.1472 232.926 44.1542 232.843C44.1916 232.657 44.2353 232.414 44.2852 232.109C44.4163 231.444 44.5972 230.511 44.8344 229.317C45.3273 226.866 46.0387 223.364 46.9123 219.048C47.7859 214.732 48.8654 209.551 50.0323 203.829L53.7763 185.17C54.3782 181.948 54.8093 178.697 55.068 175.43C55.1879 173.854 55.5066 172.299 56.0164 170.803C56.5344 169.347 57.2145 167.998 57.8136 166.673C59.099 164.048 59.5608 161.299 60.0288 158.743C60.4967 156.186 60.9148 153.767 61.4327 151.64C61.9507 149.513 62.506 147.56 63.0739 145.893C63.6417 144.226 64.2844 142.839 64.5403 141.639C64.7961 140.438 64.9334 139.481 65.0582 138.846C65.1144 138.541 65.1643 138.305 65.1955 138.119C65.2077 138.036 65.2265 137.955 65.2516 137.876Z" fill="#263238"/>
<path d="M255.49 135.407H251.141V149.413H255.49V135.407Z" fill="#263BFF"/>
<path d="M263.496 129.641H259.147V149.407H263.496V129.641Z" fill="#263BFF"/>
<path d="M272.014 126.948H267.665V149.407H272.014V126.948Z" fill="#263BFF"/>
<path d="M280.538 124.112H276.188V149.413H280.538V124.112Z" fill="#263BFF"/>
<path d="M104.533 153.593C104.859 153.639 105.175 153.737 105.469 153.885C106.159 154.221 106.737 154.748 107.135 155.404C107.532 156.059 107.731 156.814 107.709 157.58C107.69 158.302 107.474 159.005 107.085 159.614C106.653 160.291 106.03 160.825 105.294 161.15C104.503 161.5 103.62 161.587 102.776 161.397C101.932 161.208 101.172 160.753 100.608 160.099C100.347 159.791 100.136 159.445 99.9836 159.072C99.8218 158.718 99.7186 158.34 99.6778 157.953C99.5875 157.236 99.6932 156.507 99.9836 155.845C100.288 155.142 100.792 154.542 101.432 154.119C102.072 153.697 102.822 153.468 103.59 153.462C103.92 153.45 104.249 153.494 104.564 153.593C104.564 153.593 104.214 153.525 103.597 153.549C102.716 153.585 101.874 153.916 101.207 154.489C100.747 154.876 100.386 155.366 100.152 155.919C99.8871 156.554 99.7946 157.247 99.8837 157.928C99.9293 158.294 100.03 158.65 100.183 158.985C100.337 159.34 100.548 159.668 100.807 159.956C101.344 160.57 102.063 160.997 102.86 161.175C103.657 161.353 104.49 161.272 105.238 160.945C105.595 160.793 105.924 160.583 106.211 160.323C106.497 160.084 106.743 159.803 106.941 159.489C107.232 159.035 107.424 158.525 107.507 157.993C107.589 157.46 107.559 156.916 107.42 156.396C107.28 155.875 107.033 155.39 106.695 154.969C106.357 154.549 105.935 154.203 105.456 153.954C104.876 153.661 104.526 153.593 104.533 153.593Z" fill="#263238"/>
<path d="M107.702 149.357C107.699 149.312 107.699 149.266 107.702 149.221C107.702 149.115 107.702 148.978 107.702 148.798C107.702 148.412 107.702 147.858 107.702 147.137L107.733 147.174L104.133 146.391L104.195 146.36L103.247 148.368V148.406H103.203C102.406 148.44 101.617 148.58 100.857 148.823H100.813L100.782 148.791L99.197 147.23H99.2157L96.0957 149.208L96.1332 149.102L96.882 151.192V151.242L96.8445 151.285C96.3063 151.87 95.8469 152.523 95.478 153.226V153.276H95.4717H93.2503L93.3439 153.195C93.0943 154.321 92.8197 155.533 92.5452 156.777L92.489 156.659L94.4983 157.611L94.5545 157.642V157.704C94.5897 158.496 94.726 159.279 94.96 160.036V160.099L94.9101 160.148L93.3377 161.722V161.585L95.3095 164.695L95.1785 164.645L97.2751 163.899H97.3437L97.3937 163.942C97.9741 164.481 98.6247 164.939 99.3281 165.304C99.3593 165.348 99.2719 165.205 99.3905 165.404V167.618L99.3031 167.506L102.897 168.315L102.773 168.377C103.091 167.699 103.397 167.034 103.727 166.368L103.758 166.312H103.827C104.62 166.282 105.405 166.146 106.161 165.908H106.23L106.273 165.951L107.852 167.525H107.715L110.835 165.566L110.791 165.684C110.535 164.975 110.292 164.278 110.042 163.594V163.538L110.086 163.488C110.627 162.907 111.089 162.257 111.459 161.554V161.504H113.742L113.655 161.579C113.942 160.335 114.21 159.128 114.466 157.99L114.516 158.09L112.507 157.132H112.463V157.082C112.436 156.288 112.302 155.502 112.064 154.744V154.7V154.669L113.643 153.095V153.182L111.683 150.073H111.746L109.643 150.8C109.201 150.392 108.723 150.026 108.214 149.706L107.827 149.476L107.702 149.395L107.839 149.457L108.233 149.668C108.753 149.979 109.242 150.339 109.693 150.744H109.655L111.746 149.986H111.783V150.023L113.767 153.133V153.176L113.73 153.22L112.164 154.793V154.719C112.411 155.49 112.552 156.292 112.582 157.101L112.538 157.032L114.554 157.978L114.616 158.009V158.077C114.366 159.209 114.098 160.397 113.817 161.66V161.734H111.515L111.602 161.685C111.226 162.403 110.756 163.068 110.204 163.663V163.563C110.448 164.247 110.704 164.944 110.953 165.653L110.984 165.734L110.91 165.777L107.79 167.743L107.715 167.792L107.652 167.73L106.074 166.163H106.186C105.41 166.408 104.604 166.549 103.79 166.58L103.883 166.517C103.571 167.177 103.259 167.848 102.929 168.52L102.891 168.601H102.804L99.2095 167.799H99.1221V165.41C99.2407 165.609 99.1221 165.466 99.1845 165.51C98.4633 165.136 97.7959 164.668 97.2002 164.117H97.3125L95.2159 164.857L95.1285 164.888L95.0849 164.813L93.113 161.703L93.0631 161.629L93.1255 161.567L94.698 159.993V160.105C94.4539 159.331 94.3133 158.528 94.2799 157.717L94.3423 157.804L92.3517 156.883L92.2769 156.846V156.765L93.088 153.182V153.102H95.4717L95.3906 153.151C95.7657 152.435 96.2358 151.771 96.7884 151.18V151.273L96.0458 149.177V149.109L96.1082 149.071L99.2282 147.112L99.2844 147.081L99.3343 147.125L100.907 148.698H100.832C101.605 148.457 102.406 148.321 103.216 148.294L103.159 148.331L104.127 146.328V146.285H104.17L107.758 147.112H107.79C107.79 147.827 107.79 148.356 107.79 148.76C107.79 148.941 107.79 149.084 107.79 149.183C107.765 149.243 107.735 149.302 107.702 149.357Z" fill="#263238"/>
<path fill-rule="evenodd" clip-rule="evenodd" d="M100.913 121.456C101.701 121.867 102.431 122.379 103.085 122.98L105.406 122.159L107.584 125.586L105.849 127.328C106.115 128.175 106.268 129.053 106.305 129.94L108.526 130.991L107.634 134.934H105.175C104.761 135.72 104.245 136.448 103.64 137.099L104.47 139.412L101.025 141.583L99.2783 139.91C98.4304 140.174 97.5514 140.327 96.6637 140.364L95.6092 142.578L91.6343 141.689V139.238C90.8452 138.827 90.1149 138.312 89.4628 137.708L87.1415 138.535L84.9575 135.102L86.6984 133.367C86.4335 132.519 86.2804 131.641 86.2429 130.755L84.0215 129.703L84.9076 125.742H87.3599C87.77 124.955 88.2842 124.227 88.8887 123.577L88.0712 121.251L91.5095 119.074L93.2567 120.809C94.1066 120.544 94.9877 120.392 95.8775 120.355L96.932 118.141L100.907 119.031V121.481L100.913 121.456ZM97.4063 126.121C96.5635 125.933 95.6837 125.998 94.8781 126.308C94.0725 126.619 93.3773 127.16 92.8803 127.864C92.3832 128.568 92.1067 129.403 92.0857 130.264C92.0646 131.124 92.3 131.972 92.762 132.699C93.224 133.426 93.892 134 94.6814 134.349C95.4709 134.698 96.3464 134.806 97.1974 134.66C98.0484 134.513 98.8366 134.118 99.4624 133.525C100.088 132.931 100.524 132.167 100.713 131.327C100.84 130.769 100.854 130.191 100.756 129.627C100.658 129.063 100.45 128.524 100.143 128.04C99.8356 127.557 99.4358 127.139 98.9662 126.809C98.4967 126.48 97.9666 126.246 97.4063 126.121Z" fill="#263BFF"/>
<g opacity="0.8">
<path opacity="0.8" fill-rule="evenodd" clip-rule="evenodd" d="M100.913 121.456C101.701 121.867 102.431 122.379 103.085 122.98L105.406 122.159L107.584 125.586L105.849 127.328C106.115 128.175 106.268 129.053 106.305 129.94L108.526 130.991L107.634 134.934H105.175C104.761 135.72 104.245 136.448 103.64 137.099L104.47 139.412L101.025 141.583L99.2783 139.91C98.4304 140.174 97.5514 140.327 96.6637 140.364L95.6092 142.578L91.6343 141.689V139.238C90.8452 138.827 90.1149 138.312 89.4628 137.708L87.1415 138.535L84.9575 135.102L86.6984 133.367C86.4335 132.519 86.2804 131.641 86.2429 130.755L84.0215 129.703L84.9076 125.742H87.3599C87.77 124.955 88.2842 124.227 88.8887 123.577L88.0712 121.251L91.5095 119.074L93.2567 120.809C94.1066 120.544 94.9877 120.392 95.8775 120.355L96.932 118.141L100.907 119.031V121.481L100.913 121.456ZM97.4063 126.121C96.5635 125.933 95.6837 125.998 94.8781 126.308C94.0725 126.619 93.3773 127.16 92.8803 127.864C92.3832 128.568 92.1067 129.403 92.0857 130.264C92.0646 131.124 92.3 131.972 92.762 132.699C93.224 133.426 93.892 134 94.6814 134.349C95.4709 134.698 96.3464 134.806 97.1974 134.66C98.0484 134.513 98.8366 134.118 99.4624 133.525C100.088 132.931 100.524 132.167 100.713 131.327C100.84 130.769 100.854 130.191 100.756 129.627C100.658 129.063 100.45 128.524 100.143 128.04C99.8356 127.557 99.4358 127.139 98.9662 126.809C98.4967 126.48 97.9666 126.246 97.4063 126.121Z" fill="white"/>
</g>
<path fill-rule="evenodd" clip-rule="evenodd" d="M86.5363 144.805C86.9895 145.043 87.4092 145.34 87.7843 145.688L89.1383 145.209L90.3863 147.205L89.3755 148.219C89.5313 148.711 89.6215 149.221 89.6438 149.737L90.9354 150.359L90.4799 152.66H89.0447C88.8048 153.111 88.5069 153.529 88.1587 153.904L88.6391 155.247L86.6299 156.491L85.619 155.484C85.1229 155.636 84.609 155.724 84.0902 155.745L83.4662 157.039L81.1511 156.516V155.092C80.6969 154.853 80.2772 154.553 79.9032 154.202L78.5491 154.681L77.3011 152.685L78.312 151.671C78.1582 151.179 78.0701 150.669 78.0499 150.153L76.752 149.532L77.2699 147.224H78.624C78.867 146.773 79.1668 146.355 79.5163 145.98L79.0358 144.637L81.0388 143.393L82.0559 144.407C82.5488 144.248 83.0611 144.158 83.5785 144.139L84.2025 142.852L86.5175 143.368V144.798L86.5363 144.805ZM84.4958 147.516C84.0044 147.405 83.491 147.442 83.0207 147.622C82.5503 147.802 82.1442 148.117 81.8535 148.527C81.5629 148.938 81.4009 149.425 81.3881 149.927C81.3753 150.429 81.5122 150.923 81.7815 151.348C82.0508 151.772 82.4404 152.107 82.901 152.311C83.3615 152.514 83.8723 152.577 84.3687 152.491C84.8651 152.406 85.3248 152.175 85.6895 151.828C86.0543 151.482 86.3077 151.035 86.4177 150.545C86.5649 149.89 86.4452 149.203 86.0849 148.635C85.7246 148.067 85.1532 147.665 84.4958 147.516Z" fill="#263BFF"/>
<g opacity="0.4">
<path opacity="0.4" fill-rule="evenodd" clip-rule="evenodd" d="M86.5363 144.805C86.9895 145.043 87.4092 145.34 87.7843 145.688L89.1383 145.209L90.3863 147.205L89.3755 148.219C89.5313 148.711 89.6215 149.221 89.6438 149.737L90.9354 150.359L90.4799 152.66H89.0447C88.8048 153.111 88.5069 153.529 88.1587 153.904L88.6391 155.247L86.6299 156.491L85.619 155.484C85.1229 155.636 84.609 155.724 84.0902 155.745L83.4662 157.039L81.1511 156.516V155.092C80.6969 154.853 80.2772 154.553 79.9032 154.202L78.5491 154.681L77.3011 152.685L78.312 151.671C78.1582 151.179 78.0701 150.669 78.0499 150.153L76.752 149.532L77.2699 147.224H78.624C78.867 146.773 79.1668 146.355 79.5163 145.98L79.0358 144.637L81.0388 143.393L82.0559 144.407C82.5488 144.248 83.0611 144.158 83.5785 144.139L84.2025 142.852L86.5175 143.368V144.798L86.5363 144.805ZM84.4958 147.516C84.0044 147.405 83.491 147.442 83.0207 147.622C82.5503 147.802 82.1442 148.117 81.8535 148.527C81.5629 148.938 81.4009 149.425 81.3881 149.927C81.3753 150.429 81.5122 150.923 81.7815 151.348C82.0508 151.772 82.4404 152.107 82.901 152.311C83.3615 152.514 83.8723 152.577 84.3687 152.491C84.8651 152.406 85.3248 152.175 85.6895 151.828C86.0543 151.482 86.3077 151.035 86.4177 150.545C86.5649 149.89 86.4452 149.203 86.0849 148.635C85.7246 148.067 85.1532 147.665 84.4958 147.516Z" fill="white"/>
</g>
<path d="M224.347 121.917C225.655 121.541 226.801 120.74 227.6 119.642C228.399 118.543 228.807 117.209 228.758 115.852C228.683 114.608 228.228 113.452 228.278 112.233C228.359 110.367 229.619 108.743 230.568 107.101C231.516 105.459 232.147 103.301 231.042 101.759C230.331 100.757 229.064 100.31 228.197 99.4388C227.329 98.5681 226.949 97.405 226.487 96.2917C226.025 95.1784 225.445 94.0278 224.396 93.4369C223.348 92.8461 221.745 93.1011 221.314 94.2268" fill="#263238"/>
<path d="M213.015 91.2352C214.887 90.0473 215.336 87.3045 214.319 85.3453C213.302 83.3861 211.155 82.1919 208.971 81.8374C207.382 81.5966 205.759 81.7336 204.233 82.2373C202.707 82.741 201.322 83.5971 200.192 84.7357C198.987 85.9797 198.008 87.5905 196.373 88.1565C194.938 88.6603 193.346 88.2063 191.836 88.4053C190.829 88.5868 189.876 88.9904 189.046 89.5866C188.215 90.1828 187.529 90.9564 187.038 91.851C186.071 93.6505 185.491 95.631 185.334 97.6663C185.116 99.5322 184.966 101.554 183.681 102.903C182.395 104.253 180.43 104.502 178.87 105.441C177.433 106.385 176.423 107.851 176.057 109.527C175.691 111.203 175.997 112.956 176.91 114.41C177.534 115.305 178.42 116.132 178.489 117.221C178.558 118.309 177.915 119.087 177.609 120.057C177.452 120.67 177.428 121.31 177.54 121.933C177.651 122.556 177.896 123.149 178.257 123.67C178.617 124.191 179.086 124.629 179.631 124.954C180.176 125.279 180.784 125.484 181.415 125.555C182.713 125.63 184.099 125.126 185.266 125.704C186.432 126.283 186.851 127.67 187.587 128.727C188.347 129.747 189.435 130.476 190.669 130.793C191.904 131.11 193.21 130.995 194.37 130.469C195.324 130.002 196.242 129.225 197.284 129.305C198.326 129.386 199.156 130.276 200.217 130.475C201.583 130.736 202.875 129.735 203.686 128.609C204.497 127.483 205.065 126.158 206.101 125.238C207.461 124.031 209.371 123.739 211.093 123.148C212.996 122.492 214.736 121.437 216.195 120.054C217.654 118.67 218.798 116.991 219.55 115.129C220.301 113.267 220.644 111.266 220.553 109.261C220.462 107.256 219.941 105.294 219.024 103.507" fill="#263238"/>
<path d="M217.152 93.6795C217.896 93.7603 218.582 94.1163 219.075 94.6771C219.569 95.2379 219.833 95.9628 219.816 96.7084L218.032 136.931C217.957 141.682 210.993 144.351 205.889 144.232C200.734 144.114 200.572 141.595 200.503 137.074C200.397 129.523 200.41 126.687 200.404 126.73C200.397 126.774 193.895 125.642 192.566 117.171C191.905 112.954 192.129 106.05 192.498 100.409C192.834 95.3277 196.242 89.1019 201.302 89.6492L217.152 93.6795Z" fill="#AA6550"/>
<path d="M194.338 105.889C194.336 106.172 194.445 106.444 194.64 106.65C194.836 106.855 195.103 106.977 195.387 106.99C195.525 107.001 195.664 106.984 195.796 106.94C195.928 106.897 196.05 106.828 196.155 106.737C196.259 106.646 196.344 106.535 196.406 106.411C196.467 106.286 196.502 106.151 196.51 106.013C196.515 105.73 196.409 105.457 196.214 105.251C196.019 105.045 195.751 104.924 195.468 104.912C195.329 104.901 195.19 104.918 195.057 104.961C194.925 105.004 194.803 105.074 194.698 105.164C194.593 105.255 194.507 105.366 194.445 105.491C194.383 105.615 194.347 105.75 194.338 105.889Z" fill="#263238"/>
<path d="M193.964 104.004C194.101 104.147 194.925 103.538 196.098 103.544C197.271 103.55 198.126 104.135 198.257 103.992C198.388 103.849 198.182 103.674 197.808 103.401C197.301 103.049 196.697 102.862 196.079 102.866C195.47 102.861 194.875 103.051 194.382 103.407C194.02 103.681 193.895 103.942 193.964 104.004Z" fill="#263238"/>
<path d="M206.026 105.889C206.024 106.172 206.132 106.444 206.328 106.65C206.523 106.855 206.791 106.977 207.074 106.99C207.213 107.001 207.352 106.984 207.484 106.94C207.615 106.897 207.737 106.828 207.842 106.737C207.947 106.646 208.032 106.535 208.093 106.411C208.154 106.286 208.189 106.151 208.197 106.013C208.202 105.729 208.095 105.455 207.899 105.249C207.703 105.043 207.434 104.922 207.149 104.912C207.011 104.901 206.871 104.918 206.74 104.961C206.608 105.005 206.486 105.074 206.381 105.165C206.277 105.256 206.191 105.367 206.13 105.491C206.069 105.615 206.034 105.751 206.026 105.889Z" fill="#263238"/>
<path d="M205.489 104.247C205.627 104.39 206.45 103.78 207.623 103.786C208.796 103.793 209.651 104.408 209.782 104.234C209.913 104.06 209.707 103.917 209.333 103.643C208.826 103.291 208.222 103.104 207.605 103.108C206.996 103.106 206.402 103.296 205.907 103.65C205.545 103.929 205.421 104.184 205.489 104.247Z" fill="#263238"/>
<path d="M201.215 112.904C200.608 112.712 199.979 112.595 199.343 112.556C199.044 112.525 198.757 112.463 198.719 112.264C198.695 111.955 198.767 111.647 198.925 111.381C199.206 110.659 199.505 109.9 199.811 109.11C201.059 105.876 201.945 103.214 201.814 103.171C201.683 103.127 200.566 105.702 199.318 108.93C199.025 109.732 198.738 110.491 198.47 111.219C198.278 111.577 198.22 111.991 198.307 112.388C198.35 112.494 198.417 112.588 198.503 112.663C198.588 112.739 198.69 112.794 198.8 112.823C198.967 112.87 199.139 112.895 199.312 112.898C199.944 112.978 200.583 112.98 201.215 112.904Z" fill="#263238"/>
<path d="M200.373 126.731C204.373 126.802 208.315 125.766 211.761 123.739C211.761 123.739 208.878 129.71 200.373 128.895V126.731Z" fill="#AA6550"/>
<path d="M204.672 113.719C204.478 113.719 204.472 114.963 203.38 115.877C202.288 116.792 200.934 116.63 200.928 116.81C200.928 116.885 201.227 117.053 201.801 117.071C202.547 117.086 203.273 116.835 203.848 116.362C204.404 115.914 204.762 115.267 204.846 114.559C204.89 114.03 204.747 113.713 204.672 113.719Z" fill="#263238"/>
<path d="M204.965 102.2C205.077 102.518 206.251 102.368 207.623 102.536C208.996 102.704 210.119 103.084 210.294 102.798C210.381 102.661 210.188 102.362 209.739 102.051C209.14 101.675 208.463 101.439 207.76 101.361C207.056 101.282 206.344 101.363 205.676 101.597C205.171 101.796 204.915 102.051 204.965 102.2Z" fill="#263238"/>
<path d="M194.401 100.621C194.607 100.888 195.418 100.621 196.385 100.621C197.352 100.621 198.182 100.801 198.369 100.527C198.457 100.39 198.326 100.123 197.964 99.8743C197.483 99.57 196.922 99.4162 196.352 99.4329C195.783 99.4495 195.231 99.6357 194.769 99.9676C194.426 100.216 194.314 100.49 194.401 100.621Z" fill="#263238"/>
<path d="M211.536 90.9242C212.503 90.2488 213.605 89.7882 214.767 89.5736C215.928 89.359 217.123 89.3954 218.269 89.6803C220.534 90.3022 222.412 92.3671 222.493 94.6559C222.543 96.1486 221.869 97.7657 222.562 99.0905C223.255 100.415 224.752 100.894 225.863 101.827C226.714 102.569 227.292 103.573 227.504 104.68C227.717 105.786 227.552 106.932 227.036 107.935C226.106 109.633 224.159 110.877 223.997 112.792C223.841 114.596 225.364 116.12 225.738 117.892C226.144 119.845 225.058 121.867 223.504 123.167C221.95 124.466 219.979 125.182 218.057 125.866C216.559 126.407 214.937 126.954 213.395 126.6C212.485 126.356 211.667 125.849 211.045 125.143C210.423 124.437 210.025 123.563 209.901 122.632C209.808 121.703 209.918 120.765 210.223 119.883C210.528 119 211.02 118.194 211.667 117.519C212.759 116.319 214.294 115.305 214.556 113.719C214.962 111.231 212.016 109.235 212.197 106.747C212.291 105.466 213.202 104.402 213.957 103.345C214.712 102.287 215.373 100.963 214.905 99.7622C214.281 98.1949 212.241 97.7844 210.993 96.6524C210.478 96.1699 210.109 95.5545 209.925 94.8746C209.741 94.1948 209.75 93.4774 209.951 92.8025C210.178 92.1283 210.585 91.5284 211.128 91.0672C211.671 90.6059 212.33 90.3006 213.033 90.1841" fill="#263238"/>
<path d="M212.453 89.0148C212.457 89.8666 212.273 90.7088 211.913 91.4814C211.553 92.254 211.026 92.9379 210.371 93.4844C209.715 94.0308 208.947 94.4264 208.12 94.6429C207.294 94.8594 206.43 94.8915 205.589 94.7369C204.291 94.5005 202.869 93.8475 201.745 94.5378C200.622 95.2282 200.497 97.0257 199.468 97.94C197.97 99.2399 195.593 98.0208 193.69 98.5619C192.223 98.9973 191.306 100.39 190.326 101.572C189.346 102.754 187.893 103.867 186.42 103.438C186.464 102.118 186.661 100.807 187.006 99.5322C187.358 98.2496 188.143 97.1271 189.228 96.354C189.87 96.0208 190.495 95.6555 191.1 95.2593C192.348 94.2828 192.604 92.5725 193.353 91.2041C193.848 90.3233 194.547 89.5728 195.391 89.0147C196.235 88.4566 197.201 88.107 198.207 87.9948C199.88 87.8269 201.602 88.3245 203.199 87.914C204.404 87.6154 205.458 86.838 206.675 86.6016C209.052 86.1538 211.261 87.8456 212.984 89.5435" fill="#263238"/>
<path d="M227.972 109.26C228.128 108.959 228.195 108.62 228.165 108.283C228.089 107.831 227.888 107.408 227.585 107.062C227.282 106.717 226.889 106.461 226.449 106.324C225.839 106.109 225.213 105.94 224.577 105.82C223.818 105.683 223.097 105.386 222.462 104.949C222.123 104.676 221.848 104.331 221.659 103.94C221.469 103.549 221.368 103.12 221.364 102.686C221.355 101.796 221.398 100.907 221.495 100.024C221.519 99.5869 221.496 99.149 221.426 98.7174C221.344 98.3141 221.174 97.9339 220.927 97.6041C220.368 97.0309 219.659 96.6258 218.88 96.4348C218.15 96.2265 217.449 95.9255 216.796 95.5392C216.228 95.1996 215.711 94.7807 215.261 94.2953C214.604 93.5992 214.095 92.7785 213.763 91.882C213.669 91.6423 213.596 91.3946 213.545 91.1419C213.508 90.9678 213.495 90.8807 213.508 90.8745C213.52 90.8682 213.62 91.229 213.876 91.8385C214.335 92.9009 215.034 93.8435 215.918 94.5931C216.803 95.3427 217.848 95.8793 218.974 96.1611C219.81 96.3582 220.572 96.7898 221.17 97.4051C221.452 97.772 221.648 98.197 221.744 98.649C221.819 99.1052 221.844 99.5681 221.819 100.03C221.726 100.904 221.68 101.782 221.682 102.661C221.681 103.053 221.768 103.44 221.935 103.795C222.102 104.15 222.346 104.463 222.649 104.713C223.247 105.127 223.925 105.413 224.64 105.553C225.278 105.688 225.903 105.873 226.512 106.106C227.035 106.306 227.493 106.646 227.835 107.089C228.083 107.43 228.231 107.832 228.265 108.252C228.282 108.518 228.228 108.784 228.109 109.023C228.053 109.197 227.978 109.266 227.972 109.26Z" fill="#455A64"/>
<path d="M177.933 114.546L177.79 114.478C177.661 114.398 177.552 114.289 177.472 114.161C177.354 113.89 177.308 113.594 177.338 113.301C177.369 113.008 177.475 112.728 177.646 112.488C177.858 112.115 178.175 111.812 178.557 111.617C179 111.398 179.457 111.206 179.924 111.045C180.448 110.87 180.934 110.595 181.353 110.236C181.778 109.793 182.062 109.235 182.17 108.631C182.308 108.01 182.351 107.3 182.47 106.579C182.559 105.805 182.849 105.067 183.312 104.439C184.298 103.146 185.921 102.455 187.131 101.236C187.735 100.595 188.189 99.8283 188.46 98.9911C188.749 98.1074 188.957 97.1999 189.084 96.2793C189.346 94.4134 189.615 92.3361 190.869 90.6319C191.48 89.7754 192.398 89.1855 193.434 88.9837C194.416 88.8439 195.416 88.867 196.391 89.0521C197.301 89.228 198.231 89.2824 199.156 89.2138C200.026 89.1134 200.829 88.6998 201.414 88.0508C202.575 86.8068 203.237 85.1275 204.666 84.2692C205.302 83.8822 206.012 83.6299 206.75 83.5283C207.489 83.4266 208.241 83.4777 208.959 83.6784C210.148 84.0159 211.16 84.8009 211.779 85.8677C212.247 86.6602 212.501 87.5603 212.515 88.4799C212.532 89.0555 212.441 89.6293 212.247 90.1716C212.182 90.3629 212.096 90.5464 211.991 90.719C211.991 90.719 212.066 90.5262 212.185 90.153C212.348 89.613 212.417 89.0494 212.391 88.4861C212.355 87.5938 212.093 86.7251 211.629 85.961C211.019 84.9486 210.04 84.2109 208.896 83.9023C208.209 83.7214 207.491 83.6832 206.788 83.7902C206.085 83.8972 205.411 84.147 204.809 84.5242C204.155 84.9721 203.597 85.545 203.168 86.2097C202.703 86.9332 202.19 87.6251 201.633 88.2809C201.319 88.6214 200.953 88.9092 200.547 89.133C200.123 89.3488 199.665 89.4898 199.193 89.5497C198.242 89.6222 197.285 89.57 196.348 89.3942C195.408 89.2137 194.444 89.1885 193.496 89.3196C192.541 89.512 191.696 90.0589 191.131 90.8496C190.562 91.6513 190.15 92.5521 189.914 93.5054C189.689 94.4447 189.516 95.3957 189.396 96.3539C189.273 97.2914 189.064 98.2157 188.772 99.1155C188.486 99.995 188.004 100.799 187.362 101.466C186.083 102.71 184.479 103.407 183.543 104.632C183.105 105.222 182.825 105.913 182.732 106.641C182.613 107.35 182.563 108.047 182.407 108.706C182.29 109.352 181.976 109.947 181.509 110.41C181.067 110.783 180.556 111.064 180.005 111.237C179.541 111.39 179.087 111.57 178.645 111.779C178.284 111.957 177.981 112.233 177.771 112.575C177.606 112.799 177.499 113.061 177.459 113.336C177.42 113.612 177.45 113.893 177.546 114.155C177.649 114.308 177.781 114.441 177.933 114.546Z" fill="#455A64"/>
<path d="M157.086 172.874L172.155 171.499C172.155 171.499 181.428 147.149 192.86 141.247L200.267 154.14L184.411 183.827H153.46L157.086 172.874Z" fill="#263BFF"/>
<path opacity="0.3" d="M157.086 172.874L172.155 171.499C172.155 171.499 181.428 147.149 192.86 141.247L200.267 154.14L184.411 183.827H153.46L157.086 172.874Z" fill="black"/>
<path d="M163.039 179.715C163.783 178.039 164.73 176.46 165.859 175.013C165.105 176.684 164.158 178.262 163.039 179.715Z" fill="#FAFAFA"/>
<path d="M173.715 179.423C172.407 178.147 171.255 176.721 170.283 175.175C170.98 175.769 171.599 176.448 172.124 177.196C172.739 177.875 173.273 178.622 173.715 179.423Z" fill="#FAFAFA"/>
<path d="M175.568 173.844C175.352 172.539 175.352 171.206 175.568 169.901C175.785 171.206 175.785 172.539 175.568 173.844Z" fill="#FAFAFA"/>
<path d="M170.264 182.545C169.738 182.399 169.248 182.147 168.823 181.805C168.074 181.314 167.513 180.86 167.575 180.785C168.099 180.939 168.589 181.192 169.016 181.532C169.728 182.017 170.314 182.471 170.264 182.545Z" fill="#FAFAFA"/>
<path d="M178.919 160.167C178.672 161.106 178.323 162.015 177.877 162.879C177.529 163.786 177.082 164.651 176.542 165.46C176.782 164.519 177.129 163.61 177.578 162.748C177.929 161.842 178.379 160.976 178.919 160.167Z" fill="#FAFAFA"/>
<path d="M185.029 150.303C185.078 150.371 184.542 150.869 183.824 151.416C183.416 151.788 182.939 152.077 182.42 152.268C182.37 152.194 182.907 151.696 183.625 151.155C184.031 150.78 184.508 150.491 185.029 150.303Z" fill="#FAFAFA"/>
<path d="M207.567 181.874L215.342 150.583C215.993 147.957 217.622 145.677 219.898 144.207C222.175 142.736 224.928 142.185 227.598 142.665C230.34 143.16 232.781 144.702 234.399 146.965C236.017 149.227 236.684 152.029 236.259 154.775L231.504 185.357C230.936 188.487 229.404 191.362 227.12 193.584C224.837 195.806 221.915 197.263 218.762 197.752L212.584 198.71L207.567 181.874Z" fill="#263BFF"/>
<path d="M232.066 140.644C231.255 139.982 230.306 139.509 229.289 139.257C228.189 139.002 227.044 139.002 225.944 139.257C224.605 139.594 223.36 140.232 222.306 141.123C220.029 143.026 218.793 145.476 217.938 147.23C217.52 148.107 217.202 148.829 216.977 149.326C216.874 149.592 216.747 149.848 216.597 150.091C216.658 149.814 216.746 149.543 216.859 149.283C217.052 148.767 217.333 148.039 217.726 147.131C218.187 146.077 218.721 145.057 219.324 144.077C220.072 142.873 221.005 141.792 222.088 140.874C223.176 139.942 224.469 139.279 225.863 138.94C227.007 138.68 228.196 138.695 229.333 138.983C230.096 139.179 230.813 139.523 231.442 139.997C231.609 140.127 231.766 140.27 231.91 140.426C232.022 140.582 232.072 140.638 232.066 140.644Z" fill="#263238"/>
<path d="M188.03 147.684C187.968 147.789 187.895 147.888 187.812 147.977L187.15 148.773C186.57 149.463 185.752 150.471 184.816 151.771C182.329 155.134 180.525 158.95 179.506 163.003C178.427 167.774 178.37 172.239 178.189 175.442C178.108 177.047 178.033 178.347 177.965 179.243C177.927 179.666 177.896 180.008 177.871 180.275C177.864 180.396 177.847 180.517 177.821 180.636C177.804 180.516 177.804 180.395 177.821 180.275C177.821 180.001 177.821 179.653 177.852 179.236C177.852 178.297 177.921 177.01 177.971 175.436C178.096 172.239 178.108 167.755 179.219 162.935C180.239 158.842 182.088 155 184.654 151.646C185.621 150.353 186.47 149.357 187.075 148.692C187.375 148.356 187.624 148.107 187.787 147.939C187.86 147.847 187.941 147.762 188.03 147.684Z" fill="#263238"/>
<path d="M237.838 147.616C236.983 142.018 233.888 140.681 230.674 138.94C229.626 138.368 224.565 137.074 220.553 136.097C220.166 133.678 219.48 129.337 219.305 128.422C219.093 127.135 198.863 130.35 198.607 130.836C198.438 131.153 197.983 136.178 197.677 139.543L192.835 141.229L186.539 149.239L183.25 153.892C181.313 156.575 179.928 159.615 179.176 162.835C178.469 166.402 178.165 170.036 178.271 173.67L177.291 194.195L219.648 206.124L222.893 185.313L233.813 170.498C234.743 164.508 238.886 154.495 237.838 147.616Z" fill="#263BFF"/>
<path d="M201.714 140.171C201.566 139.709 201.472 139.231 201.433 138.747C201.302 137.864 201.14 136.638 200.984 135.282C200.909 134.611 200.84 133.97 200.772 133.367C200.707 132.842 200.67 132.315 200.659 131.787C200.654 131.414 200.76 131.048 200.965 130.736C201.127 130.524 201.265 130.468 201.277 130.481C201.29 130.493 201.184 130.593 201.071 130.804C200.93 131.112 200.868 131.45 200.89 131.787C200.89 132.222 201.003 132.745 201.071 133.336C201.14 133.927 201.221 134.58 201.308 135.245C201.464 136.601 201.589 137.832 201.664 138.722C201.736 139.201 201.753 139.688 201.714 140.171Z" fill="#263238"/>
<path d="M207.112 138.902C206.902 138.49 206.75 138.05 206.663 137.596C206.098 135.442 205.887 133.212 206.039 130.991C206.043 130.53 206.11 130.072 206.238 129.629C206.338 129.629 206.157 131.725 206.401 134.287C206.644 136.85 207.212 138.877 207.112 138.902Z" fill="#263238"/>
<path d="M217.152 137.422C217.28 135.876 217.24 134.32 217.033 132.782C216.715 131.262 216.225 129.783 215.573 128.372C215.887 128.719 216.138 129.116 216.316 129.548C217.31 131.57 217.704 133.834 217.451 136.072C217.422 136.535 217.321 136.99 217.152 137.422Z" fill="#263238"/>
<path d="M188.448 155.745C189.412 153.913 190.666 152.248 192.161 150.813C191.004 152.516 189.765 154.162 188.448 155.745Z" fill="#FAFAFA"/>
<path d="M197.952 147.995C196.741 146.783 195.692 145.42 194.832 143.94C195.467 144.514 196.03 145.161 196.51 145.868C197.078 146.514 197.563 147.229 197.952 147.995Z" fill="#FAFAFA"/>
<path d="M207.91 143.157C207.301 143.878 206.636 144.549 205.92 145.166C205.281 145.861 204.591 146.508 203.854 147.1C204.357 146.291 204.977 145.562 205.695 144.935C206.338 144.233 207.085 143.634 207.91 143.157Z" fill="#FAFAFA"/>
<path d="M205.115 137.235C204.534 136.931 204.009 136.532 203.561 136.054C203.04 135.652 202.587 135.169 202.22 134.623C202.8 134.934 203.326 135.335 203.78 135.811C204.3 136.21 204.751 136.691 205.115 137.235Z" fill="#FAFAFA"/>
<path d="M213.845 132.596C213.179 132.906 212.47 133.116 211.742 133.218C211.038 133.42 210.309 133.521 209.577 133.516C210.241 133.208 210.948 132.999 211.673 132.894C212.379 132.691 213.11 132.591 213.845 132.596Z" fill="#FAFAFA"/>
<path d="M215.592 146.372C215.392 145.666 215.299 144.935 215.317 144.201C215.228 143.475 215.245 142.74 215.367 142.018C215.568 142.724 215.66 143.456 215.642 144.189C215.731 144.915 215.715 145.651 215.592 146.372Z" fill="#FAFAFA"/>
<path d="M212.409 152.971C211.947 152.187 211.578 151.352 211.311 150.483C210.949 149.639 210.685 148.756 210.525 147.852C211.346 149.489 211.974 151.215 212.397 152.996L212.409 152.971Z" fill="#FAFAFA"/>
<path d="M203.761 157.667C203.264 156.837 202.862 155.955 202.563 155.036C202.158 154.155 201.857 153.23 201.664 152.281C202.157 153.114 202.559 153.998 202.862 154.918C203.262 155.799 203.563 156.72 203.761 157.667Z" fill="#FAFAFA"/>
<path d="M195.624 162.96C195.047 161.252 194.683 159.481 194.538 157.686C194.874 158.523 195.109 159.398 195.237 160.292C195.471 161.163 195.6 162.058 195.624 162.96Z" fill="#FAFAFA"/>
<path d="M185.952 163.171C184.99 161.686 184.211 160.09 183.63 158.419C184.592 159.905 185.371 161.5 185.952 163.171Z" fill="#FAFAFA"/>
<path d="M185.746 169.354C184.954 169.915 184.105 170.393 183.212 170.778C182.364 171.256 181.464 171.638 180.529 171.916C181.32 171.347 182.172 170.868 183.069 170.485C183.916 170.01 184.814 169.63 185.746 169.354Z" fill="#FAFAFA"/>
<path d="M185.865 179.131C185.441 178.431 185.143 177.663 184.985 176.861C184.722 176.09 184.597 175.28 184.617 174.466C184.916 175.214 185.144 175.989 185.297 176.78C185.559 177.544 185.749 178.331 185.865 179.131Z" fill="#FAFAFA"/>
<path d="M183.861 185.997C183.122 185.53 182.439 184.979 181.827 184.355C181.145 183.813 180.535 183.186 180.011 182.489C180.751 182.956 181.434 183.507 182.045 184.131C182.728 184.674 183.338 185.301 183.861 185.997Z" fill="#FAFAFA"/>
<path d="M196.604 181.308C196.604 181.401 195.193 181.811 193.521 182.552C191.849 183.292 190.576 184.051 190.52 183.97C191.371 183.239 192.342 182.658 193.39 182.253C194.398 181.755 195.486 181.435 196.604 181.308Z" fill="#FAFAFA"/>
<path d="M192.878 177.905C192.476 177.239 192.168 176.522 191.961 175.772C191.649 175.061 191.439 174.309 191.337 173.539C191.737 174.203 192.044 174.919 192.248 175.666C192.564 176.379 192.776 177.133 192.878 177.905Z" fill="#FAFAFA"/>
<path d="M200.435 169.496C199.964 170.549 199.394 171.555 198.731 172.501C198.16 173.514 197.496 174.471 196.747 175.362C197.793 173.308 199.028 171.355 200.435 169.528V169.496Z" fill="#FAFAFA"/>
<path d="M208.56 170.299C207.738 169.459 207.038 168.509 206.482 167.475C205.832 166.498 205.319 165.437 204.959 164.322C205.046 164.285 205.77 165.665 206.762 167.313C207.755 168.962 208.634 170.249 208.56 170.299Z" fill="#FAFAFA"/>
<path d="M213.408 162.3C212.651 162.596 211.843 162.74 211.03 162.723C210.225 162.817 209.409 162.754 208.628 162.537C209.42 162.432 210.219 162.386 211.018 162.4C211.811 162.31 212.61 162.277 213.408 162.3Z" fill="#FAFAFA"/>
<path d="M224.97 153.214C222.99 154.4 220.901 155.396 218.73 156.187C220.714 155.006 222.803 154.011 224.97 153.214Z" fill="#FAFAFA"/>
<path d="M225.738 147.429C226.375 145.68 227.212 144.011 228.234 142.454C227.97 143.346 227.602 144.204 227.136 145.01C226.764 145.867 226.295 146.678 225.738 147.429Z" fill="#FAFAFA"/>
<path d="M233.076 151.97C232.692 151.05 232.375 150.104 232.128 149.14C231.78 148.207 231.5 147.251 231.292 146.279C232.224 148.053 232.829 149.981 233.076 151.97Z" fill="#FAFAFA"/>
<path d="M234.231 157.99C233.373 158.457 232.449 158.793 231.491 158.985C230.559 159.281 229.587 159.43 228.608 159.427C229.524 159.112 230.46 158.861 231.41 158.674C232.334 158.383 233.276 158.154 234.231 157.99Z" fill="#FAFAFA"/>
<path d="M221.651 165.342C221.557 165.342 221.826 163.812 221.901 161.927C221.975 160.043 221.851 158.513 221.944 158.5C222.232 159.623 222.327 160.786 222.225 161.94C222.231 163.098 222.037 164.249 221.651 165.342Z" fill="#FAFAFA"/>
<path d="M219.142 172.911C217.464 171.585 216.083 169.924 215.086 168.035C215.168 167.985 215.991 169.136 217.114 170.479C217.833 171.254 218.51 172.065 219.142 172.911Z" fill="#FAFAFA"/>
<path d="M231.754 171.313C230.937 171.825 230.064 172.242 229.152 172.557C228.281 172.975 227.366 173.296 226.425 173.514C228.114 172.581 229.901 171.837 231.754 171.294V171.313Z" fill="#FAFAFA"/>
<path d="M227.236 185.555C227.047 183.278 227.07 180.987 227.305 178.714C227.502 180.991 227.479 183.282 227.236 185.555Z" fill="#FAFAFA"/>
<path d="M217.558 184.735C217.715 182.355 218.301 180.023 219.286 177.849C219.373 177.881 218.899 179.392 218.425 181.289C217.951 183.186 217.651 184.753 217.558 184.735Z" fill="#FAFAFA"/>
<path d="M218.001 188.473C218.001 188.566 216.453 188.715 214.556 189.032C212.659 189.35 211.137 189.698 211.112 189.605C212.194 189.152 213.335 188.85 214.5 188.709C215.65 188.465 216.828 188.386 218.001 188.473Z" fill="#FAFAFA"/>
<path d="M207.293 186.078C207.835 185.296 208.463 184.576 209.165 183.932C209.783 183.216 210.483 182.573 211.249 182.017C210.707 182.799 210.079 183.518 209.377 184.162C208.757 184.877 208.058 185.52 207.293 186.078Z" fill="#FAFAFA"/>
<path d="M200.36 192.777C200.03 191.984 199.748 191.172 199.518 190.345C199.179 189.554 198.887 188.744 198.644 187.919C199.634 189.36 200.226 191.035 200.36 192.777Z" fill="#FAFAFA"/>
<path d="M211.536 196.645C209.408 195.942 207.353 195.034 205.402 193.933C206.478 194.236 207.523 194.64 208.522 195.14C209.571 195.548 210.58 196.052 211.536 196.645Z" fill="#FAFAFA"/>
<path d="M192.042 195.52C192.129 194.737 192.327 193.971 192.629 193.243C192.826 192.483 193.126 191.752 193.521 191.073C193.433 191.855 193.235 192.621 192.934 193.349C192.732 194.108 192.432 194.838 192.042 195.52Z" fill="#FAFAFA"/>
<path d="M204.897 197.69C204.897 197.783 203.106 197.497 200.897 197.385C198.688 197.273 196.897 197.385 196.891 197.261C198.216 197.004 199.571 196.937 200.915 197.062C202.266 197.079 203.607 197.291 204.897 197.69Z" fill="#FAFAFA"/>
<path d="M207.567 179.348C207.556 179.266 207.556 179.182 207.567 179.1C207.566 178.861 207.602 178.624 207.674 178.397C207.771 178.013 208.012 177.681 208.347 177.47C208.808 177.205 209.349 177.116 209.87 177.221L209.745 177.296C210.425 174.908 211.517 171.425 212.609 167.519C213.633 163.862 214.325 160.497 214.806 158.052C215.043 156.877 215.23 155.9 215.38 155.16C215.436 154.805 215.518 154.454 215.623 154.109C215.616 154.471 215.576 154.831 215.505 155.185C215.405 155.876 215.243 156.871 215.031 158.096C214.49 161.3 213.786 164.474 212.921 167.606C211.829 171.518 210.7 174.988 209.951 177.358L209.92 177.451H209.826C209.355 177.344 208.861 177.41 208.435 177.638C208.125 177.822 207.893 178.111 207.78 178.453C207.574 179 207.611 179.355 207.567 179.348Z" fill="#263238"/>
<path d="M221.557 188C221.507 188 221.12 187.179 220.309 185.923C218.23 182.643 215.297 179.986 211.823 178.235C210.494 177.57 209.614 177.265 209.633 177.209C209.846 177.243 210.055 177.299 210.257 177.377C210.821 177.559 211.374 177.777 211.91 178.03C215.498 179.692 218.493 182.404 220.496 185.804C220.798 186.314 221.067 186.841 221.301 187.384C221.419 187.574 221.506 187.782 221.557 188Z" fill="#263238"/>
<g opacity="0.2">
<path opacity="0.2" d="M210.007 176.755C212.248 176.811 214.466 177.211 216.584 177.943C218.824 178.776 220.896 180.381 221.72 182.62C221.853 182.873 221.913 183.158 221.892 183.442C221.871 183.727 221.77 184 221.601 184.231C221.441 184.368 221.247 184.458 221.039 184.492C220.831 184.526 220.617 184.503 220.422 184.424C220.031 184.261 219.679 184.019 219.386 183.715C218.013 182.471 216.584 181.326 215.168 180.107C213.751 178.888 211.68 177.619 209.833 177.327" fill="black"/>
</g>
<path d="M205.508 172.787C205.317 172.937 205.107 173.063 204.884 173.16C204.27 173.46 203.628 173.701 202.969 173.881C200.773 174.506 198.45 174.533 196.24 173.961C194.03 173.389 192.014 172.239 190.401 170.629C189.914 170.149 189.471 169.626 189.078 169.067C188.922 168.878 188.792 168.669 188.691 168.445C188.741 168.408 189.315 169.316 190.563 170.485C192.184 172.011 194.165 173.104 196.323 173.663C198.481 174.222 200.745 174.229 202.906 173.682C204.535 173.247 205.477 172.724 205.508 172.787Z" fill="#263238"/>
<g opacity="0.2">
<path opacity="0.2" d="M188.997 168.906C190.052 171.182 191.281 173.477 193.278 175.007C194.382 175.958 195.761 176.533 197.215 176.649C199.299 176.686 201.09 175.268 202.681 173.925C197.527 174.734 191.724 172.401 188.997 168.906Z" fill="black"/>
</g>
<path d="M212.073 138.43C211.973 138.43 212.073 136.29 211.836 133.684C211.599 131.078 211.068 129.007 211.162 128.982C211.368 129.405 211.513 129.856 211.592 130.319C211.862 131.415 212.05 132.529 212.154 133.653C212.265 134.777 212.295 135.908 212.241 137.036C212.247 137.506 212.19 137.975 212.073 138.43Z" fill="#263238"/>
<path d="M138.054 221.66C138.054 221.66 131.271 223.122 125.218 222.214C119.54 221.368 106.829 222.245 106.835 229.677C106.835 237.993 123.789 235.941 130.397 234.622C137.005 233.303 143.595 232.134 143.595 232.134L138.054 221.66Z" fill="#263BFF"/>
<path d="M122.828 232.315C122.455 231.382 122.181 230.412 122.01 229.422C121.739 228.454 121.572 227.459 121.511 226.456C121.876 227.39 122.141 228.359 122.304 229.348C122.584 230.315 122.759 231.31 122.828 232.315Z" fill="#263238"/>
<path d="M125.143 232.426C124.652 230.468 124.376 228.461 124.319 226.443C124.617 227.409 124.809 228.403 124.893 229.41C125.082 230.404 125.165 231.415 125.143 232.426Z" fill="#263238"/>
<path d="M127.377 231.556C127.115 230.713 126.956 229.842 126.903 228.962C126.741 228.095 126.688 227.211 126.747 226.331C127.166 228.041 127.375 229.796 127.371 231.556H127.377Z" fill="#263238"/>
<path d="M130.884 230.716C130.45 230.038 130.155 229.282 130.016 228.49C129.773 227.72 129.688 226.91 129.767 226.107C130.005 226.861 130.193 227.63 130.328 228.409C130.568 229.164 130.754 229.935 130.884 230.716Z" fill="#263238"/>
<path d="M131.664 227.644C131.954 227.577 132.253 227.556 132.55 227.581C133.363 227.609 134.165 227.767 134.928 228.048C135.191 228.141 135.44 228.273 135.664 228.44C135.796 228.536 135.905 228.66 135.984 228.803C136.063 228.946 136.109 229.104 136.12 229.267C136.106 229.446 136.053 229.62 135.965 229.777C135.877 229.934 135.756 230.07 135.61 230.176C135.464 230.282 135.296 230.355 135.119 230.39C134.943 230.426 134.76 230.422 134.585 230.38C133.868 230.185 133.243 229.744 132.819 229.136C132.114 228.231 131.711 227.128 131.665 225.983C131.619 224.838 131.933 223.707 132.563 222.749C132.69 222.594 132.866 222.487 133.062 222.444C133.164 222.431 133.268 222.44 133.366 222.471C133.464 222.503 133.554 222.555 133.63 222.624C133.87 222.87 134.02 223.191 134.054 223.532C134.131 224.095 134.101 224.666 133.967 225.218C133.78 226.018 133.384 226.754 132.819 227.351C132.669 227.514 132.504 227.662 132.326 227.793C132.266 227.843 132.199 227.883 132.126 227.911C132.126 227.911 132.363 227.699 132.75 227.289C133.255 226.681 133.604 225.959 133.767 225.187C133.88 224.661 133.894 224.119 133.811 223.588C133.779 223.313 133.659 223.056 133.468 222.854C133.419 222.814 133.362 222.785 133.301 222.768C133.24 222.752 133.176 222.749 133.114 222.76C133.052 222.77 132.993 222.794 132.94 222.83C132.888 222.866 132.845 222.912 132.812 222.966C132.243 223.875 131.964 224.935 132.014 226.005C132.065 227.075 132.441 228.104 133.093 228.956C133.466 229.513 134.022 229.922 134.666 230.113C134.799 230.147 134.938 230.153 135.074 230.131C135.21 230.108 135.339 230.056 135.453 229.98C135.568 229.904 135.665 229.804 135.738 229.687C135.81 229.571 135.858 229.44 135.876 229.304C135.866 229.182 135.83 229.063 135.769 228.955C135.709 228.848 135.626 228.755 135.527 228.682C135.329 228.525 135.108 228.399 134.872 228.309C134.134 228.017 133.359 227.833 132.569 227.762C131.951 227.656 131.664 227.668 131.664 227.644Z" fill="#263238"/>
<path d="M142.927 231.033L142.758 231.089L142.247 231.214L140.281 231.662C138.571 232.035 136.088 232.563 133.005 233.154C129.923 233.745 126.241 234.398 122.11 234.977C119.948 235.331 117.752 235.441 115.565 235.306C114.4 235.228 113.25 235.009 112.139 234.653C111.568 234.46 111.016 234.214 110.491 233.919C109.943 233.627 109.454 233.234 109.05 232.762C108.824 232.555 108.627 232.319 108.463 232.06C108.145 231.514 107.95 230.906 107.89 230.278C107.831 229.65 107.909 229.016 108.12 228.421C108.528 227.273 109.288 226.281 110.292 225.585C111.237 224.922 112.278 224.408 113.381 224.061C113.923 223.906 114.448 223.719 114.984 223.601C115.521 223.483 116.051 223.352 116.582 223.277C120.831 222.612 124.694 222.948 127.914 222.948C129.523 222.979 130.977 222.948 132.25 222.861C133.339 222.783 134.422 222.646 135.495 222.45L136.668 222.201L137.511 221.965L138.029 221.822C138.087 221.802 138.148 221.789 138.21 221.785C138.21 221.785 138.153 221.816 138.041 221.853L137.529 222.027L136.693 222.295L135.526 222.575C134.448 222.792 133.359 222.947 132.263 223.041C130.984 223.134 129.523 223.197 127.895 223.178C124.675 223.209 120.812 222.892 116.619 223.57C116.095 223.644 115.577 223.788 115.047 223.899C114.516 224.011 114.005 224.204 113.468 224.353C112.396 224.692 111.384 225.193 110.466 225.84C109.518 226.498 108.8 227.435 108.414 228.521C108.22 229.071 108.148 229.656 108.202 230.237C108.256 230.818 108.434 231.38 108.726 231.885C108.875 232.115 109.053 232.324 109.256 232.507C109.637 232.937 110.091 233.297 110.598 233.571C111.102 233.856 111.633 234.094 112.182 234.28C113.27 234.623 114.395 234.832 115.533 234.902C117.699 235.038 119.873 234.936 122.017 234.597C126.135 234.056 129.823 233.403 132.906 232.843C135.988 232.284 138.478 231.786 140.2 231.45L142.178 231.064L142.69 230.971C142.772 230.975 142.853 230.996 142.927 231.033Z" fill="#263238"/>
<path d="M118.129 235.07C118.027 234.499 117.971 233.921 117.961 233.341C117.886 232.277 117.761 230.803 117.543 229.192C117.324 227.581 117.062 226.126 116.85 225.075C116.704 224.514 116.606 223.942 116.557 223.365C116.789 223.898 116.962 224.455 117.075 225.025C117.415 226.384 117.68 227.761 117.867 229.149C118.051 230.535 118.159 231.93 118.192 233.328C118.231 233.909 118.21 234.493 118.129 235.07Z" fill="#263238"/>
<path opacity="0.4" d="M135.963 222.021L140.263 232.75L143.595 232.134L137.211 221.66L135.963 222.021Z" fill="black"/>
<path d="M191.974 192.615C191.281 192.839 146.871 180.437 128.912 175.405C126.581 174.75 124.136 174.599 121.74 174.96C119.345 175.322 117.055 176.188 115.022 177.501L114.804 177.638C111.855 179.538 109.568 182.3 108.253 185.545C106.939 188.79 106.661 192.36 107.459 195.768C107.972 197.963 108.916 200.034 110.238 201.862C111.56 203.69 113.233 205.238 115.159 206.416C127.015 213.65 152.069 228.863 152.837 228.564C153.841 228.179 185.141 227.37 185.141 227.37L147.483 200.371L165.398 211.914L191.974 192.634V192.615Z" fill="#020202"/>
<path d="M154.895 179.143L164.336 174.273L173.596 180.057L208.253 181.189L213.245 197.982L163.076 186.389C163.076 186.389 153.947 187.198 153.26 185.145C152.574 183.093 154.895 179.143 154.895 179.143Z" fill="#AA6550"/>
<path d="M183.294 206.099L178.626 221.387L179.207 226.045C183.317 230.173 188.796 232.665 194.617 233.056C200.439 233.446 206.203 231.708 210.831 228.166C213.7 225.97 216.021 223.144 217.614 219.908C219.208 216.672 220.03 213.112 220.016 209.507L219.948 193.548L183.294 206.099Z" fill="#020202"/>
<path d="M155.501 206.198C155.451 206.267 150.035 202.33 143.408 197.404C136.781 192.478 131.446 188.423 131.502 188.354C131.558 188.286 136.968 192.217 143.601 197.143C150.234 202.069 155.557 206.124 155.501 206.198Z" fill="#455A64"/>
<path d="M163.7 177.321C162.199 177.97 160.656 178.521 159.083 178.969C157.54 179.514 155.965 179.96 154.365 180.306C155.866 179.655 157.409 179.105 158.983 178.658C160.525 178.112 162.101 177.666 163.7 177.321Z" fill="#EB996E"/>
<path d="M164.405 180.188C163.879 180.337 163.34 180.439 162.795 180.493C161.803 180.655 160.437 180.897 158.939 181.239C157.441 181.581 156.106 181.961 155.139 182.247C154.625 182.432 154.097 182.575 153.56 182.676C154.036 182.412 154.54 182.203 155.064 182.054C156.309 181.614 157.577 181.244 158.864 180.947C160.15 180.653 161.453 180.433 162.764 180.288C163.306 180.197 163.856 180.163 164.405 180.188Z" fill="#EB996E"/>
<path d="M163.613 182.825C161.907 183.331 160.171 183.73 158.415 184.019C156.679 184.418 154.92 184.711 153.148 184.896C154.857 184.393 156.595 183.995 158.353 183.702C160.087 183.305 161.843 183.012 163.613 182.825Z" fill="#EB996E"/>
<path d="M151.37 156.578L160.075 185.139C160.124 185.298 160.22 185.438 160.35 185.543C160.48 185.647 160.639 185.71 160.805 185.724L184.517 187.496C184.727 187.51 184.924 187.604 185.068 187.757C185.211 187.911 185.291 188.113 185.291 188.323V189.797C185.291 189.908 185.269 190.017 185.226 190.118C185.183 190.22 185.12 190.312 185.041 190.389C184.962 190.466 184.868 190.527 184.765 190.567C184.663 190.607 184.553 190.627 184.442 190.625L119.546 189.381C119.38 189.378 119.219 189.325 119.083 189.23C118.947 189.134 118.843 189.001 118.785 188.846L107.378 159.06C107.33 158.938 107.313 158.806 107.326 158.675C107.34 158.544 107.385 158.419 107.456 158.309C107.528 158.199 107.626 158.108 107.74 158.042C107.854 157.977 107.983 157.94 108.114 157.934L150.49 155.963C150.686 155.946 150.882 155.998 151.043 156.111C151.203 156.224 151.319 156.389 151.37 156.578Z" fill="#7A7A7A"/>
<path d="M133.087 168.881C132.769 168.999 132.485 169.194 132.261 169.448C132.036 169.702 131.879 170.007 131.801 170.336C131.772 170.68 131.835 171.026 131.983 171.338C132.131 171.65 132.359 171.918 132.644 172.115C132.986 172.362 133.394 172.502 133.816 172.517C134.238 172.533 134.655 172.423 135.015 172.202C135.375 171.935 135.634 171.554 135.747 171.12C135.861 170.687 135.823 170.229 135.639 169.82C135.352 169.03 133.904 168.477 133.068 168.881" fill="#E0E0E0"/>
<path d="M143.595 232.134L136.731 220.889L187.15 181.5C190.287 178.936 194.124 177.369 198.164 177.004C201.107 176.737 204.074 177.115 206.855 178.112C209.636 179.109 212.165 180.701 214.264 182.775C216.362 184.849 217.98 187.356 219.004 190.119C220.028 192.883 220.433 195.836 220.191 198.772L219.386 208.382L185.952 219.123L143.595 232.134Z" fill="#020202"/>
<path d="M208.254 205.44C208.254 205.44 208.216 205.483 208.123 205.564L207.711 205.9L206.107 207.181L204.94 208.095C204.516 208.431 204.01 208.717 203.493 209.109L201.82 210.254C201.521 210.453 201.196 210.67 200.903 210.876L199.898 211.498C198.532 212.312 197.053 213.245 195.374 214.091C194.544 214.527 193.696 214.999 192.803 215.441L190.014 216.753C185.853 218.653 181.598 220.343 177.266 221.816C168.056 224.982 159.544 227.258 153.448 229.099C151.919 229.547 150.54 229.97 149.329 230.343C148.119 230.716 147.083 231.033 146.209 231.32L144.262 231.942L143.751 232.097C143.692 232.118 143.632 232.132 143.57 232.141L143.738 232.066L144.237 231.879L146.172 231.189C147.008 230.884 148.044 230.567 149.254 230.156C150.465 229.746 151.832 229.323 153.354 228.863C159.438 226.96 167.943 224.652 177.135 221.493C181.74 219.931 186.027 218.19 189.864 216.467L192.647 215.167C193.546 214.732 194.395 214.265 195.225 213.836C196.903 213.003 198.382 212.082 199.755 211.286L200.759 210.695C201.078 210.496 201.383 210.285 201.683 210.073L203.424 208.948C203.942 208.593 204.447 208.288 204.878 207.959L206.057 207.063L207.698 205.819L208.135 205.508L208.254 205.44Z" fill="#455A64"/>
<path d="M209.477 210.695C209.322 210.808 209.152 210.899 208.971 210.963C208.634 211.112 208.141 211.317 207.523 211.541C205.912 212.133 204.26 212.611 202.581 212.972C200.901 213.329 199.197 213.57 197.483 213.693C196.828 213.737 196.291 213.755 195.923 213.755C195.731 213.769 195.538 213.759 195.349 213.724C196.049 213.599 196.755 213.512 197.464 213.463C198.762 213.32 200.584 213.071 202.513 212.654C204.441 212.238 206.201 211.728 207.449 211.33C208.112 211.082 208.789 210.87 209.477 210.695Z" fill="#455A64"/>
<path d="M185.141 183.391C185.197 183.466 174.408 191.918 161.042 202.268C147.676 212.617 136.793 220.964 136.743 220.889C136.693 220.815 147.476 212.368 160.842 202.013C174.208 191.657 185.091 183.323 185.141 183.391Z" fill="#455A64"/>
<path d="M182.208 225.187C179.793 223.906 177.079 224.664 174.764 225.442C173.222 225.958 171.644 226.779 170.059 226.338C168.929 226.02 168.087 225.094 167.219 224.316C165.47 222.712 163.415 221.474 161.178 220.674C158.94 219.874 156.564 219.528 154.19 219.658C152.835 219.723 151.554 220.299 150.609 221.269C148.231 223.837 150.022 227.171 152.15 229.354C155.941 233.195 160.947 235.612 166.321 236.196C170.745 236.656 176.829 236.046 181.297 234.131C184.061 232.949 185.478 229.696 184.03 227.071C183.622 226.278 182.988 225.623 182.208 225.187Z" fill="#263BFF"/>
<g opacity="0.4">
<path opacity="0.4" d="M182.208 227.239C179.787 225.958 177.073 226.717 174.757 227.494C173.216 228.011 171.637 228.832 170.052 228.39C168.923 228.073 168.081 227.146 167.213 226.369C165.463 224.765 163.409 223.526 161.171 222.726C158.934 221.926 156.558 221.58 154.184 221.71C152.829 221.775 151.548 222.351 150.602 223.321C150.124 223.83 149.781 224.45 149.604 225.125C150.062 226.726 150.938 228.177 152.144 229.329C155.935 233.17 160.941 235.587 166.315 236.171C170.739 236.631 176.823 236.021 181.291 234.106C182.084 233.769 182.786 233.251 183.34 232.593C183.895 231.935 184.285 231.155 184.479 230.318C184.339 229.675 184.062 229.07 183.667 228.544C183.271 228.017 182.768 227.581 182.189 227.264L182.208 227.239Z" fill="black"/>
</g>
<path d="M184.517 230.293C184.412 229.783 184.211 229.298 183.924 228.863C183.577 228.369 183.139 227.947 182.632 227.619C181.965 227.169 181.203 226.88 180.405 226.773C178.614 226.562 176.53 227.314 174.221 227.936C173.079 228.241 171.831 228.701 170.477 228.558C169.792 228.47 169.134 228.241 168.542 227.886C167.954 227.521 167.398 227.104 166.883 226.642C165 224.859 162.74 223.52 160.268 222.724C159.2 222.362 158.099 222.108 156.98 221.965C156.007 221.826 155.019 221.826 154.047 221.965C153.252 222.085 152.486 222.351 151.788 222.749C151.265 223.051 150.792 223.431 150.384 223.875C149.76 224.652 149.529 225.181 149.492 225.156C149.685 224.663 149.955 224.204 150.29 223.794C150.679 223.305 151.148 222.885 151.676 222.55C152.388 222.116 153.179 221.824 154.003 221.692C154.996 221.545 156.005 221.545 156.998 221.692C158.137 221.828 159.26 222.075 160.349 222.432C161.552 222.83 162.714 223.342 163.819 223.962C164.408 224.286 164.973 224.652 165.51 225.056C166.053 225.479 166.558 225.94 167.082 226.387C167.584 226.848 168.125 227.264 168.698 227.631C169.251 227.959 169.864 228.17 170.502 228.253C171.75 228.421 172.998 227.986 174.14 227.687C176.442 227.065 178.558 226.338 180.436 226.58C181.162 226.684 181.857 226.941 182.477 227.332C183.096 227.723 183.626 228.241 184.03 228.85C184.243 229.184 184.395 229.552 184.479 229.939C184.504 230.055 184.517 230.174 184.517 230.293Z" fill="#263238"/>
<path d="M184.517 230.293C184.412 229.783 184.211 229.298 183.924 228.863C183.577 228.369 183.139 227.947 182.632 227.619C181.965 227.169 181.203 226.88 180.405 226.773C178.614 226.562 176.53 227.314 174.221 227.936C173.079 228.241 171.831 228.701 170.477 228.558C169.792 228.47 169.134 228.241 168.542 227.886C167.954 227.521 167.398 227.104 166.883 226.642C165 224.859 162.74 223.52 160.268 222.724C159.2 222.362 158.099 222.108 156.98 221.965C156.007 221.826 155.019 221.826 154.047 221.965C153.252 222.085 152.486 222.351 151.788 222.749C151.265 223.051 150.792 223.431 150.384 223.875C149.76 224.652 149.529 225.181 149.492 225.156C149.685 224.663 149.955 224.204 150.29 223.794C150.679 223.305 151.148 222.885 151.676 222.55C152.388 222.116 153.179 221.824 154.003 221.692C154.996 221.545 156.005 221.545 156.998 221.692C158.137 221.828 159.26 222.075 160.349 222.432C161.552 222.83 162.714 223.342 163.819 223.962C164.408 224.286 164.973 224.652 165.51 225.056C166.053 225.479 166.558 225.94 167.082 226.387C167.584 226.848 168.125 227.264 168.698 227.631C169.251 227.959 169.864 228.17 170.502 228.253C171.75 228.421 172.998 227.986 174.14 227.687C176.442 227.065 178.558 226.338 180.436 226.58C181.162 226.684 181.857 226.941 182.477 227.332C183.096 227.723 183.626 228.241 184.03 228.85C184.243 229.184 184.395 229.552 184.479 229.939C184.504 230.055 184.517 230.174 184.517 230.293Z" fill="#263238"/>
<path d="M154.521 229.709C154.902 229.376 155.321 229.09 155.769 228.857C156.805 228.232 157.873 227.663 158.97 227.152C160.067 226.637 161.189 226.178 162.333 225.778C162.799 225.588 163.285 225.453 163.781 225.374C163.346 225.623 162.888 225.831 162.415 225.996C161.56 226.35 160.387 226.848 159.107 227.445C157.828 228.042 156.699 228.626 155.881 229.056C155.451 229.318 154.995 229.537 154.521 229.709Z" fill="#263238"/>
<path d="M155.376 232.122C156.899 231.208 158.477 230.388 160.1 229.665C161.677 228.847 163.302 228.124 164.967 227.501C163.444 228.414 161.866 229.235 160.243 229.957C158.667 230.778 157.042 231.501 155.376 232.122Z" fill="#263238"/>
<path d="M165.36 233.167C165.31 233.241 162.733 231.711 159.607 229.746C156.48 227.781 153.991 226.12 153.991 226.045C153.991 225.971 156.612 227.501 159.744 229.472C162.876 231.444 165.422 233.092 165.36 233.167Z" fill="#263238"/>
<path d="M166.82 230.666C166.379 230.425 165.962 230.144 165.572 229.827C164.817 229.279 163.769 228.527 162.596 227.718C161.423 226.91 160.356 226.194 159.576 225.678C159.131 225.426 158.713 225.13 158.328 224.795C158.803 224.976 159.257 225.208 159.682 225.485C160.493 225.952 161.597 226.642 162.802 227.451C164.006 228.259 165.011 229.049 165.735 229.646C166.138 229.94 166.502 230.283 166.82 230.666Z" fill="#263238"/>
</svg>
