<svg width="691" height="615" viewBox="0 0 691 615" fill="none" xmlns="http://www.w3.org/2000/svg">
<path d="M678.093 94.4966L673.638 87.6146C636.071 29.566 569.919 -4.38181 501.075 1.51326C492.236 2.26714 483.464 3.65965 474.827 5.67986C412.346 20.3768 358.96 68.3901 337.734 128.803C325.237 164.336 322.464 204.991 297.871 233.535C265.857 270.711 210.125 273.086 161.077 272.716C112.029 272.345 56.26 274.903 24.4107 312.177C4.48087 335.532 -1.29264 368.219 1.07299 398.835C7.3129 479.853 66.2779 551.075 139.979 585.456C213.68 619.838 299.487 621.084 378.882 603.447C490.088 578.621 594.936 515.213 656.648 419.494C718.361 323.774 731.549 194.957 678.093 94.4966Z" fill="#404040"/>
</svg>
