<svg width="32" height="32" viewBox="0 0 32 32" fill="none" xmlns="http://www.w3.org/2000/svg">
<path d="M27.0723 19.6999L27.6078 20.2429C27.9036 20.5427 27.9036 21.0288 27.6078 21.3287L25.5995 23.3649C25.5257 23.4398 25.5257 23.5615 25.5995 23.6364L27.6078 25.6726C27.9036 25.9724 27.9036 26.4585 27.6078 26.7584L27.0723 27.3013C26.7765 27.6012 26.2971 27.6012 26.0013 27.3013L23.993 25.2652C23.9192 25.1903 23.7991 25.1903 23.7253 25.2652L21.717 27.3013C21.4212 27.6012 20.9418 27.6012 20.646 27.3013L20.1105 26.7584C19.8147 26.4585 19.8147 25.9724 20.1105 25.6726L22.1188 23.6364C22.1926 23.5615 22.1926 23.4398 22.1188 23.3649L20.1105 21.3287C19.8147 21.0288 19.8147 20.5427 20.1105 20.2429L20.646 19.6999C20.9418 19.4 21.4212 19.4 21.717 19.6999L23.7253 21.7361C23.7991 21.811 23.9192 21.811 23.993 21.7361L26.0013 19.6999C26.2971 19.3997 26.7765 19.3997 27.0723 19.6999Z" fill="#BCBCBC"/>
<path d="M31.894 6.59972L28.2981 0.429739C28.005 -0.0732594 27.287 -0.0732594 26.9938 0.429739L23.398 6.59972C23.0996 7.11155 23.4635 7.75816 24.0501 7.75816H26.3205C26.425 7.75816 26.5099 7.84417 26.5099 7.95014V9.29403C26.5099 11.8386 24.4751 13.9016 21.9654 13.9016H10.6041C6.83936 13.9016 3.78735 16.996 3.78735 20.8131V21.5737C3.78735 21.6601 3.72941 21.7334 3.64723 21.7557C1.38786 22.3697 -0.232259 24.5675 0.0279138 27.1063C0.26347 29.4059 2.09415 31.277 4.36034 31.5323C7.33131 31.8668 9.84669 29.5176 9.84669 26.5726C9.84669 24.2642 8.29928 22.3267 6.2001 21.7561C6.11755 21.7334 6.0596 21.6597 6.0596 21.5733V20.8131C6.0596 18.2685 8.0944 16.2055 10.6041 16.2055H21.9654C25.7301 16.2055 28.7821 13.1111 28.7821 9.29403V7.95014C28.7821 7.84417 28.8669 7.75816 28.9715 7.75816H31.2418C31.8284 7.75816 32.1924 7.11155 31.894 6.59972ZM7.57444 26.5726C7.57444 28.0547 6.38529 29.2604 4.92348 29.2604C3.46166 29.2604 2.27252 28.0547 2.27252 26.5726C2.27252 25.0905 3.46166 23.8848 4.92348 23.8848C6.38529 23.8848 7.57444 25.0905 7.57444 26.5726Z" fill="#BCBCBC"/>
<path d="M11.9239 2.8054L12.4594 3.34833C12.7551 3.64821 12.7551 4.13431 12.4594 4.43419L10.4511 6.47037C10.3772 6.54525 10.3772 6.66697 10.4511 6.74184L12.4594 8.77802C12.7551 9.0779 12.7551 9.56401 12.4594 9.86389L11.9239 10.4068C11.6281 10.7067 11.1486 10.7067 10.8529 10.4068L8.84458 8.37063C8.77073 8.29576 8.65068 8.29576 8.57683 8.37063L6.56854 10.4068C6.27277 10.7067 5.79333 10.7067 5.49756 10.4068L4.96206 9.86389C4.66629 9.56401 4.66629 9.0779 4.96206 8.77802L6.97035 6.74184C7.0442 6.66697 7.0442 6.54525 6.97035 6.47037L4.96206 4.43419C4.66629 4.13431 4.66629 3.64821 4.96206 3.34833L5.49756 2.8054C5.79333 2.50552 6.27277 2.50552 6.56854 2.8054L8.57683 4.84158C8.65068 4.91645 8.77073 4.91645 8.84458 4.84158L10.8529 2.8054C11.1486 2.50513 11.6281 2.50513 11.9239 2.8054Z" fill="#BCBCBC"/>
</svg>
