<svg width="32" height="33" viewBox="0 0 32 33" fill="none" xmlns="http://www.w3.org/2000/svg">
<path fill-rule="evenodd" clip-rule="evenodd" d="M24.9797 23.988V17.7416C24.9797 14.3949 23.1931 12.8376 20.8112 12.8376C18.8891 12.8376 18.0277 13.8952 17.5477 14.637V13.0936H13.9264C13.9744 14.116 13.9264 23.988 13.9264 23.988H17.5477V17.9037C17.5477 17.5789 17.5712 17.2536 17.6672 17.021C17.9285 16.3704 18.5243 15.6968 19.5243 15.6968C20.8352 15.6968 21.3589 16.6957 21.3589 18.1597V23.9885H24.9797V23.988ZM10.1115 11.6066C11.3739 11.6066 12.1605 10.7693 12.1605 9.72344C12.1371 8.65518 11.3739 7.84184 10.1355 7.84184C8.89707 7.84184 8.08693 8.65464 8.08693 9.72344C8.08693 10.7693 8.87307 11.6066 10.0885 11.6066H10.1115ZM16 32.4482C7.16373 32.4482 0 25.2845 0 16.4482C0 7.61144 7.16373 0.448242 16 0.448242C24.8363 0.448242 32 7.61144 32 16.4482C32 25.2845 24.8363 32.4482 16 32.4482ZM11.9221 23.988V13.0936H8.30133V23.988H11.9221Z" fill="white"/>
</svg>
