<svg width="190" height="41" viewBox="0 0 190 41" fill="none" xmlns="http://www.w3.org/2000/svg">
<path d="M29.9574 41H11.2812C5.07386 41 0 35.9621 0 29.7451V11.2013C0 5.03791 5.07386 0 11.2812 0H29.9574C36.2187 0 41.2386 5.03791 41.2386 11.2013V29.7451C41.2926 35.9621 36.2187 41 29.9574 41Z" fill="url(#paint0_linear)"/>
<path d="M25.6394 11.0941C24.6138 10.2366 23.5882 9.3255 22.5627 8.46798C22.0229 8.03922 21.5371 7.55687 20.9973 7.12811C20.9434 7.18171 20.8894 7.2353 20.8354 7.2889C19.7019 8.2536 18.6223 9.21831 17.4888 10.183C15.9774 11.4693 14.4121 12.8092 12.9007 14.0954C10.8496 15.8641 8.74449 17.6863 6.69336 19.4549C6.53143 19.6157 6.26154 19.7229 6.26154 19.9373C6.26154 23.9033 6.09961 27.8693 6.09961 31.8353C6.09961 31.9425 6.09961 32.0497 6.09961 32.1569C6.09961 32.1569 6.42347 32.1569 6.47745 32.1569C8.58256 32.1569 10.7417 32.1569 12.7928 32.1569C13.0627 32.1569 13.1167 32.0497 13.1167 31.8353C13.1167 29.7451 13.1167 27.6013 13.1167 25.5111C12.5769 25.0288 12.253 24.332 12.253 23.5281C12.253 22.0275 13.4945 20.8484 14.9519 20.8484H15.0059C16.7331 19.2941 18.5144 17.7399 20.2417 16.1856C22.0229 14.5778 23.8042 13.0235 25.5854 11.4693C25.8553 11.3085 25.8013 11.2549 25.6394 11.0941Z" fill="white"/>
<path d="M25.8014 20.6876C25.8014 19.1869 27.0429 18.0079 28.5003 18.0079C28.7702 18.0079 29.0401 18.0615 29.256 18.1151C29.9037 17.5255 30.5514 16.9896 31.1992 16.4C31.2531 16.3464 31.3611 16.2392 31.4151 16.1856C30.9293 15.7569 30.4975 15.3817 30.0117 14.953C29.31 14.3634 28.6083 13.7739 27.9605 13.1843C27.8526 13.0771 27.7446 13.0771 27.6367 13.1843C27.2588 13.5595 26.881 13.8811 26.5031 14.2026C24.7759 15.7033 23.0486 17.2575 21.3213 18.7582C20.0259 19.9373 18.6764 21.1164 17.381 22.2419C17.5969 22.617 17.7049 23.0994 17.7049 23.5281C17.7049 24.7608 16.6253 25.8327 15.4918 26.1543C15.4918 28.0301 15.2759 29.9059 15.2759 31.8353C15.2759 31.9425 15.2759 31.9961 15.2759 32.1033C15.8157 32.1033 15.5997 32.1033 15.6537 32.1033C17.1651 32.1033 18.7304 32.1033 20.2418 32.1033C20.4577 32.1033 20.5117 31.9961 20.5117 31.8353C20.5117 29.9595 20.5657 28.0301 20.5117 26.1543C20.5117 25.8863 20.6196 25.6719 20.8355 25.5111C22.2389 24.2785 23.6424 22.9922 25.0458 21.7595C25.3157 21.5451 25.5316 21.3307 25.8014 21.1164C25.8554 21.0092 25.8014 20.8484 25.8014 20.6876Z" fill="white"/>
<path d="M35.5173 19.8301C35.5173 19.7229 35.4633 19.6157 35.3553 19.5085C34.7616 18.9726 34.1678 18.4902 33.5741 17.9543C33.4661 17.8471 33.3582 17.8471 33.2502 17.9543C32.5485 18.5974 31.7928 19.2405 31.0911 19.8837C31.1451 20.1516 31.1991 20.366 31.1991 20.634C31.1991 22.1347 29.9576 23.3137 28.5002 23.3137C28.1224 23.3137 27.7985 23.2601 27.4747 23.0994C26.1252 24.2784 24.7758 25.5111 23.4264 26.6902C23.2644 26.7974 23.2104 26.9582 23.2104 27.119C23.2104 27.8693 23.2104 28.6732 23.2104 29.4235C23.2104 30.2275 23.2104 30.9778 23.2104 31.7817C23.2104 31.9961 23.2644 32.0497 23.4803 32.0497C24.9377 32.0497 26.3951 32.0497 27.8525 32.0497C28.0144 32.0497 28.1224 31.9961 28.1224 31.8353C28.1224 31.1386 28.1764 30.4418 28.1224 29.7987C28.1224 29.7451 28.1224 29.6915 28.1224 29.6915C27.9604 29.3164 27.8525 28.9412 27.8525 28.566C27.8525 27.0654 29.094 25.8863 30.5514 25.8863C30.8752 25.8863 31.1991 25.9399 31.469 26.0471C32.7644 24.9216 34.0599 23.7961 35.3014 22.6706C35.4093 22.617 35.4633 22.4562 35.4633 22.349C35.5173 21.4915 35.5173 20.6876 35.5173 19.8301Z" fill="white"/>
<path d="M35.5174 26.315C35.5174 26.2079 35.5174 26.1007 35.5174 25.9399C35.4094 26.0471 35.3014 26.1007 35.2475 26.1543C34.5997 26.7438 33.898 27.3333 33.2503 27.9229C33.3043 28.1373 33.3043 28.298 33.3043 28.5124C33.3043 29.9595 32.1708 31.1386 30.7134 31.1922C30.7134 31.4065 30.7134 31.5673 30.7134 31.7817C30.7134 31.9961 30.7674 32.0497 31.0372 32.0497C32.4407 32.0497 33.8441 32.0497 35.2475 32.0497C35.5174 32.0497 35.5713 31.9961 35.5713 31.7281C35.5174 30.0131 35.5174 28.1373 35.5174 26.315Z" fill="white"/>
<path d="M51.2783 19.5085C51.2783 13.6667 54.5709 10.5046 59.5368 10.5046C64.4488 10.5046 67.7954 13.6131 67.7954 19.5085C67.7954 25.4039 64.5028 28.5124 59.5368 28.5124C54.5709 28.5124 51.2783 25.4039 51.2783 19.5085ZM63.7471 19.5085C63.7471 15.1673 62.0198 13.8275 59.5368 13.8275C57.0539 13.8275 55.3266 15.1673 55.3266 19.5085C55.3266 23.8497 57.0539 25.1895 59.5368 25.1895C62.0198 25.1895 63.7471 23.9033 63.7471 19.5085ZM65.2584 33.9791L59.4829 32.4248C58.7272 32.2105 58.4033 31.7281 58.5113 30.9242C58.6732 30.1203 59.159 29.7987 59.9147 29.9059L65.7442 30.7098C66.5539 30.817 66.9317 31.2993 66.8238 32.1033L66.6618 33.0144C66.6079 33.8719 66.0681 34.1935 65.2584 33.9791Z" fill="#232323"/>
<path d="M80.5882 15.0601H81.8836C82.6933 15.0601 83.1251 15.4889 83.1251 16.2928V22.2954C83.1251 27.1189 80.6961 28.5124 76.4859 28.5124C72.2757 28.5124 69.8467 27.1189 69.8467 22.2954V16.2928C69.8467 15.4889 70.2785 15.0601 71.0882 15.0601H72.3836C73.1933 15.0601 73.6251 15.4889 73.6251 16.2928V22.349C73.6251 24.7072 74.4887 25.3503 76.5399 25.3503C78.591 25.3503 79.4546 24.7072 79.4546 22.349V16.2928C79.3467 15.4889 79.7785 15.0601 80.5882 15.0601Z" fill="#232323"/>
<path d="M97.5369 19.9909V24.4392C97.5369 27.2261 96.2415 28.298 93.3267 28.298H90.25C86.9574 28.298 84.9062 27.4405 84.9062 24.2784C84.9062 21.1163 86.9574 20.2052 90.25 20.2052H93.7585V19.9909C93.7585 18.4902 92.571 17.8471 90.6278 17.8471C89.6562 17.8471 88.4148 18.0078 87.1193 18.2758C86.2557 18.4366 85.7699 18.0614 85.7699 17.2039V16.7216C85.7699 15.9712 86.2017 15.4889 87.0653 15.3281C88.5227 15.0065 89.9801 14.8458 91.1676 14.8458C94.8381 14.7922 97.5369 16.3464 97.5369 19.9909ZM93.8125 24.2248V22.885H90.5199C88.9006 22.885 88.5227 23.2601 88.5227 24.2784C88.5227 25.2431 88.8466 25.6183 90.4659 25.6183H92.4631C93.5966 25.5647 93.8125 25.136 93.8125 24.2248Z" fill="#232323"/>
<path d="M108.008 16.132V16.936C108.008 17.7399 107.523 18.1686 106.659 18.1686C103.798 18.2222 103.69 18.4366 103.69 19.4549V27.0118C103.69 27.8157 103.258 28.2445 102.449 28.2445H101.099C100.29 28.2445 99.8579 27.8157 99.8579 27.0118V18.919C99.8579 15.8641 100.991 15.0065 106.713 14.8994C107.523 14.8994 108.008 15.3281 108.008 16.132Z" fill="#232323"/>
<path d="M116.969 18.115H113.298V23.3673C113.298 24.7608 113.892 25.2967 115.403 25.2967C116.105 25.2967 116.591 25.1359 117.077 25.1359C117.94 25.1359 118.264 25.4575 118.264 26.1007V26.7974C118.264 27.4941 117.94 27.9765 117.239 28.1373C112.92 29.1556 109.466 28.0837 109.466 23.3673V13.1843C109.466 12.3804 109.898 11.9516 110.707 11.9516H112.057C112.866 11.9516 113.298 12.3804 113.298 13.1843V15.0065H116.969C117.778 15.0065 118.21 15.4353 118.21 16.2392V16.8288C118.21 17.6863 117.724 18.115 116.969 18.115Z" fill="#232323"/>
<path d="M131.812 19.9909V24.4392C131.812 27.2261 130.517 28.298 127.602 28.298H124.525C121.233 28.298 119.182 27.4405 119.182 24.2784C119.182 21.1163 121.233 20.2052 124.525 20.2052H128.034V19.9909C128.034 18.4902 126.846 17.8471 124.903 17.8471C123.932 17.8471 122.69 18.0078 121.395 18.2758C120.531 18.4366 120.045 18.0614 120.045 17.2039V16.7216C120.045 15.9712 120.477 15.4889 121.341 15.3281C122.798 15.0065 124.256 14.8458 125.443 14.8458C129.113 14.7922 131.812 16.3464 131.812 19.9909ZM128.034 24.2248V22.885H124.741C123.122 22.885 122.744 23.2601 122.744 24.2784C122.744 25.2431 123.068 25.6183 124.687 25.6183H126.684C127.872 25.5647 128.034 25.136 128.034 24.2248Z" fill="#232323"/>
<path d="M145.793 11.0405C146.548 11.2013 146.872 11.6837 146.872 12.434V13.3451C146.872 14.2026 146.332 14.5778 145.415 14.417C139.747 13.2915 137.804 15.0601 137.804 19.5621C137.804 24.064 139.747 25.8327 145.415 24.7072C146.332 24.4928 146.872 24.9216 146.872 25.7791V26.6902C146.872 27.4405 146.494 27.9229 145.685 28.1372C138.452 29.8523 133.81 26.4758 133.81 19.6157C133.81 12.5948 138.506 9.21829 145.793 11.0405Z" fill="#232323"/>
<path d="M160.96 19.9909V24.4392C160.96 27.2261 159.665 28.298 156.75 28.298H153.673C150.381 28.298 148.33 27.4405 148.33 24.2784C148.33 21.1163 150.381 20.2052 153.673 20.2052H157.182V19.9909C157.182 18.4902 155.994 17.8471 154.051 17.8471C153.08 17.8471 151.838 18.0078 150.543 18.2758C149.679 18.4366 149.193 18.0614 149.193 17.2039V16.7216C149.193 15.9712 149.625 15.4889 150.489 15.3281C151.946 15.0065 153.403 14.8458 154.591 14.8458C158.261 14.7922 160.96 16.3464 160.96 19.9909ZM157.182 24.2248V22.885H153.835C152.216 22.885 151.838 23.2601 151.838 24.2784C151.838 25.2431 152.162 25.6183 153.781 25.6183H155.778C156.966 25.5647 157.182 25.136 157.182 24.2248Z" fill="#232323"/>
<path d="M162.957 26.583V26.2078C162.957 25.3503 163.497 24.9216 164.361 25.0824C167.491 25.6719 170.73 25.8863 170.73 24.3856C170.73 23.7961 170.298 23.4745 169.38 23.2601L166.52 22.5098C163.875 21.8131 162.741 20.5268 162.741 18.7046C162.741 14.8994 167.653 14.0954 172.403 15.2745C173.159 15.4353 173.483 15.9177 173.483 16.668V16.9895C173.483 17.8471 172.943 18.2222 172.079 18.0614C169.434 17.4719 166.358 17.3647 166.358 18.5974C166.358 19.0261 166.736 19.3477 167.329 19.5085L170.352 20.3124C172.997 21.0092 174.292 22.2954 174.292 24.332C174.292 28.5124 168.787 29.2628 163.983 27.9765C163.281 27.7621 162.957 27.2797 162.957 26.583Z" fill="#232323"/>
<path d="M188.326 19.9909V24.4392C188.326 27.2261 187.031 28.298 184.116 28.298H181.04C177.747 28.298 175.696 27.4405 175.696 24.2784C175.696 21.1163 177.747 20.2052 181.04 20.2052H184.548V19.9909C184.548 18.4902 183.361 17.8471 181.417 17.8471C180.446 17.8471 179.204 18.0078 177.909 18.2758C177.045 18.4366 176.559 18.0614 176.559 17.2039V16.7216C176.559 15.9712 176.991 15.4889 177.855 15.3281C179.312 15.0065 180.77 14.8458 181.957 14.8458C185.628 14.7922 188.326 16.3464 188.326 19.9909ZM184.602 24.2248V22.885H181.309C179.69 22.885 179.312 23.2601 179.312 24.2784C179.312 25.2431 179.636 25.6183 181.255 25.6183H183.253C184.386 25.5647 184.602 25.136 184.602 24.2248Z" fill="#232323"/>
<defs>
<linearGradient id="paint0_linear" x1="9.19638" y1="29.6365" x2="39.5493" y2="5.01099" gradientUnits="userSpaceOnUse">
<stop offset="0.0024713" stop-color="#0019E4"/>
<stop offset="1" stop-color="#00D2FD"/>
</linearGradient>
</defs>
</svg>
