<svg width="775" height="592" viewBox="0 0 775 592" fill="none" xmlns="http://www.w3.org/2000/svg">
<path d="M959.832 239.088C955.212 146.816 900.827 57.2867 818.547 20.1921C755.015 -8.49339 679.69 -4.94384 615.213 22.7634C559.819 46.4979 510.496 87.4123 451.457 98.2245C371.646 112.835 292.414 69.4768 211.487 72.3243C109.443 75.9297 15.5268 163.06 1.81623 266.871C-11.8943 370.682 56.2192 478.599 153.949 508.003L157.345 508.152C240.74 542.489 519.698 598.294 609.682 591.143C699.666 583.992 789.009 549.29 855.76 486.439C922.51 423.588 964.455 331.343 959.832 239.088Z" fill="#00AAFF"/>
</svg>
