<svg width="244" height="374" viewBox="0 0 244 374" fill="none" xmlns="http://www.w3.org/2000/svg">
<path d="M374.624 237.317C384.627 205.015 377.177 167.404 353.55 144.316C335.312 126.473 308.97 118.231 283.323 119.657C261.298 120.858 239.202 128.728 217.547 125.029C188.273 120.026 166.481 95.1668 138.302 85.9798C102.767 74.4006 59.535 92.557 41.7809 126.524C24.0267 160.49 33.8868 206.147 63.7913 228.532L64.9401 229.01C89.2968 251.291 178.189 305.518 210.022 314.364C241.856 323.209 276.93 322.502 307.773 309.28C338.617 296.057 364.624 269.614 374.624 237.317Z" fill="#00AAFF"/>
</svg>
