<svg width="775" height="567" viewBox="0 0 775 567" fill="none" xmlns="http://www.w3.org/2000/svg">
<path d="M905.978 241.441C884.89 186.227 829.673 143.521 770.563 144.677C694.876 146.092 629.699 213.386 554.369 205.998C510.791 201.726 473.616 172.765 443.728 140.803C413.839 108.841 388.195 72.4359 353.609 45.6776C288.779 -4.59369 194.821 -13.7526 121.531 22.9822C48.2413 59.717 -0.615495 140.485 0.952436 222.429C2.52037 304.374 22.4116 398.228 95.0166 449.64L131.681 474.299C205.718 524.183 291.759 553.365 380.883 558.819C418.928 561.119 451.757 566.95 489.124 566.422C579.758 565.135 672.647 565.337 754.289 525.995C807.545 500.334 856.141 462.249 886.484 411.605C916.827 360.961 927.082 296.639 905.978 241.441Z" fill="#E6E6E6"/>
</svg>
