<svg width="200" height="247" viewBox="0 0 200 247" fill="none" xmlns="http://www.w3.org/2000/svg">
<path d="M366.28 107.615C357.826 85.4805 335.69 68.3603 311.993 68.8235C281.651 69.3909 255.522 96.3684 225.323 93.4065C207.853 91.6939 192.95 80.0837 180.968 67.2705C168.986 54.4573 158.705 39.8628 144.84 29.1356C118.85 8.98232 81.1836 5.3106 51.8023 20.0372C22.421 34.7639 2.83471 67.1432 3.46328 99.9938C4.09185 132.844 12.0661 170.47 41.1728 191.08L55.871 200.966C85.5517 220.964 120.045 232.663 155.774 234.849C171.026 235.771 184.187 238.109 199.167 237.897C235.501 237.381 272.74 237.462 305.469 221.69C326.819 211.403 346.3 196.135 358.465 175.833C370.629 155.53 374.74 129.744 366.28 107.615Z" fill="#E6E6E6"/>
</svg>
