<svg width="33" height="35" viewBox="0 0 33 35" fill="none" xmlns="http://www.w3.org/2000/svg">
<path d="M7.71528 0.723145C3.73661 0.723145 0.5 4.00471 0.5 8.03863V25.8521C0.5 29.886 3.73661 33.1676 7.71528 33.1676H17.6852C18.0129 33.1676 18.2778 32.899 18.2778 32.5668C18.2778 32.2345 18.0129 31.9659 17.6852 31.9659H7.71528C4.38965 31.9659 1.68519 29.2239 1.68519 25.8521V8.03863C1.68519 4.66682 4.38965 1.92479 7.71528 1.92479H25.2847C28.6104 1.92479 31.3148 4.66682 31.3148 8.03863V19.3487C31.3148 19.6809 31.5797 19.9495 31.9074 19.9495C32.2351 19.9495 32.5 19.6809 32.5 19.3487V8.03863C32.5 4.00471 29.2634 0.723145 25.2847 0.723145H7.71528ZM12.2639 4.93008C12.1127 4.94157 11.9663 5.01249 11.86 5.13896L8.15741 9.51722L5.89236 7.79572C5.63103 7.59685 5.25981 7.64925 5.06366 7.91542C4.86692 8.18038 4.91979 8.55676 5.18171 8.75563L7.8912 10.8163C7.99728 10.8974 8.12152 10.936 8.24537 10.936C8.41307 10.936 8.57886 10.8647 8.6956 10.7259L12.7593 5.91933C12.9726 5.66818 12.9433 5.28954 12.6944 5.07325C12.5706 4.9657 12.4151 4.91859 12.2639 4.93008ZM16.5 7.93302C16.1723 7.93302 15.9074 8.20159 15.9074 8.53384C15.9074 8.8661 16.1723 9.13467 16.5 9.13467H27.1667C27.4944 9.13467 27.7593 8.8661 27.7593 8.53384C27.7593 8.20159 27.4944 7.93302 27.1667 7.93302H16.5ZM12.2639 13.3416C12.1127 13.3532 11.9663 13.4243 11.86 13.5505L8.15741 17.9287L5.89236 16.2072C5.63103 16.0084 5.25981 16.0608 5.06366 16.3269C4.86692 16.5919 4.91979 16.9683 5.18171 17.1672L7.8912 19.2278C7.99728 19.3089 8.12152 19.3475 8.24537 19.3475C8.41307 19.3475 8.57886 19.2762 8.6956 19.1374L12.7593 14.3308C12.9726 14.0797 12.9433 13.7011 12.6944 13.4848C12.5706 13.3769 12.4151 13.33 12.2639 13.3416ZM16.5 16.3445C16.1723 16.3445 15.9074 16.6131 15.9074 16.9454C15.9074 17.2776 16.1723 17.5462 16.5 17.5462H27.1667C27.4944 17.5462 27.7593 17.2776 27.7593 16.9454C27.7593 16.6131 27.4944 16.3445 27.1667 16.3445H16.5ZM25.3889 19.3487C21.4677 19.3487 18.2778 22.5829 18.2778 26.5585C18.2778 30.5342 21.4677 33.7684 25.3889 33.7684C29.3101 33.7684 32.5 30.5342 32.5 26.5585C32.5 22.5829 29.3101 19.3487 25.3889 19.3487ZM25.3889 20.5503C28.6564 20.5503 31.3148 23.2456 31.3148 26.5585C31.3148 29.8715 28.6564 32.5668 25.3889 32.5668C22.1213 32.5668 19.463 29.8715 19.463 26.5585C19.463 23.2456 22.1213 20.5503 25.3889 20.5503ZM25.3889 22.3528C25.0612 22.3528 24.7963 22.6213 24.7963 22.9536V26.5585C24.7963 26.8908 25.0612 27.1594 25.3889 27.1594H28.9444C29.2721 27.1594 29.537 26.8908 29.537 26.5585C29.537 26.2263 29.2721 25.9577 28.9444 25.9577H25.9815V22.9536C25.9815 22.6213 25.7166 22.3528 25.3889 22.3528ZM12.2639 22.3551C12.1126 22.3667 11.9663 22.4363 11.86 22.5628L8.15741 26.9411L5.89236 25.2196C5.63103 25.0213 5.25981 25.0731 5.06366 25.3393C4.86692 25.6042 4.91979 25.9806 5.18171 26.1795L7.8912 28.2401C7.99728 28.3212 8.12152 28.3598 8.24537 28.3598C8.41307 28.3598 8.57886 28.2886 8.6956 28.1498L12.7593 23.3444C12.9726 23.0926 12.9445 22.7128 12.6956 22.4971C12.5715 22.3896 12.4151 22.3435 12.2639 22.3551V22.3551Z" fill="#BCBCBC" stroke="#BCBCBC"/>
</svg>
