<svg width="13" height="15" viewBox="0 0 13 15" fill="none" xmlns="http://www.w3.org/2000/svg">
<path d="M12.3998 7.72787C12.0589 7.37352 11.5062 7.37352 11.1654 7.72787L7.56921 11.4678L7.56921 1.64085C7.56921 1.13943 7.17835 0.733032 6.69637 0.733032C6.21428 0.733032 5.82352 1.13943 5.82352 1.64085L5.82352 11.472L2.14529 7.64669C1.80446 7.29234 1.25173 7.29234 0.910896 7.64669C0.570065 8.00126 0.570065 8.57595 0.910896 8.93041L5.91515 14.1347C5.941 14.1616 5.9685 14.1859 5.99663 14.2086C6.15549 14.4308 6.40946 14.5755 6.69626 14.5755C6.97426 14.5755 7.22144 14.4398 7.38124 14.2291C7.386 14.2245 7.39087 14.2205 7.39548 14.2157L12.3996 9.01138C12.7405 8.65718 12.7405 8.08228 12.3998 7.72787Z" fill="#263BFF"/>
</svg>
