<svg width="221" height="365" viewBox="0 0 221 365" fill="none" xmlns="http://www.w3.org/2000/svg">
<path d="M377.585 120.925L376.325 117.179C365.702 85.5762 338.848 61.8217 305.981 56.3601C301.762 55.6575 297.498 55.2612 293.222 55.1743C262.278 54.5841 231.607 70.644 214.481 96.3347C204.402 111.444 198.255 130.106 183.359 140.507C163.966 154.054 137.645 148.513 114.775 142.486C91.9049 136.46 65.5454 131 46.2176 144.613C34.1196 153.145 27.5215 167.727 24.973 182.313C18.2196 220.908 37.2675 261.218 67.5964 286.076C97.9252 310.934 137.864 321.756 177.061 322.991C231.977 324.664 288.528 307.553 328.782 270.199C369.036 232.846 390.57 174.238 377.585 120.925Z" fill="#404040"/>
</svg>
