<svg width="34" height="37" viewBox="0 0 34 37" fill="none" xmlns="http://www.w3.org/2000/svg">
<path d="M31.3055 1H2.69455C2.24571 1.00194 1.81581 1.18358 1.49844 1.50536C1.18106 1.82714 1.00191 2.26302 1 2.71808V34.6759C1.00191 35.1309 1.18106 35.5668 1.49844 35.8886C1.81581 36.2104 2.24571 36.392 2.69455 36.3939H31.3055C31.7543 36.392 32.1842 36.2104 32.5016 35.8886C32.8189 35.5668 32.9981 35.1309 33 34.6759V2.71808C32.9981 2.26302 32.8189 1.82714 32.5016 1.50536C32.1842 1.18358 31.7543 1.00194 31.3055 1V1ZM31.5455 34.6759C31.5455 34.7404 31.5202 34.8023 31.4752 34.8479C31.4302 34.8936 31.3691 34.9192 31.3055 34.9192H2.69455C2.63089 34.9192 2.56985 34.8936 2.52484 34.8479C2.47983 34.8023 2.45455 34.7404 2.45455 34.6759V2.71808C2.45455 2.65354 2.47983 2.59165 2.52484 2.54602C2.56985 2.50038 2.63089 2.47475 2.69455 2.47475H31.3055C31.3691 2.47475 31.4302 2.50038 31.4752 2.54602C31.5202 2.59165 31.5455 2.65354 31.5455 2.71808V34.6759ZM11.1818 17.9596H5.36364C5.17075 17.9596 4.98577 18.0373 4.84938 18.1756C4.71299 18.3139 4.63636 18.5014 4.63636 18.697V31.9697C4.63636 32.1653 4.71299 32.3528 4.84938 32.4911C4.98577 32.6294 5.17075 32.7071 5.36364 32.7071H11.1818C11.3747 32.7071 11.5597 32.6294 11.6961 32.4911C11.8325 32.3528 11.9091 32.1653 11.9091 31.9697V18.697C11.9091 18.5014 11.8325 18.3139 11.6961 18.1756C11.5597 18.0373 11.3747 17.9596 11.1818 17.9596ZM10.4545 31.2323H6.09091V19.4343H10.4545V31.2323ZM19.9091 13.5354H14.0909C13.898 13.5354 13.713 13.613 13.5766 13.7513C13.4403 13.8896 13.3636 14.0772 13.3636 14.2727V31.9697C13.3636 32.1653 13.4403 32.3528 13.5766 32.4911C13.713 32.6294 13.898 32.7071 14.0909 32.7071H19.9091C20.102 32.7071 20.287 32.6294 20.4234 32.4911C20.5597 32.3528 20.6364 32.1653 20.6364 31.9697V14.2727C20.6364 14.0772 20.5597 13.8896 20.4234 13.7513C20.287 13.613 20.102 13.5354 19.9091 13.5354ZM19.1818 31.2323H14.8182V15.0101H19.1818V31.2323ZM28.6364 7.63636H22.8182C22.6253 7.63636 22.4403 7.71405 22.3039 7.85234C22.1675 7.99062 22.0909 8.17817 22.0909 8.37374V31.9697C22.0909 32.1653 22.1675 32.3528 22.3039 32.4911C22.4403 32.6294 22.6253 32.7071 22.8182 32.7071H28.6364C28.8292 32.7071 29.0142 32.6294 29.1506 32.4911C29.287 32.3528 29.3636 32.1653 29.3636 31.9697V8.37374C29.3636 8.17817 29.287 7.99062 29.1506 7.85234C29.0142 7.71405 28.8292 7.63636 28.6364 7.63636ZM27.9091 31.2323H23.5455V9.11111H27.9091V31.2323ZM6.09091 12.798C5.89802 12.798 5.71304 12.8757 5.57665 13.014C5.44026 13.1522 5.36364 13.3398 5.36364 13.5354C5.36364 13.7309 5.44026 13.9185 5.57665 14.0568C5.71304 14.195 5.89802 14.2727 6.09091 14.2727H7.54545V15.0101C7.54545 15.2057 7.62208 15.3932 7.75847 15.5315C7.89486 15.6698 8.07984 15.7475 8.27273 15.7475C8.46561 15.7475 8.6506 15.6698 8.78699 15.5315C8.92338 15.3932 9 15.2057 9 15.0101V14.2727C9.57865 14.2727 10.1336 14.0397 10.5428 13.6248C10.9519 13.21 11.1818 12.6473 11.1818 12.0606C11.1818 11.4739 10.9519 10.9113 10.5428 10.4964C10.1336 10.0815 9.57865 9.84848 9 9.84848V8.37374H10.4545C10.6474 8.37374 10.8324 8.29605 10.9688 8.15777C11.1052 8.01948 11.1818 7.83193 11.1818 7.63636C11.1818 7.4408 11.1052 7.25325 10.9688 7.11496C10.8324 6.97668 10.6474 6.89899 10.4545 6.89899H9V6.16162C9 5.96605 8.92338 5.7785 8.78699 5.64021C8.6506 5.50193 8.46561 5.42424 8.27273 5.42424C8.07984 5.42424 7.89486 5.50193 7.75847 5.64021C7.62208 5.7785 7.54545 5.96605 7.54545 6.16162V6.89899C6.9668 6.89899 6.41185 7.13205 6.00268 7.54691C5.59351 7.96176 5.36364 8.52442 5.36364 9.11111C5.36364 9.6978 5.59351 10.2605 6.00268 10.6753C6.41185 11.0902 6.9668 11.3232 7.54545 11.3232V12.798H6.09091ZM6.81818 9.11111C6.81818 8.91555 6.89481 8.72799 7.0312 8.58971C7.16759 8.45143 7.35257 8.37374 7.54545 8.37374V9.84848C7.35257 9.84848 7.16759 9.7708 7.0312 9.63251C6.89481 9.49423 6.81818 9.30667 6.81818 9.11111ZM9 11.3232C9.19289 11.3232 9.37787 11.4009 9.51426 11.5392C9.65065 11.6775 9.72727 11.865 9.72727 12.0606C9.72727 12.2562 9.65065 12.4437 9.51426 12.582C9.37787 12.7203 9.19289 12.798 9 12.798V11.3232Z" fill="#00AAFF" stroke="#00AAFF" stroke-width="0.3"/>
</svg>
