<svg width="32" height="33" viewBox="0 0 32 33" fill="none" xmlns="http://www.w3.org/2000/svg">
<path d="M15.8696 19.4398C17.4501 19.4398 18.7313 18.1586 18.7313 16.5781C18.7313 14.9976 17.4501 13.7163 15.8696 13.7163C14.2891 13.7163 13.0078 14.9976 13.0078 16.5781C13.0078 18.1586 14.2891 19.4398 15.8696 19.4398Z" fill="white"/>
<path d="M19.4467 9.55371H12.2923C11.2517 9.55371 10.3411 9.87891 9.75577 10.4643C9.17041 11.0496 8.84521 11.9602 8.84521 13.0008V20.1552C8.84521 21.1958 9.17041 22.1064 9.82081 22.7568C10.4712 23.3421 11.3167 23.6673 12.3574 23.6673H19.4467C20.4873 23.6673 21.3979 23.3421 21.9832 22.7568C22.6336 22.1714 22.9588 21.2609 22.9588 20.2202V13.0659C22.9588 12.0252 22.6336 11.1797 22.0483 10.5293C21.3979 9.87891 20.5524 9.55371 19.4467 9.55371ZM15.8695 21.0007C13.398 21.0007 11.4468 18.9845 11.4468 16.578C11.4468 14.1065 13.463 12.1553 15.8695 12.1553C18.276 12.1553 20.3573 14.1065 20.3573 16.578C20.3573 19.0495 18.341 21.0007 15.8695 21.0007ZM20.4873 13.0008C19.902 13.0008 19.4467 12.5455 19.4467 11.9602C19.4467 11.3748 19.902 10.9195 20.4873 10.9195C21.0727 10.9195 21.528 11.3748 21.528 11.9602C21.528 12.5455 21.0727 13.0008 20.4873 13.0008Z" fill="white"/>
<path d="M15.9998 0.448242C7.15437 0.448242 0 7.60261 0 16.448C0 25.2934 7.15437 32.4478 15.9998 32.4478C24.8452 32.4478 31.9996 25.2934 31.9996 16.448C32.0646 7.60261 24.8452 0.448242 15.9998 0.448242ZM24.52 20.2203C24.52 21.7162 23.9997 23.017 23.0891 23.9276C22.1786 24.8382 20.8778 25.2934 19.4469 25.2934H12.3576C10.9267 25.2934 9.62589 24.8382 8.71533 23.9276C7.73973 23.017 7.28445 21.7162 7.28445 20.2203V13.066C7.28445 10.0741 9.30069 7.99285 12.3576 7.99285H19.5119C21.0078 7.99285 22.2436 8.51317 23.1542 9.42373C24.0647 10.3343 24.52 11.57 24.52 13.066V20.2203Z" fill="white"/>
</svg>
