<svg width="23" height="19" viewBox="0 0 23 19" fill="none" xmlns="http://www.w3.org/2000/svg">
<path d="M7.26809 7.89667H20.995C21.9142 7.89667 22.6802 8.57849 22.6802 9.39667C22.6802 10.2148 21.9142 10.8967 20.995 10.8967H7.23745C6.31824 10.8967 5.55223 10.2148 5.55223 9.39667C5.58287 8.55121 6.31824 7.89667 7.26809 7.89667Z" fill="#263238"/>
<path d="M1.90603 0.160004H20.995C21.9142 0.160004 22.6802 0.841822 22.6802 1.66C22.6802 2.47819 21.9142 3.16 20.995 3.16H1.87539C0.956184 3.16 0.190176 2.47819 0.190176 1.66C0.220818 0.841822 0.956184 0.160004 1.90603 0.160004Z" fill="#263238"/>
<path d="M1.90603 15.6027H20.995C21.9142 15.6027 22.6802 16.2845 22.6802 17.1027C22.6802 17.9209 21.9142 18.6027 20.995 18.6027H1.87539C0.956184 18.6027 0.190176 17.9209 0.190176 17.1027C0.220818 16.2845 0.956184 15.6027 1.90603 15.6027Z" fill="#263238"/>
</svg>
