<svg width="312" height="296" viewBox="0 0 312 296" fill="none" xmlns="http://www.w3.org/2000/svg">
<g clip-path="url(#clip0)">
<path fill-rule="evenodd" clip-rule="evenodd" d="M260.834 116.889C252.124 104.169 231.816 101.707 220.342 111.981C220.107 101.649 213.292 91.7658 203.743 87.9089C194.193 84.0513 182.46 86.4424 175.164 93.7319C176.809 87.9505 170.763 82.3138 164.782 82.0012C158.802 81.6886 153.275 84.9184 148.144 88.0193C143.013 91.1201 137.449 94.3089 131.474 93.9044C125.006 93.4656 119.627 88.9359 113.58 86.5878C98.7851 80.844 80.0592 91.0382 76.7805 106.621C60.4045 99.9826 39.3932 110.851 35.27 128.092L275.055 130.903C273.439 124.059 267.679 118.384 260.834 116.889Z" fill="#263BFF"/>
<path fill-rule="evenodd" clip-rule="evenodd" d="M251.182 39.4125C251.597 36.3876 247.345 33.8994 244.15 33.641C242.627 33.5174 241.044 33.7514 239.6 33.2458C236.473 32.152 235.224 28.0949 232.172 26.8028C229.891 25.8366 227.264 26.6964 225.053 27.814C222.841 28.9322 220.655 30.3386 218.184 30.4972C216.035 30.6353 213.701 29.835 211.82 30.8891C210.419 31.6749 209.685 33.296 208.393 34.2523C207.13 35.1881 205.481 35.3864 203.914 35.4717C202.347 35.5576 200.723 35.5734 199.296 36.2297C197.868 36.8859 196.687 38.4014 196.983 39.9498L251.182 39.4125Z" fill="#D8DCFF"/>
<path fill-rule="evenodd" clip-rule="evenodd" d="M289.61 70.2706C290.086 66.7936 285.199 63.9327 281.527 63.6353C279.774 63.4938 277.955 63.7628 276.296 63.1819C272.701 61.9236 271.265 57.2604 267.757 55.7747C265.134 54.6644 262.115 55.6531 259.573 56.9379C257.03 58.2226 254.517 59.8398 251.677 60.0222C249.206 60.1808 246.523 59.2609 244.362 60.4729C242.75 61.3757 241.907 63.2394 240.422 64.3384C238.97 65.4144 237.075 65.6424 235.272 65.7408C233.471 65.8393 231.605 65.8572 229.964 66.6119C228.323 67.366 226.965 69.1087 227.306 70.8878L289.61 70.2706Z" fill="#D8DCFF"/>
<path fill-rule="evenodd" clip-rule="evenodd" d="M52.3586 69.0492C52.6088 67.2278 50.0489 65.7295 48.1249 65.5742C47.208 65.5002 46.2549 65.641 45.386 65.337C43.5028 64.6781 42.7511 62.2354 40.914 61.4576C39.5403 60.876 37.9592 61.3935 36.6277 62.0663C35.2961 62.739 33.9803 63.5863 32.492 63.6815C31.1986 63.7647 29.7933 63.283 28.6611 63.9181C27.8173 64.3906 27.3756 65.3667 26.5982 65.9423C25.8373 66.5061 24.8447 66.625 23.9015 66.6766C22.9569 66.7281 21.9801 66.7381 21.1205 67.1326C20.2608 67.5278 19.5499 68.4405 19.7283 69.3723L52.3586 69.0492Z" fill="#D8DCFF"/>
<path fill-rule="evenodd" clip-rule="evenodd" d="M120.024 41.1123C120.552 37.264 115.143 34.0983 111.078 33.7692C109.14 33.6126 107.127 33.91 105.29 33.2676C101.312 31.8751 99.7223 26.7149 95.8408 25.0707C92.938 23.8414 89.5968 24.9358 86.7836 26.3574C83.9696 27.779 81.1893 29.5686 78.0456 29.7709C75.312 29.9467 72.3427 28.9282 69.9507 30.2692C68.1676 31.2684 67.2342 33.331 65.5913 34.5477C63.9832 35.738 61.8868 35.9904 59.8923 36.0988C57.8979 36.2079 55.833 36.2284 54.017 37.0631C52.2009 37.8984 50.6989 39.8262 51.0754 41.7957L120.024 41.1123Z" fill="#D8DCFF"/>
<path fill-rule="evenodd" clip-rule="evenodd" d="M9.5984 179.222C9.5984 179.222 3.98898 180.022 7.17612 192.352C10.3639 204.684 13.0554 211.036 13.0554 211.036C13.0554 211.036 13.4872 213.829 11.2427 213.749C8.99809 213.67 4.41749 211.854 2.87197 214.29C1.26984 216.817 2.687 219.851 6.21576 223.021C9.74518 226.19 17.224 233.42 17.898 234.076C18.5589 234.72 19.0631 236.088 17.5261 236.279C17.2457 236.314 16.6546 236.301 15.8733 236.289C12.3623 236.23 5.00923 236.172 4.77819 240.458C4.49582 245.7 15.7732 252.909 16.991 253.72C18.2087 254.532 18.4022 255.169 18.1317 255.879C17.8618 256.589 14.2284 255.82 11.1064 255.59C7.98376 255.362 4.3227 255.646 4.41222 258.684C4.50174 261.721 10.435 269.38 27.6937 275.038L35.8617 277.133L41.8779 271.149C53.9742 257.556 55.2741 247.941 53.8326 245.269C52.3904 242.597 49.0829 244.197 46.4973 245.969C43.9112 247.741 41.1538 250.238 40.5654 249.761C39.9763 249.283 39.8249 248.635 40.4726 247.318C41.1196 246.002 47.2668 234.083 44.4015 229.692C41.5356 225.302 32.7134 231.896 31.2877 232.505C29.8619 233.114 29.6138 231.678 29.8639 230.787C30.118 229.88 32.9701 219.858 34.4366 215.337C35.9038 210.817 35.6116 207.479 32.9629 206.102C30.4083 204.774 27.3548 208.653 25.4531 209.854C23.5522 211.054 22.528 208.42 22.528 208.42C22.528 208.42 21.6789 201.571 18.2686 189.3C14.8583 177.03 9.48584 179.246 9.48584 179.246L9.5984 179.222Z" fill="#263BFF"/>
<path fill-rule="evenodd" clip-rule="evenodd" d="M35.8596 279.171C33.3906 270.149 29.2701 254.041 25.661 240.229C22.0533 226.423 18.7753 213.926 16.3517 204.892C15.1373 200.385 14.1539 196.733 13.4706 194.198C13.1336 192.943 12.871 191.965 12.6893 191.289C12.6051 190.964 12.5399 190.711 12.4925 190.531C12.4497 190.36 12.4346 190.27 12.4346 190.27C12.4346 190.27 12.4668 190.354 12.5188 190.524C12.5715 190.702 12.6452 190.952 12.74 191.275C12.9328 191.947 13.2113 192.921 13.5687 194.17C14.2862 196.685 15.2979 200.333 16.5307 204.844C18.9997 213.865 22.3067 226.356 25.9144 240.163C29.5228 253.975 33.615 270.088 36.0386 279.122" fill="#D4D5CF"/>
<path fill-rule="evenodd" clip-rule="evenodd" d="M9.17858 217.089C9.18845 217.075 9.37999 217.178 9.71701 217.377C10.056 217.576 10.5365 217.878 11.1269 218.256C12.3071 219.014 13.9099 220.104 15.6575 221.337C17.3761 222.559 18.9296 223.666 20.1183 224.512C20.6568 224.89 21.1109 225.209 21.4756 225.465C21.7975 225.689 21.9706 225.82 21.9614 225.835C21.9521 225.851 21.7599 225.749 21.421 225.551C21.0826 225.352 20.6015 225.05 20.0143 224.666C18.842 223.896 17.2537 222.785 15.5068 221.552C13.7802 220.342 12.2196 219.248 11.0249 218.41C10.4845 218.035 10.0283 217.718 9.66171 217.464C9.34116 217.237 9.16936 217.105 9.17858 217.089Z" fill="#D4D5CF"/>
<path fill-rule="evenodd" clip-rule="evenodd" d="M22.6395 225.432C22.5783 225.393 24.6695 221.977 27.309 217.801C29.9498 213.625 32.139 210.272 32.1996 210.31C32.2608 210.35 30.1703 213.766 27.5301 217.942C24.89 222.117 22.7007 225.471 22.6395 225.432Z" fill="#D4D5CF"/>
<path fill-rule="evenodd" clip-rule="evenodd" d="M27.2291 246.889C27.2173 246.875 27.3772 246.721 27.6754 246.454C28.0157 246.153 28.4409 245.776 28.9451 245.332C30.0161 244.382 31.4892 243.065 33.061 241.553C34.6375 240.043 36.0165 238.627 37.0064 237.594C37.4731 237.108 37.8654 236.698 38.1807 236.371C38.4598 236.082 38.6198 235.93 38.6336 235.942C38.6467 235.954 38.5125 236.131 38.2564 236.439C37.9997 236.747 37.6212 237.187 37.1414 237.72C36.185 238.787 34.8224 240.229 33.242 241.742C31.6649 243.26 30.1688 244.558 29.0656 245.472C28.512 245.928 28.0598 246.291 27.7406 246.532C27.422 246.776 27.2403 246.903 27.2291 246.889Z" fill="#D4D5CF"/>
<path fill-rule="evenodd" clip-rule="evenodd" d="M13.3981 242.034C13.4041 242.017 13.6035 242.065 13.959 242.168C14.3651 242.293 14.8647 242.447 15.4545 242.628C16.7143 243.027 18.4481 243.595 20.3583 244.238C22.2691 244.882 23.9936 245.478 25.2384 245.922C25.8169 246.134 26.308 246.315 26.7075 246.462C27.0524 246.594 27.2407 246.676 27.2355 246.693C27.2295 246.709 27.0301 246.661 26.6753 246.558C26.2685 246.433 25.7689 246.28 25.1791 246.099C23.9199 245.7 22.1855 245.131 20.2747 244.488C18.3645 243.845 16.6399 243.248 15.3952 242.804C14.8166 242.592 14.3256 242.412 13.9261 242.266C13.5811 242.133 13.3929 242.051 13.3981 242.034Z" fill="#D4D5CF"/>
<path fill-rule="evenodd" clip-rule="evenodd" d="M15.0528 261.493C15.0582 261.476 15.3129 261.54 15.7678 261.672C16.2674 261.824 16.9124 262.019 17.6872 262.254C19.3038 262.756 21.5319 263.467 23.9877 264.268C26.4449 265.069 28.6638 265.809 30.2666 266.356C31.0301 266.623 31.6666 266.845 32.1596 267.018C32.6052 267.179 32.8488 267.277 32.843 267.294C32.8376 267.311 32.5829 267.247 32.1287 267.114C31.6284 266.963 30.9834 266.768 30.2093 266.533C28.592 266.031 26.3639 265.32 23.9068 264.518C21.4509 263.717 19.232 262.978 17.6292 262.431C16.8657 262.164 16.2292 261.941 15.7362 261.77C15.2912 261.608 15.047 261.51 15.0528 261.493Z" fill="#D4D5CF"/>
<path fill-rule="evenodd" clip-rule="evenodd" d="M32.4566 267.035C32.4447 267.022 32.6415 266.82 33.0082 266.469C33.4103 266.087 33.9349 265.588 34.5675 264.988C35.882 263.735 37.6914 261.999 39.6345 260.026C41.5816 258.055 43.2969 256.224 44.5291 254.891C45.1215 254.251 45.6132 253.719 45.9904 253.312C46.3366 252.94 46.5347 252.74 46.5486 252.752C46.5624 252.765 46.3899 252.987 46.0667 253.379C45.7436 253.772 45.267 254.333 44.6667 255.015C43.4681 256.382 41.7705 258.237 39.8208 260.211C37.8744 262.187 36.0413 263.906 34.6932 265.124C34.0172 265.732 33.465 266.217 33.0766 266.545C32.6889 266.873 32.4684 267.049 32.4566 267.035Z" fill="#D4D5CF"/>
<path fill-rule="evenodd" clip-rule="evenodd" d="M269.134 279.84C255.491 272.258 250.365 255.388 248.776 239.805C248.51 237.205 247.879 234.512 248.723 232.08C249.566 229.649 252.035 227.726 254.341 228.518C256.253 229.175 257.334 231.304 258.584 233.016C260.247 235.293 262.507 237.055 265.018 238.034C266.669 238.676 268.64 238.937 270.037 237.829C271.951 236.309 271.783 233.188 271.423 230.615C270.751 225.818 270.08 221.021 269.409 216.225C269.049 213.652 268.689 211.022 269.107 208.475C269.526 205.927 270.87 203.428 273.06 202.426C275.251 201.424 278.263 202.445 279.082 204.9C279.423 205.922 279.37 207.038 279.58 208.098C279.79 209.158 280.412 210.276 281.398 210.443C282.397 210.613 283.259 209.75 283.875 208.897C286.002 205.953 287.234 202.371 288.358 198.821C289.481 195.272 290.548 191.651 292.415 188.503C294.282 185.356 297.088 182.678 300.496 181.993C303.904 181.309 307.87 183.078 309.223 186.58C310.58 190.091 309.101 194.048 307.348 197.284C304.747 202.086 301.495 206.464 297.728 210.238C297.049 210.919 296.312 211.655 296.151 212.649C295.86 214.439 297.604 215.934 299.259 216.28C301.133 216.672 303.047 216.204 304.949 216.181C306.851 216.159 308.997 216.764 309.958 218.565C311.294 221.061 309.613 224.104 307.837 226.191C304.282 230.37 300.051 233.867 295.388 236.484C293.716 237.422 291.941 238.287 290.696 239.816C289.452 241.344 288.903 243.778 290.005 245.472C291.109 247.17 293.395 247.445 295.194 246.821C296.992 246.197 298.503 244.891 300.169 243.932C303.286 242.14 307.577 241.795 310.099 244.562C311.756 246.38 312.253 249.163 311.873 251.658C311.493 254.152 310.346 256.413 309.089 258.527C304.697 265.914 298.651 272.208 291.384 276.115C284.118 280.021 277.135 281.772 269.134 279.84Z" fill="#263BFF"/>
<path fill-rule="evenodd" clip-rule="evenodd" d="M271.561 269.598C272.638 261.474 274.509 252.684 276.763 243.569C277.334 241.292 277.899 239.043 278.455 236.825C279.015 234.615 279.571 232.42 280.238 230.314C281.556 226.092 283.124 222.146 284.724 218.451C286.322 214.754 287.965 211.31 289.523 208.103C291.089 204.897 292.601 201.94 294.088 199.31C297.046 194.034 299.901 190.097 301.965 187.482C302.994 186.17 303.824 185.181 304.396 184.519C304.671 184.204 304.887 183.956 305.05 183.769C305.199 183.604 305.278 183.521 305.283 183.526C305.289 183.532 305.222 183.626 305.084 183.804C304.929 183.998 304.724 184.256 304.463 184.584C303.914 185.268 303.106 186.276 302.098 187.604C300.078 190.253 297.272 194.208 294.358 199.491C292.892 202.126 291.4 205.085 289.851 208.294C288.308 211.508 286.68 214.953 285.095 218.646C283.511 222.336 281.957 226.272 280.652 230.472C279.991 232.569 279.443 234.744 278.883 236.961C278.327 239.177 277.764 241.425 277.194 243.701C274.943 252.81 273.063 261.575 271.966 269.671" fill="#D4D5CF"/>
<path fill-rule="evenodd" clip-rule="evenodd" d="M280.362 230.278C280.332 230.287 280.198 229.907 279.98 229.212C279.758 228.517 279.469 227.502 279.129 226.243C278.446 223.725 277.612 220.216 276.708 216.343C275.803 212.468 274.926 208.982 274.209 206.481C273.854 205.23 273.558 204.22 273.344 203.525C273.134 202.829 273.031 202.437 273.06 202.426C273.089 202.414 273.247 202.784 273.507 203.464C273.77 204.141 274.114 205.138 274.509 206.381C275.305 208.864 276.234 212.353 277.14 216.231C278.023 220.055 278.822 223.514 279.432 226.158C279.715 227.35 279.954 228.355 280.146 229.161C280.312 229.871 280.391 230.269 280.362 230.278Z" fill="#D4D5CF"/>
<path fill-rule="evenodd" clip-rule="evenodd" d="M310.377 219.819C310.382 219.852 309.95 219.968 309.168 220.148C308.386 220.333 307.254 220.595 305.866 220.965C303.086 221.684 299.277 222.821 295.131 224.273C290.985 225.734 287.289 227.228 284.645 228.392C283.319 228.963 282.258 229.458 281.523 229.794C280.789 230.134 280.376 230.308 280.362 230.278C280.348 230.247 280.735 230.017 281.448 229.623C282.161 229.234 283.205 228.69 284.519 228.076C287.138 226.828 290.829 225.279 294.987 223.812C299.146 222.357 302.982 221.267 305.792 220.632C307.194 220.302 308.339 220.091 309.133 219.963C309.929 219.839 310.37 219.786 310.377 219.819Z" fill="#D4D5CF"/>
<path fill-rule="evenodd" clip-rule="evenodd" d="M271.858 268.936C271.846 268.945 271.754 268.816 271.593 268.562C271.407 268.258 271.179 267.886 270.904 267.437C270.311 266.457 269.486 265.016 268.489 263.222C266.493 259.634 263.879 254.587 261.065 248.978C258.248 243.367 255.681 238.302 253.757 234.677C252.816 232.914 252.042 231.465 251.467 230.388C251.219 229.92 251.016 229.534 250.849 229.217C250.713 228.948 250.647 228.801 250.659 228.791C250.673 228.784 250.763 228.913 250.925 229.168C251.111 229.471 251.338 229.842 251.613 230.292C252.207 231.271 253.031 232.713 254.028 234.507C256.025 238.094 258.639 243.141 261.455 248.752C264.269 254.362 266.836 259.426 268.76 263.053C269.702 264.814 270.476 266.263 271.052 267.34C271.298 267.808 271.502 268.194 271.669 268.511C271.805 268.782 271.872 268.928 271.858 268.936Z" fill="#D4D5CF"/>
<path fill-rule="evenodd" clip-rule="evenodd" d="M310.945 249.08C310.951 249.096 310.819 249.177 310.562 249.317C310.257 249.476 309.882 249.672 309.429 249.909C308.38 250.445 306.966 251.166 305.244 252.044C301.712 253.848 296.86 256.399 291.502 259.225C286.143 262.053 281.263 264.559 277.693 266.283C275.908 267.146 274.458 267.829 273.446 268.278C272.977 268.483 272.592 268.651 272.278 268.789C272.009 268.901 271.864 268.951 271.858 268.936C271.852 268.92 271.984 268.84 272.24 268.699C272.545 268.54 272.919 268.345 273.374 268.106C274.422 267.572 275.836 266.851 277.557 265.972C281.091 264.169 285.943 261.618 291.302 258.79C296.66 255.962 301.539 253.457 305.109 251.733C306.893 250.869 308.344 250.187 309.356 249.738C309.825 249.533 310.21 249.364 310.524 249.227C310.793 249.115 310.937 249.065 310.945 249.08Z" fill="#D4D5CF"/>
<path fill-rule="evenodd" clip-rule="evenodd" d="M310.325 295.173C310.325 295.269 240.851 295.346 155.17 295.346C69.4588 295.346 0 295.269 0 295.173C0 295.079 69.4588 295.002 155.17 295.002C240.851 295.002 310.325 295.079 310.325 295.173Z" fill="#132529"/>
<path fill-rule="evenodd" clip-rule="evenodd" d="M269.927 291.513H37.8487C32.5532 291.513 28.2603 287.203 28.2603 281.886V134.318C28.2603 129.001 32.5532 124.691 37.8487 124.691H269.926C275.221 124.691 279.514 129.001 279.514 134.318V281.886C279.514 287.203 275.221 291.513 269.927 291.513Z" fill="#334F55"/>
<path fill-rule="evenodd" clip-rule="evenodd" d="M279.187 295.337H29.9099C23.5758 295.337 18.4409 290.181 18.4409 283.821V280.74H290.656V283.821C290.656 290.181 285.521 295.337 279.187 295.337Z" fill="#334F55"/>
<path fill-rule="evenodd" clip-rule="evenodd" d="M35.0044 272.199H272.067V131.318H35.0044V272.199Z" fill="#132529"/>
<path fill-rule="evenodd" clip-rule="evenodd" d="M129.119 279.175L132.497 284.57H180.028L183.166 279.175H129.119Z" fill="#132529"/>
<path fill-rule="evenodd" clip-rule="evenodd" d="M265.519 271.747H42.0422C40.8515 271.747 39.8872 270.778 39.8872 269.584V138.251C39.8872 137.057 40.8515 136.088 42.0416 136.088H265.519C266.708 136.088 267.673 137.056 267.673 138.251V269.585C267.673 270.779 266.708 271.747 265.519 271.747Z" fill="#E4E4DE"/>
<path fill-rule="evenodd" clip-rule="evenodd" d="M267.429 271.946H39.6436L39.8871 146.227H267.429V271.946Z" fill="white"/>
<path fill-rule="evenodd" clip-rule="evenodd" d="M58.5692 141.327C58.5692 142.336 57.7549 143.154 56.7498 143.154C55.7454 143.154 54.9312 142.336 54.9312 141.327C54.9312 140.318 55.7454 139.501 56.7498 139.501C57.7549 139.501 58.5692 140.318 58.5692 141.327Z" fill="#132529"/>
<path fill-rule="evenodd" clip-rule="evenodd" d="M47.5439 141.327C47.5439 142.336 46.7297 143.154 45.7246 143.154C44.7202 143.154 43.9053 142.336 43.9053 141.327C43.9053 140.318 44.7202 139.501 45.7246 139.501C46.7297 139.501 47.5439 140.318 47.5439 141.327Z" fill="#132529"/>
<path fill-rule="evenodd" clip-rule="evenodd" d="M52.8358 141.327C52.8358 142.336 52.0215 143.154 51.0164 143.154C50.012 143.154 49.1978 142.336 49.1978 141.327C49.1978 140.318 50.012 139.501 51.0164 139.501C52.0215 139.501 52.8358 140.318 52.8358 141.327Z" fill="#132529"/>
<path fill-rule="evenodd" clip-rule="evenodd" d="M277.355 279.175C277.355 279.265 221.589 279.339 152.814 279.339C84.0148 279.339 28.2603 279.265 28.2603 279.175C28.2603 279.085 84.0148 279.011 152.814 279.011C221.589 279.011 277.355 279.085 277.355 279.175Z" fill="#132529"/>
<path fill-rule="evenodd" clip-rule="evenodd" d="M243.434 200.353C237.023 205.731 234.077 214.94 236.17 223.06C230.26 221.879 223.818 223.829 219.543 228.094C215.267 232.36 213.284 238.815 214.422 244.757C207.897 240.25 197.93 241.939 193.237 248.346C193.137 244.115 192.973 239.657 190.758 236.055C188.543 232.454 183.515 230.232 179.969 232.52C182.64 229.472 183.043 224.641 180.913 221.189C178.785 217.738 174.297 215.947 170.39 216.99C170.29 211.909 167.083 175.973 164.442 145.651H142.031C139.432 175.444 136.388 209.665 136.291 214.613C132.383 213.57 127.896 215.36 125.766 218.812C123.638 222.263 124.04 227.095 126.712 230.142C123.166 227.855 118.137 230.077 115.923 233.679C113.708 237.279 113.543 241.738 113.443 245.969C108.75 239.562 98.7836 237.873 92.2579 242.38C93.3966 236.438 91.4127 229.982 87.1376 225.718C82.863 221.452 76.4209 219.503 70.5101 220.684C72.6032 212.563 69.6577 203.353 63.2459 197.976C56.8347 192.598 47.2838 191.325 39.6978 194.839V271.88H266.983V197.215C259.396 193.702 249.846 194.975 243.434 200.353Z" fill="#E0565F"/>
<path fill-rule="evenodd" clip-rule="evenodd" d="M183.363 261.905C183.572 261.335 183.756 260.755 183.892 260.16C184.132 259.1 184.248 258.018 184.248 256.935C184.247 251.993 181.817 247.042 177.769 244.193C175.221 242.401 172.113 241.504 169.006 241.504C167.845 241.504 166.684 241.629 165.552 241.88L159.743 158.775C159.809 158.599 159.873 158.422 159.934 158.245C160.611 156.29 161.121 154.233 162.291 152.528C162.988 151.513 163.884 150.674 164.808 149.856C167.37 179.205 170.294 212.143 170.389 216.99C171.138 216.79 171.909 216.694 172.679 216.694C175.93 216.694 179.192 218.399 180.913 221.189C181.828 222.672 182.276 224.41 182.276 226.151C182.278 228.463 181.492 230.781 179.969 232.52C180.965 231.877 182.078 231.59 183.214 231.59C186.118 231.59 189.165 233.467 190.758 236.055C192.972 239.656 193.136 244.115 193.237 248.346C196.142 244.38 201.067 242.222 205.947 242.222C208.692 242.222 211.422 242.905 213.769 244.334L214.131 251.259C214.079 251.271 214.027 251.283 213.975 251.295C204.432 253.502 195.904 259.817 190.983 268.318C189.005 265.601 186.354 263.419 183.363 261.905ZM228.911 251.082V248.33C228.911 248.33 235.335 251.104 242.699 254.193C242.442 254.945 242.23 255.715 242.068 256.501C238.105 253.828 233.596 251.999 228.911 251.082ZM219.543 228.094C221.559 226.082 224.06 224.585 226.759 223.689L223.828 228.887C222.283 229.079 220.775 229.581 219.398 230.381C217.913 231.244 216.661 232.407 215.701 233.77C216.619 231.66 217.914 229.719 219.543 228.094ZM264.462 225.069L260.573 212.08C259.099 207.158 259.25 204.618 255.602 201.013L249.409 196.83C252.084 195.783 254.961 195.246 257.834 195.246C260.98 195.246 264.122 195.891 266.982 197.215V229.822L264.462 225.069ZM227.03 223.601C228.862 223.023 230.782 222.721 232.699 222.721C233.863 222.721 235.027 222.832 236.17 223.06C236.119 222.864 236.071 222.666 236.027 222.468C237.938 224.576 240.839 226.226 240.839 226.226L241.532 227.703L227.03 223.601Z" fill="#D8DCFF"/>
<path fill-rule="evenodd" clip-rule="evenodd" d="M93.4763 251.295C90.8816 250.695 88.221 250.4 85.5604 250.4C78.4351 250.4 71.3019 252.509 65.3831 256.501C63.3762 246.742 53.6706 239.436 43.8729 239.436C42.4755 239.436 41.0774 239.585 39.6978 239.896V194.839C42.5591 193.514 45.6995 192.869 48.8465 192.869C54.0419 192.869 59.253 194.626 63.2459 197.976C68.28 202.198 71.1775 208.783 71.1768 215.348C71.1768 217.144 70.9596 218.939 70.5101 220.684C71.6541 220.455 72.8172 220.343 73.9809 220.343C78.832 220.343 83.6904 222.278 87.1376 225.718C90.6117 229.183 92.5719 234.094 92.5745 239.001C92.5752 240.134 92.4712 241.266 92.2579 242.38C94.7447 240.662 97.7298 239.845 100.734 239.845C105.613 239.845 110.539 242.003 113.443 245.969C113.543 241.738 113.708 237.279 115.923 233.679C117.515 231.089 120.562 229.213 123.466 229.213C124.602 229.213 125.716 229.5 126.712 230.142C125.188 228.404 124.402 226.086 124.404 223.775C124.404 222.033 124.852 220.295 125.766 218.812C127.488 216.022 130.75 214.318 134.001 214.318C134.772 214.318 135.542 214.413 136.291 214.613C136.381 210.05 138.977 180.587 141.419 152.664C142.264 153.47 143.286 154.077 144.424 154.375C146.156 154.829 148.228 154.751 149.388 156.118C149.669 156.449 149.858 156.822 149.989 157.222V234.103C145.506 234.79 142.138 239.288 142.135 243.754C142.134 244.732 142.295 245.709 142.641 246.644C138.839 247.201 135.388 249.775 133.759 253.27C133.464 253.905 133.309 254.935 133.309 256.196C133.309 257.192 133.406 258.332 133.607 259.533C126.97 259.623 120.396 262.924 116.468 268.318C111.548 259.817 103.019 253.502 93.4763 251.295Z" fill="#D8DCFF"/>
<path fill-rule="evenodd" clip-rule="evenodd" d="M242.068 256.501C233.939 251.018 223.519 249.087 213.976 251.295C204.433 253.502 195.904 259.817 190.983 268.318C189.005 265.601 186.354 263.419 183.363 261.905C183.573 261.335 183.756 260.755 183.892 260.16C185.234 254.262 182.704 247.666 177.769 244.193C174.269 241.732 169.713 240.957 165.552 241.88L158.826 145.651H149.989V234.103C144.524 234.941 140.716 241.441 142.641 246.644C138.839 247.201 135.388 249.775 133.759 253.27C133.23 254.407 133.152 256.811 133.607 259.533C126.97 259.623 120.396 262.924 116.468 268.318C111.548 259.817 103.019 253.502 93.4764 251.295C83.9334 249.087 73.513 251.018 65.3833 256.501C63.0722 245.266 50.56 237.283 39.4478 239.955V272.029L141.991 271.894C142.669 272.085 143.387 272.196 144.153 272.196L169.224 271.9L268.004 272.029V239.955C256.892 237.283 244.379 245.266 242.068 256.501Z" fill="#E0565F"/>
<path fill-rule="evenodd" clip-rule="evenodd" d="M144.153 272.196C143.459 272.196 142.805 272.105 142.183 271.946C142.119 271.929 142.055 271.912 141.991 271.894L102.739 271.946L39.4478 272.029V239.955C40.9077 239.604 42.3907 239.436 43.873 239.436C53.6707 239.436 63.3763 246.743 65.3833 256.501C71.302 252.509 78.4352 250.4 85.5606 250.4C88.2211 250.4 90.8817 250.695 93.4764 251.295C103.019 253.502 111.548 259.817 116.468 268.318C120.396 262.924 126.97 259.623 133.607 259.533C133.406 258.332 133.309 257.192 133.309 256.196C133.309 254.935 133.464 253.905 133.759 253.27C135.388 249.775 138.839 247.201 142.641 246.644C142.295 245.709 142.135 244.732 142.135 243.754C142.138 239.288 145.506 234.79 149.989 234.103V157.222C150.547 158.929 150.041 161.126 151.066 162.672C151.712 163.647 152.847 164.097 154.021 164.098C154.922 164.098 155.847 163.832 156.593 163.335C158.155 162.294 159.079 160.553 159.744 158.776L165.552 241.88C166.685 241.629 167.845 241.504 169.006 241.504C172.113 241.504 175.221 242.401 177.769 244.193C181.818 247.042 184.247 251.993 184.249 256.935C184.249 258.019 184.133 259.1 183.892 260.16C183.756 260.755 183.573 261.335 183.363 261.905C186.354 263.419 189.005 265.601 190.983 268.318C195.904 259.817 204.433 253.502 213.976 251.295C214.027 251.283 214.079 251.271 214.131 251.259L215.209 271.96L204.601 271.946L169.224 271.9L165.301 271.946L144.153 272.196ZM268.004 272.029L228.911 271.978V251.083C233.596 251.999 238.106 253.829 242.068 256.501C242.23 255.715 242.442 254.945 242.699 254.193C250.711 257.555 259.835 261.29 263.013 262.236C263.791 262.467 264.586 262.577 265.379 262.577C266.265 262.577 267.149 262.44 268.004 262.184V272.029Z" fill="#263BFF"/>
<path fill-rule="evenodd" clip-rule="evenodd" d="M144.797 115.526C139.739 117.938 137.451 124.893 140.085 129.856C141.124 131.813 142.818 133.536 143.042 135.743C143.387 139.126 140.2 141.773 139.214 145.027C138.06 148.842 140.582 153.367 144.425 154.375C146.156 154.829 148.229 154.751 149.388 156.118C150.869 157.863 149.801 160.765 151.066 162.672C152.209 164.396 154.875 164.48 156.593 163.335C158.311 162.191 159.257 160.2 159.935 158.245C160.612 156.29 161.121 154.233 162.291 152.528C163.578 150.653 165.548 149.376 167.114 147.727C170.881 143.759 172.031 137.806 171.184 132.39C170.337 126.974 167.722 122.001 164.769 117.39L144.797 115.526Z" fill="#E0565F"/>
<path fill-rule="evenodd" clip-rule="evenodd" d="M154.021 164.098C152.846 164.097 151.712 163.647 151.066 162.672C149.801 160.765 150.868 157.863 149.388 156.118C148.228 154.751 146.156 154.829 144.424 154.375C141.219 153.535 138.933 150.248 138.932 146.967C138.932 146.314 139.022 145.661 139.214 145.027C140.149 141.938 143.069 139.396 143.068 136.253C143.068 136.085 143.06 135.915 143.042 135.743C142.818 133.536 141.124 131.813 140.085 129.856C139.334 128.44 138.983 126.863 138.982 125.276C138.981 123.13 139.621 120.965 140.777 119.155H147.907C144.591 121.576 143.344 126.692 145.498 130.268C146.978 132.725 149.849 134.944 149.153 137.728C148.682 139.616 146.664 140.774 146.084 142.632C145.313 145.105 147.647 147.729 150.21 148.041C150.456 148.071 150.701 148.086 150.945 148.086C153.245 148.086 155.442 146.811 157.195 145.265C163.919 139.335 165.555 127.684 161.365 119.744L156.113 119.155H165.702L165.787 119.021C168.309 123.168 170.436 127.607 171.184 132.39C171.358 133.501 171.447 134.634 171.448 135.768C171.449 140.164 170.108 144.572 167.113 147.727C165.548 149.376 163.578 150.653 162.291 152.528C161.121 154.233 160.612 156.29 159.934 158.245C159.257 160.2 158.31 162.191 156.592 163.335C155.847 163.832 154.922 164.098 154.021 164.098Z" fill="#7683FF"/>
<path fill-rule="evenodd" clip-rule="evenodd" d="M149.238 118.385C144.954 120.28 143.076 126.247 145.498 130.268C146.978 132.725 149.849 134.944 149.153 137.728C148.682 139.616 146.664 140.774 146.084 142.632C145.313 145.105 147.647 147.729 150.21 148.041C152.772 148.353 155.256 146.975 157.195 145.265C163.919 139.335 165.555 127.683 161.365 119.744L149.238 118.385Z" fill="#263BFF"/>
<path fill-rule="evenodd" clip-rule="evenodd" d="M171.331 80.5538C171.331 80.5538 193.341 95.1739 190.937 120.452L170.7 111.334L171.331 80.5538Z" fill="#00AAFF"/>
<path fill-rule="evenodd" clip-rule="evenodd" d="M134.758 110.835L139.757 119.155H165.702L170.7 111.312L134.758 110.835Z" fill="#132529"/>
<path fill-rule="evenodd" clip-rule="evenodd" d="M151.386 26.8848C141.132 27.5741 133.228 36.2349 133.44 46.5514L134.758 111.312H170.7L171.901 46.513C172.111 35.1993 162.631 26.1294 151.386 26.8848Z" fill="#E0565F"/>
<path fill-rule="evenodd" clip-rule="evenodd" d="M154.89 111.312C154.948 105.783 155.015 99.2761 155.067 93.65C159.347 93.7002 163.184 93.8978 166.071 94.1027C167.717 94.2296 169.068 94.3333 170.064 94.41C170.434 94.4371 170.749 94.4609 171.012 94.48L170.7 111.312H154.89ZM134.758 111.312L134.417 94.5382C134.469 94.5356 134.533 94.5329 134.606 94.5283C134.895 94.5065 135.255 94.4787 135.692 94.4457C136.688 94.367 138.038 94.26 139.684 94.1298C142.452 93.9275 146.094 93.7306 150.165 93.6625L150.516 111.312H134.758ZM133.44 46.5514C133.437 46.4205 133.436 46.2897 133.436 46.1595C133.429 36.0162 141.262 27.5655 151.386 26.8848C151.826 26.8557 152.261 26.8412 152.694 26.8412C163.23 26.8412 171.897 35.4366 171.905 46.1317C171.905 46.2586 171.904 46.3849 171.902 46.5131L171.014 94.3968C170.754 94.3604 170.444 94.3181 170.078 94.2672C169.14 94.1423 167.777 93.995 166.092 93.8436C163.204 93.5812 159.36 93.3447 155.07 93.2845C155.108 89.1593 155.138 85.5356 155.15 83.1617C155.15 83.1558 155.15 83.1498 155.15 83.1446C155.148 81.6886 153.966 80.5539 152.562 80.5539C152.433 80.5539 152.303 80.5638 152.172 80.583C150.898 80.7733 149.958 81.8724 149.957 83.1598C149.957 83.1776 149.958 83.1954 149.958 83.2133L150.158 93.2984C146.079 93.3783 142.431 93.6136 139.663 93.8707C137.977 94.0267 136.615 94.176 135.677 94.3036C135.242 94.3644 134.885 94.4146 134.598 94.4543C134.527 94.4655 134.467 94.4754 134.416 94.4847L133.44 46.5514Z" fill="#D8DCFF"/>
<path fill-rule="evenodd" clip-rule="evenodd" d="M134.127 80.5538C134.127 80.5538 112.117 95.1746 114.522 120.452L134.759 111.334L134.127 80.5538Z" fill="#00AAFF"/>
<path fill-rule="evenodd" clip-rule="evenodd" d="M133.641 44.4042C141.239 37.7233 165.1 37.8694 171.506 43.3058C169.858 19.2622 151.575 10.2715 151.575 10.2715C132.867 23.2691 133.641 44.4042 133.641 44.4042Z" fill="#00AAFF"/>
<path fill-rule="evenodd" clip-rule="evenodd" d="M151.575 10.2715C151.575 10.2715 151.65 10.3349 151.79 10.4651C151.933 10.6006 152.137 10.7949 152.405 11.0487C152.676 11.3078 153.01 11.6263 153.403 12.0017C153.6 12.1907 153.812 12.3942 154.039 12.611C154.252 12.8423 154.478 13.0882 154.718 13.3492C155.195 13.8733 155.734 14.4496 156.306 15.0946C156.845 15.7687 157.431 16.501 158.059 17.2874C158.358 17.6939 158.649 18.1261 158.96 18.5669C159.259 19.0137 159.603 19.4518 159.894 19.9448C160.482 20.9249 161.135 21.944 161.693 23.0867C162.861 25.3383 163.922 27.9316 164.661 30.8303C165.043 32.2756 165.325 33.7996 165.524 35.3791C165.632 36.1676 165.696 36.9765 165.804 37.7788C165.9 38.5864 165.886 39.4416 165.892 40.2723C165.904 46.9843 165.808 54.3597 165.722 62.1027C165.536 77.5925 165.32 91.6138 165.154 101.762C165.066 106.833 164.994 110.937 164.943 113.78C164.914 115.195 164.891 116.295 164.875 117.047C164.865 117.417 164.858 117.7 164.852 117.897C164.846 118.088 164.838 118.186 164.838 118.186C164.838 118.186 164.833 118.088 164.833 117.896C164.833 117.7 164.835 117.416 164.836 117.047C164.843 116.294 164.854 115.193 164.867 113.779C164.903 110.935 164.954 106.831 165.017 101.76C165.147 91.6072 165.328 77.5878 165.527 62.1C165.613 54.3584 165.715 46.981 165.713 40.273C165.707 39.4277 165.726 38.6195 165.631 37.8052C165.522 36.9884 165.461 36.1881 165.355 35.4009C165.159 33.8274 164.882 32.31 164.504 30.8706C163.775 27.9838 162.727 25.3978 161.57 23.1501C161.019 22.0094 160.372 20.991 159.789 20.0116C159.502 19.5186 159.161 19.0804 158.864 18.633C158.556 18.1928 158.268 17.7593 157.973 17.3529C157.349 16.5644 156.769 15.8308 156.235 15.1548C155.668 14.5071 155.135 13.9288 154.663 13.4008C154.425 13.1384 154.202 12.8912 153.991 12.6579C153.766 12.4392 153.557 12.2336 153.362 12.0433C152.975 11.6626 152.645 11.3395 152.379 11.0771C152.117 10.8174 151.915 10.6191 151.776 10.4803C151.641 10.3448 151.575 10.2715 151.575 10.2715Z" fill="#132529"/>
<path fill-rule="evenodd" clip-rule="evenodd" d="M153.411 49.567C158.168 50.6211 161.108 55.6419 159.978 60.7796C158.848 65.9173 154.076 69.227 149.32 68.1729C144.563 67.1181 141.622 62.0981 142.752 56.9603C143.882 51.8226 148.654 48.5123 153.411 49.567Z" fill="#FAF9F6"/>
<path fill-rule="evenodd" clip-rule="evenodd" d="M153.411 49.567C153.41 49.5703 153.36 49.565 153.262 49.5525C153.156 49.5373 153.013 49.5175 152.832 49.4917C152.736 49.4772 152.63 49.4613 152.514 49.4441C152.396 49.4388 152.268 49.4335 152.129 49.4276C151.988 49.421 151.838 49.4144 151.678 49.4071C151.518 49.4078 151.347 49.4249 151.166 49.4342C150.803 49.4382 150.407 49.5194 149.973 49.5895C149.547 49.6985 149.079 49.8076 148.606 50.0098C147.651 50.3859 146.625 50.9912 145.686 51.8828C144.753 52.7723 143.885 53.9394 143.336 55.3643C143.204 55.7212 143.058 56.0807 142.971 56.466C142.923 56.6563 142.863 56.846 142.823 57.0416C142.79 57.2392 142.756 57.4375 142.723 57.6377L142.672 57.9391L142.65 58.2458C142.634 58.4506 142.619 58.6575 142.603 58.8657C142.607 59.0738 142.61 59.2833 142.614 59.4948L142.621 59.8127L142.656 60.1306C142.818 61.8297 143.448 63.5897 144.602 65.0489C145.723 66.5326 147.428 67.6297 149.338 68.0771C151.26 68.4802 153.267 68.2059 154.907 67.3342C156.566 66.4982 157.876 65.1679 158.735 63.6954L158.901 63.4225L159.04 63.1363C159.132 62.946 159.223 62.7576 159.314 62.5699C159.387 62.375 159.459 62.1807 159.532 61.9883L159.64 61.7002L159.721 61.4054C159.774 61.2098 159.827 61.0155 159.879 60.8225C159.924 60.6282 159.95 60.4313 159.986 60.2377C160.069 59.8517 160.087 59.4638 160.118 59.0838C160.217 57.5598 159.919 56.1342 159.446 54.9327C158.968 53.7266 158.291 52.7439 157.583 51.9997C157.239 51.6158 156.859 51.3197 156.519 51.0408C156.154 50.793 155.83 50.5524 155.502 50.3951C155.341 50.3105 155.194 50.222 155.049 50.1546C154.9 50.0931 154.762 50.0356 154.632 49.9827C154.504 49.9292 154.384 49.8796 154.275 49.834C154.163 49.801 154.061 49.7706 153.968 49.7435C153.792 49.69 153.654 49.6477 153.552 49.6166C153.458 49.5869 153.41 49.5703 153.411 49.567C153.412 49.5637 153.461 49.5743 153.556 49.5974C153.66 49.6239 153.801 49.6596 153.979 49.7058C154.073 49.7303 154.176 49.758 154.291 49.7878C154.402 49.8314 154.523 49.8776 154.654 49.9285C154.785 49.9794 154.926 50.0349 155.076 50.0931C155.224 50.1592 155.374 50.2451 155.538 50.3277C155.871 50.4817 156.202 50.7196 156.574 50.9661C156.922 51.243 157.309 51.5391 157.661 51.9244C158.386 52.6705 159.08 53.6612 159.573 54.8812C160.062 56.0972 160.372 57.5432 160.278 59.0924C160.25 59.4783 160.232 59.8722 160.15 60.2654C160.114 60.4617 160.089 60.6626 160.043 60.8602C159.991 61.0565 159.938 61.2541 159.885 61.4537L159.804 61.7531L159.695 62.0465C159.622 62.2428 159.549 62.4404 159.475 62.6393C159.384 62.8303 159.291 63.0233 159.198 63.2169L159.057 63.5077L158.889 63.7866C158.018 65.2888 156.686 66.6482 154.993 67.5047C153.319 68.3969 151.263 68.6811 149.296 68.2674C147.34 67.8107 145.595 66.6839 144.452 65.1672C143.276 63.6749 142.638 61.8786 142.478 60.1484L142.442 59.8246L142.437 59.5008C142.434 59.286 142.431 59.0725 142.428 58.8597C142.444 58.6482 142.461 58.4381 142.477 58.2299L142.501 57.918L142.553 57.612C142.589 57.4084 142.624 57.2069 142.659 57.0066C142.7 56.8077 142.761 56.6154 142.811 56.4217C142.902 56.0305 143.051 55.6657 143.187 55.3035C143.751 53.8588 144.639 52.6785 145.592 51.7823C146.552 50.8835 147.596 50.2788 148.566 49.908C149.048 49.7078 149.523 49.6027 149.955 49.499C150.395 49.4322 150.795 49.3562 151.162 49.3582C151.345 49.3522 151.517 49.3377 151.679 49.3403C151.84 49.3509 151.991 49.3602 152.132 49.3694C152.272 49.3787 152.401 49.3873 152.52 49.3959C152.636 49.4163 152.741 49.4355 152.837 49.452C153.018 49.4864 153.16 49.5128 153.266 49.5333C153.363 49.5525 153.412 49.5637 153.411 49.567Z" fill="#132529"/>
<path fill-rule="evenodd" clip-rule="evenodd" d="M142.274 57.4454C142.272 57.5578 140.246 57.5023 137.806 57.9457C135.363 58.3733 133.481 59.1274 133.439 59.0216C133.422 58.9787 133.87 58.7341 134.639 58.4374C135.408 58.14 136.502 57.8063 137.742 57.5835C138.982 57.3635 140.124 57.298 140.947 57.3113C141.771 57.3238 142.276 57.3985 142.274 57.4454Z" fill="#132529"/>
<path fill-rule="evenodd" clip-rule="evenodd" d="M171.332 57.4316C171.322 57.4844 170.708 57.4045 169.718 57.2809C168.728 57.1566 167.36 57 165.845 56.8923C164.329 56.7859 162.953 56.7482 161.956 56.7323C160.958 56.7152 160.339 56.7079 160.336 56.6544C160.334 56.6068 160.949 56.5222 161.952 56.4719C162.954 56.4217 164.342 56.4178 165.871 56.5255C167.399 56.6339 168.774 56.8328 169.758 57.0238C170.743 57.2141 171.341 57.3846 171.332 57.4316Z" fill="#132529"/>
<path fill-rule="evenodd" clip-rule="evenodd" d="M171.531 94.4932C171.53 94.5058 171.398 94.5045 171.15 94.4899C170.86 94.4688 170.501 94.4424 170.064 94.41C169.068 94.3333 167.716 94.2296 166.071 94.1027C162.699 93.8634 158.034 93.6341 152.878 93.6374C147.72 93.6447 143.054 93.8839 139.684 94.1298C138.038 94.26 136.687 94.367 135.692 94.4457C135.254 94.4787 134.895 94.5065 134.605 94.5283C134.357 94.5428 134.226 94.5448 134.224 94.5322C134.222 94.5197 134.351 94.4933 134.598 94.4543C134.885 94.4146 135.242 94.3644 135.677 94.3036C136.615 94.176 137.977 94.0267 139.663 93.8707C143.033 93.5574 147.707 93.2772 152.877 93.2693C158.045 93.2667 162.72 93.537 166.092 93.8436C167.777 93.9949 169.139 94.1423 170.077 94.2672C170.513 94.3274 170.87 94.3763 171.158 94.4166C171.404 94.4549 171.533 94.4807 171.531 94.4932Z" fill="#132529"/>
<path fill-rule="evenodd" clip-rule="evenodd" d="M143.229 66.7275C143.232 66.7824 143.006 66.8029 142.851 67.0606C142.778 67.1829 142.729 67.3613 142.781 67.5126C142.824 67.6627 142.987 67.7783 143.191 67.7962C143.395 67.8107 143.574 67.7215 143.641 67.58C143.714 67.438 143.694 67.2542 143.64 67.1221C143.527 66.8438 143.308 66.7883 143.318 66.7341C143.302 66.6892 143.622 66.6383 143.867 66.9972C143.975 67.1644 144.061 67.43 143.948 67.7188C143.838 68.0149 143.485 68.1953 143.163 68.1629C142.838 68.1444 142.518 67.9118 142.455 67.6019C142.388 67.2992 142.514 67.05 142.647 66.9013C142.944 66.5854 143.252 66.6852 143.229 66.7275Z" fill="#132529"/>
<path fill-rule="evenodd" clip-rule="evenodd" d="M151.063 70.9684C151.065 71.0239 150.839 71.0444 150.685 71.3022C150.611 71.4238 150.562 71.6022 150.614 71.7542C150.658 71.9042 150.82 72.0199 151.024 72.0377C151.228 72.0523 151.407 71.9624 151.473 71.8216C151.548 71.6795 151.527 71.4958 151.473 71.3636C151.36 71.0847 151.14 71.0292 151.151 70.9757C151.135 70.9307 151.455 70.8799 151.7 71.2381C151.808 71.4059 151.894 71.6716 151.781 71.9597C151.671 72.2565 151.319 72.4369 150.995 72.4045C150.672 72.386 150.351 72.1534 150.288 71.8428C150.221 71.5401 150.347 71.2916 150.48 71.1429C150.777 70.827 151.086 70.9268 151.063 70.9684Z" fill="#132529"/>
<path fill-rule="evenodd" clip-rule="evenodd" d="M159.706 67.3527C159.709 67.4076 159.484 67.4287 159.329 67.6864C159.255 67.808 159.207 67.9865 159.259 68.1378C159.302 68.2885 159.465 68.4042 159.669 68.422C159.872 68.4359 160.051 68.3467 160.118 68.2052C160.192 68.0638 160.171 67.8801 160.117 67.7479C160.004 67.469 159.784 67.4135 159.796 67.36C159.779 67.3144 160.099 67.2641 160.344 67.6223C160.453 67.7902 160.538 68.0552 160.426 68.344C160.315 68.6408 159.963 68.8212 159.64 68.7888C159.316 68.7696 158.995 68.5377 158.933 68.2271C158.866 67.9244 158.991 67.6759 159.124 67.5272C159.422 67.2106 159.73 67.3104 159.706 67.3527Z" fill="#132529"/>
<path fill-rule="evenodd" clip-rule="evenodd" d="M162.513 60.8668C162.515 60.9223 162.29 60.9428 162.135 61.2005C162.061 61.3228 162.013 61.5006 162.064 61.6526C162.108 61.8026 162.271 61.9183 162.474 61.9361C162.679 61.9507 162.857 61.8614 162.924 61.7193C162.998 61.5779 162.977 61.3942 162.923 61.262C162.81 60.9838 162.591 60.9283 162.602 60.8741C162.585 60.8291 162.906 60.7782 163.15 61.1371C163.259 61.305 163.345 61.57 163.232 61.8581C163.121 62.1555 162.769 62.3353 162.445 62.3029C162.122 62.2844 161.802 62.0518 161.739 61.7418C161.672 61.4391 161.798 61.1906 161.93 61.0413C162.228 60.7254 162.536 60.8252 162.513 60.8668Z" fill="#132529"/>
<path fill-rule="evenodd" clip-rule="evenodd" d="M140.372 60.2396C140.375 60.2945 140.149 60.3156 139.995 60.5733C139.921 60.6956 139.873 60.8734 139.924 61.0254C139.967 61.1754 140.131 61.2911 140.334 61.3089C140.538 61.3228 140.717 61.2342 140.784 61.0921C140.858 60.9507 140.837 60.767 140.783 60.6348C140.67 60.3559 140.451 60.3004 140.462 60.2469C140.445 60.2019 140.765 60.151 141.01 60.5092C141.118 60.6771 141.204 60.9421 141.092 61.2309C140.981 61.5277 140.629 61.7074 140.306 61.6757C139.982 61.6572 139.661 61.4246 139.598 61.1139C139.531 60.8113 139.657 60.5628 139.79 60.4141C140.087 60.0982 140.396 60.198 140.372 60.2396Z" fill="#132529"/>
<path fill-rule="evenodd" clip-rule="evenodd" d="M159.691 51.3442C159.688 51.2893 159.914 51.2688 160.068 51.0111C160.142 50.8888 160.191 50.7104 160.14 50.559C160.096 50.409 159.932 50.2927 159.73 50.2755C159.525 50.261 159.346 50.3502 159.28 50.4916C159.206 50.6337 159.226 50.8174 159.28 50.9496C159.393 51.2278 159.612 51.2834 159.601 51.3375C159.618 51.3825 159.298 51.4334 159.053 51.0745C158.945 50.9073 158.859 50.6416 158.971 50.3535C159.082 50.0567 159.434 49.8763 159.757 49.9087C160.082 49.9272 160.402 50.1598 160.465 50.4698C160.531 50.7725 160.406 51.021 160.273 51.1703C159.976 51.4863 159.668 51.3865 159.691 51.3442Z" fill="#132529"/>
<path fill-rule="evenodd" clip-rule="evenodd" d="M151.046 47.4991C151.044 47.4443 151.269 47.4238 151.423 47.166C151.498 47.0438 151.546 46.8653 151.494 46.714C151.451 46.564 151.288 46.4477 151.084 46.4305C150.88 46.4159 150.701 46.5052 150.635 46.6466C150.561 46.7887 150.582 46.9724 150.635 47.1046C150.749 47.3828 150.968 47.4383 150.957 47.4925C150.974 47.5375 150.653 47.5884 150.408 47.2295C150.3 47.0623 150.214 46.7966 150.327 46.5078C150.437 46.2117 150.79 46.0313 151.113 46.0637C151.437 46.0822 151.757 46.3148 151.82 46.6248C151.887 46.9275 151.762 47.1766 151.629 47.3253C151.331 47.6412 151.023 47.5414 151.046 47.4991Z" fill="#132529"/>
<path fill-rule="evenodd" clip-rule="evenodd" d="M142.503 51.3442C142.5 51.2893 142.726 51.2688 142.88 51.0111C142.954 50.8888 143.002 50.7104 142.951 50.559C142.907 50.409 142.745 50.2927 142.541 50.2755C142.337 50.261 142.158 50.3502 142.092 50.4916C142.017 50.6337 142.038 50.8174 142.092 50.9496C142.205 51.2278 142.424 51.2834 142.414 51.3375C142.43 51.3825 142.11 51.4334 141.865 51.0745C141.757 50.9073 141.671 50.6416 141.784 50.3535C141.894 50.0567 142.246 49.8763 142.57 49.9087C142.894 49.9272 143.213 50.1598 143.277 50.4698C143.343 50.7725 143.218 51.021 143.085 51.1703C142.788 51.4863 142.479 51.3865 142.503 51.3442Z" fill="#132529"/>
<path fill-rule="evenodd" clip-rule="evenodd" d="M149.958 83.2133L150.726 121.882C150.748 123.002 151.668 123.893 152.785 123.874C153.881 123.856 154.765 122.97 154.776 121.869C154.853 114.903 155.108 91.4393 155.15 83.1617C155.158 81.5637 153.746 80.3483 152.172 80.583C150.88 80.7759 149.932 81.9027 149.958 83.2133Z" fill="#E0565F"/>
<path fill-rule="evenodd" clip-rule="evenodd" d="M152.75 123.875C151.65 123.875 150.747 122.99 150.725 121.882L149.957 83.2132C149.957 83.1954 149.957 83.1775 149.957 83.1597C149.957 81.8723 150.897 80.7732 152.171 80.5829C152.303 80.5637 152.433 80.5538 152.562 80.5538C153.966 80.5538 155.147 81.6886 155.149 83.1445C155.149 83.1498 155.149 83.1557 155.149 83.1617C155.137 85.5356 155.108 89.1592 155.07 93.2845C155.068 93.4054 155.068 93.5277 155.066 93.6499C155.014 99.276 154.948 105.783 154.89 111.312C154.858 114.314 154.829 117.027 154.806 119.155C154.795 120.218 154.784 121.135 154.776 121.869C154.764 122.97 153.881 123.856 152.784 123.874C152.773 123.875 152.761 123.875 152.75 123.875Z" fill="#162AE2"/>
<path fill-rule="evenodd" clip-rule="evenodd" d="M151.145 12.4768C151.262 12.6077 149.98 13.8541 148.121 16.033C147.186 17.1182 146.139 18.4638 145.044 20.003C143.97 21.5561 142.86 23.312 141.823 25.2293C140.801 27.1557 139.955 29.0544 139.256 30.8111C138.581 32.577 138.041 34.1961 137.655 35.5774C136.87 38.3359 136.541 40.0972 136.368 40.0723C136.24 40.0562 136.296 38.2454 136.901 35.3864C137.197 33.9569 137.669 32.2796 138.309 30.4542C138.969 28.6381 139.808 26.6792 140.855 24.7072C141.916 22.743 143.081 20.9606 144.225 19.4055C145.389 17.865 146.522 16.5439 147.547 15.5076C149.588 13.4239 151.062 12.3784 151.145 12.4768Z" fill="#FFFFFE"/>
<path fill-rule="evenodd" clip-rule="evenodd" d="M133.286 84.4009C133.392 84.5641 131.571 85.753 129.032 88.1164C128.718 88.4164 128.389 88.7297 128.048 89.0548C127.708 89.3826 127.387 89.7587 127.037 90.1268C126.321 90.8511 125.648 91.7083 124.916 92.5866C123.518 94.3954 122.109 96.4838 120.866 98.8141C119.649 101.159 118.724 103.505 118.025 105.685C117.715 106.788 117.389 107.828 117.196 108.83C117.091 109.329 116.962 109.807 116.885 110.273C116.809 110.74 116.737 111.189 116.667 111.619C116.154 115.057 116.203 117.236 116.009 117.241C115.933 117.244 115.86 116.703 115.793 115.714C115.778 115.462 115.762 115.188 115.745 114.891C115.737 114.589 115.752 114.262 115.759 113.911C115.785 113.208 115.778 112.401 115.896 111.522C115.944 111.079 115.995 110.616 116.048 110.136C116.105 109.654 116.215 109.162 116.303 108.646C116.463 107.611 116.762 106.534 117.054 105.395C117.718 103.139 118.641 100.711 119.893 98.2986C121.172 95.9016 122.649 93.7676 124.13 91.9455C124.903 91.0606 125.62 90.2054 126.382 89.4897C126.755 89.1269 127.099 88.7581 127.463 88.4389C127.828 88.1243 128.181 87.8216 128.518 87.5315C129.174 86.9373 129.843 86.4893 130.406 86.0716C130.692 85.8674 130.952 85.6711 131.204 85.5065C131.458 85.3539 131.693 85.2124 131.909 85.0829C132.76 84.5806 133.246 84.3368 133.286 84.4009Z" fill="#FFFFFE"/>
<path fill-rule="evenodd" clip-rule="evenodd" d="M104.96 210.484C103.214 209.479 102.199 207.332 102.526 205.339C102.853 203.345 104.5 201.638 106.475 201.248C108.279 200.892 110.532 201.404 111.669 199.953C112.703 198.636 111.923 196.887 112.377 194.767C112.818 192.706 114.639 191.655 116.636 191.685C118.632 191.714 120.482 193.015 121.479 194.752C122.475 196.49 123.105 199.167 122.871 201.158C122.336 205.727 119.906 208.068 116.888 210.003C113.87 211.94 108.143 212.38 104.96 210.484Z" fill="#E0565F"/>
<path fill-rule="evenodd" clip-rule="evenodd" d="M104.96 210.484C103.433 209.605 102.464 207.851 102.465 206.091C102.465 205.84 102.485 205.588 102.526 205.339C102.853 203.345 104.501 201.639 106.475 201.248C108.279 200.892 110.533 201.405 111.669 199.953C112.158 199.331 112.241 198.612 112.241 197.803C112.241 197.385 112.219 196.943 112.219 196.478C112.218 195.938 112.248 195.367 112.377 194.767C112.811 192.734 114.589 191.684 116.553 191.684C116.58 191.684 116.608 191.684 116.636 191.685C118.632 191.714 120.482 193.015 121.479 194.752C122.335 196.246 122.92 198.433 122.92 200.282C122.92 200.584 122.904 200.878 122.871 201.158C122.336 205.727 119.906 208.068 116.888 210.003C115.2 211.086 112.664 211.702 110.2 211.702C108.259 211.702 106.363 211.32 104.96 210.484Z" fill="#D8DCFF"/>
<path fill-rule="evenodd" clip-rule="evenodd" d="M178.806 173.878C180.264 171.083 183.539 169.364 186.657 169.756C189.775 170.149 192.526 172.628 193.251 175.697C193.913 178.502 193.251 182.063 195.574 183.758C196.84 184.681 198.308 184.572 199.998 184.465C201.124 184.393 202.349 184.321 203.677 184.554C206.906 185.121 208.649 187.912 208.722 191.041C208.796 194.17 206.886 197.147 204.246 198.813C201.606 200.477 197.483 201.625 194.375 201.379C187.242 200.814 183.458 197.148 180.269 192.536C177.079 187.923 176.051 178.979 178.806 173.878Z" fill="#E0565F"/>
<path fill-rule="evenodd" clip-rule="evenodd" d="M194.375 201.379C187.242 200.814 183.458 197.148 180.269 192.536C178.35 189.761 177.213 185.419 177.212 181.289C177.211 178.553 177.708 175.91 178.806 173.878C180.125 171.349 182.933 169.701 185.764 169.701C186.062 169.701 186.36 169.719 186.657 169.756C189.775 170.149 192.526 172.628 193.25 175.697C193.912 178.502 193.251 182.063 195.574 183.758C196.43 184.382 197.378 184.535 198.425 184.535C198.927 184.535 199.45 184.5 199.998 184.465C200.545 184.43 201.115 184.395 201.709 184.395C202.338 184.395 202.993 184.434 203.677 184.554C206.906 185.121 208.648 187.912 208.722 191.041C208.723 191.103 208.724 191.163 208.724 191.224C208.721 194.287 206.834 197.179 204.245 198.813C201.845 200.326 198.22 201.412 195.245 201.412C194.948 201.412 194.657 201.401 194.375 201.379Z" fill="#D8DCFF"/>
<path fill-rule="evenodd" clip-rule="evenodd" d="M125.612 164.505C124.394 165.041 122.938 166.836 123.011 168.843C123.109 171.478 125.835 173.688 128.42 173.23C131.005 172.772 132.812 169.758 132.005 167.25C131.198 164.741 127.976 163.358 125.612 164.505Z" fill="#E0565F"/>
<path fill-rule="evenodd" clip-rule="evenodd" d="M123.011 168.843C123.009 168.793 123.009 168.742 123.009 168.691C123.011 166.746 124.425 165.027 125.612 164.505C126.187 164.226 126.812 164.097 127.441 164.097C129.4 164.097 131.394 165.351 132.005 167.25C132.137 167.662 132.199 168.087 132.199 168.512C132.198 170.678 130.581 172.847 128.42 173.23C128.189 173.271 127.957 173.29 127.726 173.29C125.369 173.29 123.1 171.243 123.011 168.843Z" fill="#D8DCFF"/>
<path fill-rule="evenodd" clip-rule="evenodd" d="M177.264 229.768H136.354C129.177 229.768 123.359 223.925 123.359 216.72V214.891C123.359 207.686 129.177 201.843 136.354 201.843H177.264C184.442 201.843 190.26 207.686 190.26 214.891V216.72C190.26 223.925 184.442 229.768 177.264 229.768Z" fill="#263BFF"/>
<path fill-rule="evenodd" clip-rule="evenodd" d="M143.359 217.65L143.812 216.64C144.299 216.996 145.025 217.245 145.717 217.245C146.509 217.245 146.831 216.98 146.831 216.623C146.831 215.539 143.475 216.284 143.475 214.132C143.475 213.146 144.267 212.326 145.908 212.326C146.633 212.326 147.375 212.501 147.911 212.84L147.499 213.858C146.963 213.552 146.41 213.403 145.899 213.403C145.108 213.403 144.802 213.701 144.802 214.065C144.802 215.133 148.158 214.396 148.158 216.524C148.158 217.492 147.359 218.321 145.709 218.321C144.794 218.321 143.87 218.048 143.359 217.65Z" fill="#FFFFFE"/>
<path fill-rule="evenodd" clip-rule="evenodd" d="M150.184 213.519H148.336V212.426H153.367V213.519H151.52V218.221H150.184V213.519Z" fill="#FFFFFE"/>
<path fill-rule="evenodd" clip-rule="evenodd" d="M157.173 215.961L156.258 213.743L155.342 215.961H157.173ZM157.593 216.98H154.913L154.403 218.221H153.034L155.607 212.426H156.926L159.507 218.221H158.105L157.593 216.98Z" fill="#FFFFFE"/>
<path fill-rule="evenodd" clip-rule="evenodd" d="M162.529 213.519H161.441V215.539H162.529C163.346 215.539 163.759 215.158 163.759 214.529C163.759 213.891 163.346 213.519 162.529 213.519ZM163.783 218.221L162.669 216.607H161.441V218.221H160.105V212.426H162.604C164.146 212.426 165.11 213.229 165.11 214.529C165.11 215.399 164.674 216.035 163.923 216.359L165.217 218.221H163.783Z" fill="#FFFFFE"/>
<path fill-rule="evenodd" clip-rule="evenodd" d="M167.275 213.519H165.428V212.426H170.457V213.519H168.611V218.221H167.275V213.519Z" fill="#FFFFFE"/>
<path fill-rule="evenodd" clip-rule="evenodd" d="M257.965 282.219L265.744 284.958L265.66 292.47C261.937 293.524 261.415 295.415 261.415 295.415L269.199 295.236L275.972 281.407L270.614 277.887L260.598 273.489L257.965 282.219Z" fill="#263BFF"/>
<path fill-rule="evenodd" clip-rule="evenodd" d="M261.415 295.415L262.265 294.22L268.587 293.725L274.833 280.659L275.972 281.407L269.199 295.236L264.846 295.337L261.415 295.415Z" fill="#D8DCFF"/>
<path fill-rule="evenodd" clip-rule="evenodd" d="M265.633 289.03C265.693 289.108 266.136 288.841 266.738 288.845C267.341 288.832 267.788 289.09 267.846 289.011C267.918 288.95 267.469 288.492 266.736 288.502C266.002 288.504 265.561 288.97 265.633 289.03Z" fill="#132529"/>
<path fill-rule="evenodd" clip-rule="evenodd" d="M265.717 287.165C265.796 287.218 266.133 286.749 266.751 286.614C267.367 286.472 267.871 286.752 267.92 286.67C267.945 286.635 267.852 286.505 267.631 286.39C267.414 286.277 267.058 286.193 266.676 286.279C266.294 286.364 266.006 286.592 265.859 286.789C265.707 286.988 265.678 287.144 265.717 287.165Z" fill="#132529"/>
<path fill-rule="evenodd" clip-rule="evenodd" d="M265.614 284.775C265.7 284.817 265.955 284.359 266.493 284.159C267.029 283.951 267.522 284.124 267.559 284.036C267.579 283.996 267.478 283.89 267.261 283.814C267.048 283.737 266.71 283.708 266.372 283.837C266.034 283.966 265.8 284.211 265.691 284.41C265.577 284.611 265.572 284.759 265.614 284.775Z" fill="#132529"/>
<path fill-rule="evenodd" clip-rule="evenodd" d="M265.041 284.77C265.136 284.747 265.077 284.254 265.311 283.726C265.529 283.191 265.924 282.893 265.875 282.808C265.848 282.717 265.27 282.937 264.996 283.591C264.716 284.242 264.957 284.813 265.041 284.77Z" fill="#132529"/>
<path fill-rule="evenodd" clip-rule="evenodd" d="M264.119 283.89C264.167 283.892 264.233 283.492 264.303 282.84C264.337 282.464 264.371 282.085 264.408 281.696C264.414 281.481 264.471 281.265 264.407 280.968C264.37 280.821 264.281 280.672 264.13 280.58C263.979 280.475 263.736 280.495 263.6 280.601C263.33 280.814 263.253 281.061 263.158 281.294C263.074 281.531 263.031 281.771 263.017 282C262.991 282.46 263.089 282.868 263.223 283.183C263.501 283.82 263.891 284.049 263.905 284.02C263.951 283.979 263.642 283.696 263.449 283.097C263.355 282.8 263.292 282.429 263.332 282.024C263.353 281.822 263.397 281.613 263.473 281.409C263.549 281.212 263.661 280.978 263.792 280.885C263.858 280.844 263.9 280.844 263.956 280.873C264.012 280.907 264.062 280.975 264.083 281.055C264.129 281.22 264.095 281.463 264.092 281.678C264.082 282.067 264.071 282.449 264.061 282.826C264.054 283.48 264.073 283.887 264.119 283.89Z" fill="#132529"/>
<path fill-rule="evenodd" clip-rule="evenodd" d="M263.993 284.231C264.024 284.21 263.794 283.868 263.195 283.672C262.619 283.492 261.603 283.529 260.987 284.464C260.955 284.552 260.961 284.677 261.02 284.767C261.078 284.858 261.157 284.905 261.224 284.934C261.365 284.993 261.482 284.995 261.589 285.008C261.809 285.028 262.022 285.026 262.222 285.007C262.625 284.969 262.977 284.865 263.253 284.743C263.81 284.498 264.068 284.213 264.042 284.184C264.011 284.138 263.708 284.344 263.168 284.516C262.899 284.601 262.569 284.673 262.2 284.691C262.016 284.7 261.821 284.695 261.623 284.673C261.521 284.659 261.421 284.651 261.361 284.621C261.293 284.58 261.313 284.593 261.313 284.569C261.32 284.531 261.395 284.451 261.467 284.383C261.538 284.315 261.615 284.253 261.695 284.199C261.854 284.091 262.025 284.011 262.194 283.957C262.535 283.848 262.866 283.855 263.135 283.908C263.679 284.021 263.959 284.275 263.993 284.231Z" fill="#132529"/>
<path fill-rule="evenodd" clip-rule="evenodd" d="M270.681 282.217C270.179 282.217 269.768 281.815 269.758 281.31C269.746 280.798 270.15 280.374 270.661 280.362C270.667 280.362 270.674 280.362 270.681 280.362C271.181 280.362 271.593 280.764 271.604 281.269C271.615 281.782 271.211 282.206 270.701 282.217C270.694 282.217 270.688 282.217 270.681 282.217Z" fill="#D8DCFF"/>
<path fill-rule="evenodd" clip-rule="evenodd" d="M218.047 279.077L218.152 289.31C218.152 289.31 207.828 292.855 207.665 294.748L227.434 295.255L227.921 279.304L218.047 279.077Z" fill="#263BFF"/>
<path fill-rule="evenodd" clip-rule="evenodd" d="M224.078 290.111C224.018 290.111 223.958 290.103 223.899 290.087C223.518 289.978 223.197 289.461 223.338 289.089C223.447 288.801 223.792 288.569 224.102 288.569C224.191 288.569 224.278 288.588 224.356 288.631C224.697 288.775 224.914 289.184 224.822 289.547C224.739 289.873 224.409 290.111 224.078 290.111Z" fill="#D8DCFF"/>
<path fill-rule="evenodd" clip-rule="evenodd" d="M227.434 295.255L207.664 294.748C207.603 294.294 208.057 293.979 208.309 293.84C207.923 294.167 207.688 294.474 207.664 294.748L227.434 295.255Z" fill="#A1B0B0"/>
<path fill-rule="evenodd" clip-rule="evenodd" d="M227.434 295.255L207.665 294.748C207.688 294.474 207.923 294.167 208.309 293.84C208.404 293.788 208.47 293.761 208.47 293.761L227.42 293.645L227.434 295.255Z" fill="#D8DCFF"/>
<path fill-rule="evenodd" clip-rule="evenodd" d="M217.834 289.201C217.835 289.298 218.316 289.354 218.784 289.678C219.259 289.99 219.493 290.416 219.583 290.38C219.673 290.363 219.544 289.78 218.97 289.398C218.402 289.011 217.816 289.112 217.834 289.201Z" fill="#132529"/>
<path fill-rule="evenodd" clip-rule="evenodd" d="M215.739 290.009C215.714 290.102 216.128 290.278 216.446 290.696C216.776 291.105 216.847 291.55 216.943 291.548C217.034 291.567 217.115 291.001 216.71 290.488C216.31 289.972 215.743 289.916 215.739 290.009Z" fill="#132529"/>
<path fill-rule="evenodd" clip-rule="evenodd" d="M214.498 292.47C214.585 292.494 214.732 292.012 214.497 291.476C214.267 290.937 213.817 290.715 213.774 290.796C213.717 290.874 214.004 291.166 214.189 291.61C214.385 292.049 214.402 292.458 214.498 292.47Z" fill="#132529"/>
<path fill-rule="evenodd" clip-rule="evenodd" d="M218.067 286.866C218.106 286.955 218.553 286.833 219.098 286.885C219.643 286.924 220.063 287.119 220.115 287.037C220.173 286.969 219.767 286.6 219.125 286.548C218.483 286.492 218.023 286.789 218.067 286.866Z" fill="#132529"/>
<path fill-rule="evenodd" clip-rule="evenodd" d="M227.807 283.04L227.827 282.366H227.828L227.807 283.04Z" fill="#1E3337"/>
<path fill-rule="evenodd" clip-rule="evenodd" d="M218.085 284.801C218.083 284.841 218.463 284.911 219.076 284.821C219.38 284.776 219.74 284.686 220.12 284.529C220.308 284.45 220.503 284.354 220.696 284.24C220.788 284.184 220.898 284.127 221 284.014C221.11 283.915 221.177 283.661 221.058 283.5C220.96 283.344 220.783 283.274 220.641 283.267C220.495 283.258 220.376 283.285 220.268 283.309C220.046 283.357 219.838 283.425 219.647 283.505C219.265 283.668 218.953 283.879 218.719 284.084C218.249 284.498 218.084 284.856 218.116 284.876C218.159 284.909 218.39 284.611 218.865 284.271C219.103 284.102 219.405 283.928 219.761 283.794C219.94 283.728 220.131 283.672 220.334 283.633C220.545 283.583 220.723 283.586 220.775 283.681C220.793 283.718 220.795 283.732 220.75 283.792C220.703 283.848 220.617 283.901 220.526 283.957C220.348 284.067 220.17 284.162 219.994 284.244C219.646 284.407 219.313 284.516 219.028 284.587C218.458 284.732 218.085 284.749 218.085 284.801Z" fill="#132529"/>
<path fill-rule="evenodd" clip-rule="evenodd" d="M218.207 284.944C218.241 284.959 218.441 284.617 218.492 283.99C218.517 283.679 218.494 283.301 218.385 282.898C218.33 282.698 218.252 282.491 218.148 282.287C218.037 282.089 217.903 281.822 217.529 281.77C217.334 281.757 217.167 281.907 217.109 282.037C217.04 282.169 217.024 282.284 216.998 282.398C216.956 282.629 216.955 282.857 216.98 283.068C217.032 283.492 217.195 283.848 217.377 284.106C217.751 284.63 218.15 284.757 218.159 284.723C218.193 284.676 217.861 284.48 217.578 283.978C217.439 283.731 217.317 283.406 217.288 283.036C217.273 282.852 217.281 282.657 217.321 282.462C217.358 282.252 217.441 282.084 217.519 282.107C217.618 282.108 217.78 282.272 217.856 282.441C217.954 282.622 218.03 282.807 218.089 282.987C218.203 283.349 218.249 283.693 218.255 283.984C218.267 284.568 218.155 284.928 218.207 284.944Z" fill="#132529"/>
<path fill-rule="evenodd" clip-rule="evenodd" d="M264.004 273.861L241.238 265.362L265.171 261.989L266.376 250.284L221.623 254.205L215.302 263.339L216.967 274.802L260.569 285.932L264.004 273.861Z" fill="#132529"/>
<path fill-rule="evenodd" clip-rule="evenodd" d="M215.735 282.054L213.556 240.221C213.674 236.147 215.884 232.423 219.398 230.381C222.304 228.692 225.791 228.336 228.976 229.402L258.012 239.122L273.949 243.236C273.949 243.236 276.663 249.959 275.067 255.183C273.505 260.296 267.925 263.698 263.013 262.236C256.914 260.421 228.911 248.33 228.911 248.33V282.395L215.735 282.054Z" fill="#132529"/>
<path fill-rule="evenodd" clip-rule="evenodd" d="M262.591 262.348C262.59 262.351 262.53 262.332 262.418 262.29C262.293 262.242 262.128 262.179 261.92 262.098C261.469 261.916 260.831 261.661 260.016 261.333C258.352 260.651 255.969 259.676 253.033 258.473C247.132 256.028 239.006 252.661 230.03 248.942C229.629 248.775 229.23 248.61 228.86 248.455L229.046 248.33C229.03 257.795 229.015 266.304 229.005 272.466C228.987 275.528 228.973 278.006 228.963 279.736C228.953 280.58 228.944 281.241 228.938 281.708C228.932 281.921 228.928 282.091 228.925 282.219C228.921 282.335 228.916 282.395 228.911 282.395C228.907 282.395 228.902 282.335 228.898 282.219C228.895 282.091 228.89 281.921 228.885 281.708C228.878 281.241 228.871 280.58 228.86 279.736C228.849 278.006 228.836 275.528 228.817 272.466C228.807 266.304 228.792 257.795 228.776 248.33V248.127L228.963 248.204C229.334 248.359 229.733 248.526 230.134 248.692C239.098 252.439 247.213 255.832 253.105 258.296C256.028 259.532 258.4 260.535 260.056 261.236C260.863 261.583 261.495 261.855 261.941 262.047C262.145 262.138 262.306 262.211 262.429 262.265C262.538 262.316 262.593 262.343 262.591 262.348Z" fill="#334F55"/>
<path fill-rule="evenodd" clip-rule="evenodd" d="M235.774 262.396C235.782 262.329 237.211 262.585 238.757 263.452C240.308 264.307 241.282 265.388 241.232 265.43C241.175 265.492 240.14 264.523 238.626 263.689C237.119 262.843 235.751 262.476 235.774 262.396Z" fill="#334F55"/>
<path fill-rule="evenodd" clip-rule="evenodd" d="M226.385 242.67C226.448 242.635 227.196 243.873 227.92 245.499C228.648 247.126 229.071 248.51 229.004 248.533C228.93 248.559 228.397 247.226 227.673 245.61C226.954 243.995 226.318 242.708 226.385 242.67Z" fill="#334F55"/>
<path fill-rule="evenodd" clip-rule="evenodd" d="M226.45 224.237L221.315 223.273L215.92 228.798L216.916 232.317L223.206 229.992L226.45 224.237Z" fill="#F1AD92"/>
<path fill-rule="evenodd" clip-rule="evenodd" d="M179.007 211.626L184.85 210.325L194.248 211.803L193.884 217.821C193.884 217.821 190.971 218.245 189.919 217.903C188.867 217.559 187.995 217.859 187.995 217.859C187.995 217.859 188.567 219.044 187.579 219.238C186.59 219.431 184.979 219.842 184.678 218.44C184.678 218.44 183.929 218.554 183.578 217.635C183.578 217.635 182.813 217.911 182.473 216.569C182.134 215.228 182.326 213.215 184.969 212.573C185.108 212.543 185.169 212.22 184.911 212.234L180.734 213.02C180.734 213.02 177.953 213.127 179.007 211.626Z" fill="#F1AD92"/>
<path fill-rule="evenodd" clip-rule="evenodd" d="M183.978 215.826C183.975 215.791 184.356 215.725 184.973 215.647C185.288 215.617 185.634 215.54 186.08 215.547C186.3 215.563 186.558 215.639 186.733 215.861C186.914 216.088 186.899 216.422 186.772 216.662C186.493 217.168 185.953 217.292 185.579 217.397C185.18 217.509 184.812 217.588 184.501 217.632C183.877 217.722 183.487 217.694 183.486 217.663C183.483 217.625 183.868 217.588 184.469 217.457C184.771 217.39 185.126 217.295 185.515 217.173C185.711 217.108 185.921 217.055 186.101 216.96C186.282 216.864 186.46 216.724 186.551 216.545C186.645 216.363 186.648 216.149 186.541 216.012C186.433 215.869 186.244 215.797 186.06 215.78C185.682 215.76 185.293 215.818 184.989 215.824C184.367 215.857 183.981 215.861 183.978 215.826Z" fill="#EA8E6C"/>
<path fill-rule="evenodd" clip-rule="evenodd" d="M184.984 214.532C185.005 214.601 184.688 214.753 184.464 215.101C184.229 215.443 184.21 215.8 184.139 215.805C184.074 215.826 183.973 215.386 184.258 214.959C184.539 214.532 184.978 214.463 184.984 214.532Z" fill="#EA8E6C"/>
<path fill-rule="evenodd" clip-rule="evenodd" d="M186.583 216.676C186.589 216.662 186.643 216.657 186.739 216.694C186.851 216.727 186.937 216.886 187.016 217.015C187.114 217.169 187.187 217.409 187.113 217.668C187.046 217.944 186.755 218.125 186.506 218.187C186.013 218.322 185.567 218.44 185.227 218.472C184.888 218.507 184.678 218.473 184.678 218.44C184.677 218.402 184.88 218.374 185.197 218.296C185.513 218.222 185.949 218.078 186.435 217.944C186.668 217.878 186.841 217.769 186.896 217.596C186.957 217.422 186.926 217.236 186.862 217.101C186.787 216.933 186.76 216.828 186.69 216.779C186.623 216.723 186.576 216.693 186.583 216.676Z" fill="#EA8E6C"/>
<path fill-rule="evenodd" clip-rule="evenodd" d="M186.976 217.701C186.96 217.674 187.041 217.58 187.225 217.555C187.407 217.527 187.654 217.594 187.874 217.73C188.141 217.904 188.197 218.185 188.209 218.348C188.22 218.521 188.189 218.625 188.156 218.627C188.12 218.629 188.089 218.529 188.037 218.384C187.986 218.242 187.906 218.044 187.747 217.947C187.552 217.827 187.365 217.753 187.226 217.734C187.088 217.711 186.992 217.734 186.976 217.701Z" fill="#EA8E6C"/>
<path fill-rule="evenodd" clip-rule="evenodd" d="M189.882 213.024L187.244 214.075L184.757 215.834C184.757 215.834 184.75 216.437 186.158 216.216C187.565 215.996 188.632 215.248 188.632 215.248C188.632 215.248 190.474 216.413 192.097 216.144" fill="#F1AD92"/>
<path fill-rule="evenodd" clip-rule="evenodd" d="M192.097 216.144C192.099 216.155 192.01 216.177 191.839 216.208C191.667 216.231 191.41 216.247 191.088 216.215C190.442 216.157 189.539 215.901 188.574 215.343L188.694 215.34C187.875 215.871 186.816 216.346 185.59 216.39C185.408 216.388 185.223 216.375 185.04 216.305C184.865 216.235 184.659 216.109 184.634 215.832L184.628 215.771L184.687 215.731C185.605 215.091 186.454 214.501 187.186 213.991L187.197 213.983L187.207 213.979C188.013 213.671 188.678 213.421 189.144 213.255C189.609 213.088 189.874 213.004 189.882 213.024C189.89 213.043 189.638 213.165 189.186 213.363C188.732 213.563 188.078 213.839 187.28 214.17L187.3 214.159C186.575 214.68 185.736 215.283 184.827 215.936L184.88 215.835C184.883 215.911 184.99 216.025 185.127 216.069C185.264 216.121 185.428 216.136 185.591 216.137C186.729 216.1 187.788 215.645 188.57 215.156L188.631 215.118L188.69 215.153C189.607 215.707 190.485 215.992 191.104 216.085C191.728 216.185 192.093 216.109 192.097 216.144Z" fill="#EA8E6C"/>
<path fill-rule="evenodd" clip-rule="evenodd" d="M186.055 212.893C186.044 212.96 185.745 212.957 185.439 212.769C185.133 212.583 184.99 212.316 185.042 212.275C185.096 212.229 185.301 212.392 185.567 212.552C185.831 212.716 186.069 212.823 186.055 212.893Z" fill="#EA8E6C"/>
<path fill-rule="evenodd" clip-rule="evenodd" d="M193.739 219.396L216.029 222.642C218.243 223.349 220.646 223.147 222.712 222.082L242.561 211.858L236.618 198.7C235.774 199.011 234.798 199.393 234.381 199.648L218.05 211.465L194.326 210.63L193.739 219.396Z" fill="#263BFF"/>
<path fill-rule="evenodd" clip-rule="evenodd" d="M273.505 243.139L272.084 240.637L256.889 236.817L258.68 239.92L273.505 243.139Z" fill="#F1AD92"/>
<path fill-rule="evenodd" clip-rule="evenodd" d="M236.618 198.7C236.639 199.234 234.388 215.79 234.388 219.173C234.388 222.555 240.839 226.226 240.839 226.226L247.903 241.286H273.063L264.462 225.069L260.573 212.08C259.099 207.158 259.25 204.618 255.602 201.013L248.563 196.259L236.618 198.7Z" fill="#263BFF"/>
<path fill-rule="evenodd" clip-rule="evenodd" d="M243.925 211.774L248.151 229.576L226.839 223.547L223.206 229.992L250.937 242.673C254.352 244.235 258.392 243.131 260.548 240.046C261.856 238.175 262.283 235.824 261.719 233.61L255.509 209.253C254.654 205.9 251.143 203.982 247.875 205.084C245.09 206.024 243.409 208.87 243.925 211.774Z" fill="#263BFF"/>
<path fill-rule="evenodd" clip-rule="evenodd" d="M241.234 227.068C241.229 227.075 240.75 226.198 240.593 226.122C240.437 226.045 240.21 225.925 239.922 225.761C239.347 225.433 238.524 224.935 237.585 224.205C236.668 223.465 235.556 222.512 234.834 221.066C234.151 219.585 234.199 217.763 234.448 215.978C234.706 214.177 235.075 212.499 235.291 210.948C235.528 209.402 235.691 208.002 235.778 206.823C235.868 205.645 235.883 204.687 235.88 204.026C235.877 203.364 235.858 202.998 235.881 202.996C235.891 202.995 235.905 203.086 235.925 203.26C235.946 203.433 235.967 203.691 235.984 204.023C236.02 204.686 236.034 205.649 235.969 206.836C235.906 208.023 235.761 209.431 235.537 210.985C235.334 212.541 234.97 214.235 234.715 216.015C234.467 217.783 234.423 219.554 235.06 220.961C235.733 222.345 236.812 223.307 237.703 224.055C238.617 224.796 239.42 225.316 239.976 225.671C240.533 226.023 241.243 227.049 241.234 227.068Z" fill="#132529"/>
<path fill-rule="evenodd" clip-rule="evenodd" d="M249.709 197.448C249.721 197.462 249.584 197.614 249.324 197.88C249.065 198.146 248.679 198.52 248.196 198.973C247.227 199.881 245.853 201.096 244.276 202.365C242.697 203.635 241.217 204.716 240.124 205.468C239.577 205.844 239.13 206.14 238.815 206.335C238.501 206.532 238.323 206.634 238.311 206.618C238.302 206.603 238.46 206.472 238.756 206.249C239.1 205.992 239.519 205.679 240.013 205.312C241.076 204.523 242.533 203.42 244.107 202.154C245.68 200.888 247.069 199.7 248.068 198.83C248.533 198.427 248.928 198.084 249.253 197.803C249.534 197.561 249.696 197.435 249.709 197.448Z" fill="#132529"/>
<path fill-rule="evenodd" clip-rule="evenodd" d="M243.925 211.774C243.933 211.772 243.968 211.889 244.029 212.114C244.093 212.361 244.18 212.691 244.287 213.107C244.509 213.998 244.821 215.256 245.209 216.82C245.979 220.011 247.049 224.45 248.279 229.546L248.331 229.764L248.116 229.703C246.392 229.216 244.563 228.7 242.681 228.17C236.521 226.412 230.929 224.816 226.813 223.641L226.924 223.595C225.795 225.561 224.876 227.159 224.227 228.289C223.913 228.825 223.664 229.249 223.482 229.558C223.401 229.69 223.335 229.797 223.281 229.885C223.235 229.958 223.21 229.994 223.206 229.992C223.201 229.99 223.219 229.948 223.257 229.871C223.305 229.78 223.362 229.668 223.434 229.53C223.605 229.215 223.838 228.782 224.133 228.236C224.764 227.096 225.656 225.483 226.754 223.499L226.791 223.432L226.866 223.453C230.987 224.609 236.586 226.178 242.754 227.909C244.636 228.442 246.463 228.961 248.186 229.449L248.024 229.607C246.832 224.502 245.793 220.055 245.046 216.859C244.69 215.288 244.403 214.023 244.2 213.128C244.11 212.708 244.038 212.375 243.984 212.125C243.938 211.897 243.918 211.776 243.925 211.774Z" fill="#132529"/>
<path fill-rule="evenodd" clip-rule="evenodd" d="M255.604 210.666C255.612 210.664 255.648 210.769 255.708 210.972C255.772 211.203 255.854 211.497 255.954 211.86C256.166 212.669 256.457 213.781 256.813 215.141C257.52 217.948 258.482 221.768 259.545 225.989C260.067 228.112 260.578 230.127 261.009 231.976C261.436 233.822 261.625 235.561 261.416 237C261.223 238.44 260.697 239.526 260.225 240.177C259.755 240.837 259.375 241.087 259.375 241.087C259.351 241.064 259.704 240.783 260.139 240.117C260.576 239.46 261.062 238.388 261.227 236.976C261.406 235.566 261.204 233.863 260.767 232.031C260.31 230.19 259.809 228.174 259.283 226.055C258.25 221.827 257.315 217.999 256.627 215.187C256.306 213.819 256.044 212.7 255.853 211.886C255.772 211.518 255.706 211.219 255.655 210.985C255.612 210.778 255.595 210.668 255.604 210.666Z" fill="#132529"/>
<path fill-rule="evenodd" clip-rule="evenodd" d="M260.117 241.317C259.909 241.317 259.694 241.307 259.473 241.286C259.473 241.286 259.473 241.286 259.473 241.286H260.734C260.536 241.306 260.33 241.317 260.117 241.317Z" fill="#051317"/>
<path fill-rule="evenodd" clip-rule="evenodd" d="M260.734 241.286H259.473C259.868 240.917 260.229 240.504 260.548 240.046C261.856 238.175 262.284 235.824 261.719 233.61L257.719 217.919C260.437 222.771 262.247 228.088 264.04 233.364C264.477 234.651 264.92 235.996 264.736 237.343C264.45 239.436 263.081 241.047 260.734 241.286Z" fill="#162AE2"/>
<path fill-rule="evenodd" clip-rule="evenodd" d="M260.625 239.532C261.097 238.552 261.38 237.466 261.397 236.435C261.425 234.724 261.287 233.751 260.912 232.081C259.766 226.967 258.303 222.058 257.157 216.945C257.222 217.054 257.286 217.163 257.349 217.272C257.976 219.759 258.731 222.757 259.545 225.989C260.067 228.112 260.578 230.127 261.009 231.976C261.436 233.822 261.625 235.561 261.416 237C261.277 238.038 260.965 238.892 260.625 239.532Z" fill="#051317"/>
<path fill-rule="evenodd" clip-rule="evenodd" d="M233.884 215.659C233.854 215.686 233.337 215.185 232.624 214.267C231.911 213.349 231.029 211.993 230.284 210.377C229.543 208.758 229.09 207.203 228.858 206.063C228.624 204.922 228.581 204.201 228.621 204.196C228.676 204.189 228.803 204.893 229.093 206.007C229.383 207.121 229.866 208.638 230.596 210.232C231.329 211.824 232.164 213.178 232.82 214.123C233.475 215.068 233.925 215.623 233.884 215.659Z" fill="#FAF9F6"/>
<path fill-rule="evenodd" clip-rule="evenodd" d="M227.776 219.285C227.737 219.31 227.35 218.765 226.776 217.853C226.201 216.942 225.443 215.66 224.658 214.214C223.874 212.768 223.213 211.433 222.762 210.453C222.311 209.474 222.066 208.853 222.107 208.833C222.151 208.812 222.474 209.396 222.979 210.345C223.542 211.398 224.215 212.657 224.959 214.05C225.719 215.432 226.408 216.683 226.984 217.729C227.504 218.671 227.817 219.259 227.776 219.285Z" fill="#FAF9F6"/>
<path fill-rule="evenodd" clip-rule="evenodd" d="M219.375 222.579C219.281 222.594 218.82 220.226 218.344 217.292C217.87 214.355 217.56 211.963 217.653 211.949C217.747 211.933 218.208 214.3 218.683 217.237C219.159 220.172 219.467 222.563 219.375 222.579Z" fill="#FAF9F6"/>
<path fill-rule="evenodd" clip-rule="evenodd" d="M211.897 222.071C211.851 222.074 211.778 221.497 211.722 220.56C211.666 219.624 211.633 218.328 211.667 216.896C211.701 215.465 211.794 214.171 211.895 213.238C211.994 212.306 212.095 211.733 212.141 211.737C212.189 211.742 212.174 212.322 212.136 213.256C212.098 214.19 212.043 215.48 212.009 216.905C211.977 218.329 211.97 219.619 211.964 220.554C211.958 221.489 211.946 222.068 211.897 222.071Z" fill="#FAF9F6"/>
<path fill-rule="evenodd" clip-rule="evenodd" d="M204.408 211.136C204.454 211.133 204.532 211.669 204.596 212.542C204.659 213.414 204.702 214.623 204.678 215.957C204.654 217.292 204.568 218.498 204.473 219.367C204.379 220.237 204.281 220.77 204.236 220.766C204.136 220.756 204.291 218.606 204.335 215.951C204.386 213.297 204.309 211.143 204.408 211.136Z" fill="#FAF9F6"/>
<path fill-rule="evenodd" clip-rule="evenodd" d="M198.264 211.93C198.357 211.939 198.272 213.745 198.073 215.962C197.875 218.181 197.636 219.971 197.542 219.964C197.448 219.955 197.533 218.15 197.733 215.931C197.931 213.714 198.169 211.922 198.264 211.93Z" fill="#FAF9F6"/>
<path fill-rule="evenodd" clip-rule="evenodd" d="M235.315 205.816C235.219 205.846 234.82 204.751 234.149 203.494C233.485 202.232 232.804 201.288 232.883 201.225C232.95 201.166 233.769 202.036 234.452 203.332C235.14 204.625 235.401 205.793 235.315 205.816Z" fill="#FAF9F6"/>
<path fill-rule="evenodd" clip-rule="evenodd" d="M246.9 223.802C246.901 223.826 246.717 223.846 246.383 223.861C246.05 223.881 245.567 223.873 244.971 223.829C243.78 223.746 242.136 223.455 240.421 222.813C238.707 222.167 237.276 221.302 236.323 220.58C235.845 220.22 235.475 219.908 235.236 219.673C234.995 219.442 234.87 219.306 234.886 219.288C234.924 219.245 235.485 219.722 236.463 220.382C237.439 221.043 238.859 221.856 240.541 222.491C242.224 223.121 243.826 223.443 244.995 223.587C246.165 223.734 246.9 223.744 246.9 223.802Z" fill="#FAF9F6"/>
<path fill-rule="evenodd" clip-rule="evenodd" d="M244.499 215.363C244.492 215.407 243.965 215.367 243.126 215.212C242.288 215.058 241.14 214.777 239.908 214.352C238.677 213.925 237.6 213.437 236.845 213.039C236.089 212.642 235.65 212.347 235.671 212.309C235.72 212.217 237.582 213.19 240.02 214.026C242.453 214.875 244.517 215.261 244.499 215.363Z" fill="#FAF9F6"/>
<path fill-rule="evenodd" clip-rule="evenodd" d="M243.104 209.292C243.12 209.375 241.467 209.49 239.615 208.736C237.755 207.999 236.638 206.772 236.706 206.723C236.774 206.64 237.954 207.711 239.742 208.417C241.521 209.144 243.111 209.184 243.104 209.292Z" fill="#FAF9F6"/>
<path fill-rule="evenodd" clip-rule="evenodd" d="M252.956 204.975C252.924 205.028 252.411 204.677 251.473 204.414C250.551 204.149 249.157 204.034 247.774 204.549C246.393 205.068 245.414 206.072 244.89 206.88C244.353 207.694 244.194 208.298 244.136 208.278C244.103 208.274 244.178 207.635 244.684 206.752C245.175 205.877 246.182 204.78 247.654 204.226C249.128 203.677 250.604 203.844 251.545 204.182C252.504 204.518 252.978 204.951 252.956 204.975Z" fill="#FAF9F6"/>
<path fill-rule="evenodd" clip-rule="evenodd" d="M254.117 213.088C254.136 213.127 253.722 213.39 252.998 213.714C252.276 214.038 251.237 214.403 250.049 214.641C248.861 214.878 247.762 214.942 246.972 214.922C246.179 214.902 245.696 214.818 245.699 214.775C245.703 214.666 247.651 214.781 249.982 214.304C252.317 213.846 254.073 212.99 254.117 213.088Z" fill="#FAF9F6"/>
<path fill-rule="evenodd" clip-rule="evenodd" d="M257.491 223.274C257.501 223.368 255.43 223.648 252.867 223.899C250.304 224.15 248.218 224.276 248.209 224.183C248.2 224.087 250.27 223.807 252.834 223.556C255.396 223.306 257.482 223.179 257.491 223.274Z" fill="#FAF9F6"/>
<path fill-rule="evenodd" clip-rule="evenodd" d="M260.459 237.382C260.452 237.405 260.266 237.367 259.933 237.278C259.599 237.193 259.127 237.035 258.553 236.81C257.405 236.365 255.88 235.589 254.314 234.551C252.749 233.512 251.421 232.452 250.477 231.668C249.535 230.883 248.975 230.371 249.003 230.335C249.033 230.297 249.649 230.742 250.627 231.477C251.608 232.21 252.952 233.235 254.502 234.263C256.053 235.291 257.536 236.089 258.648 236.586C259.757 237.087 260.475 237.328 260.459 237.382Z" fill="#FAF9F6"/>
<path fill-rule="evenodd" clip-rule="evenodd" d="M244.504 239.532C244.462 239.534 244.386 238.963 244.398 238.033C244.409 237.103 244.533 235.816 244.865 234.433C245.201 233.051 245.68 231.849 246.095 231.019C246.509 230.187 246.836 229.714 246.873 229.735C246.972 229.784 245.846 231.788 245.198 234.514C244.529 237.234 244.614 239.534 244.504 239.532Z" fill="#FAF9F6"/>
<path fill-rule="evenodd" clip-rule="evenodd" d="M236.479 235.213C236.398 235.229 236.214 233.332 236.897 231.125C237.563 228.913 238.773 227.445 238.831 227.505C238.923 227.563 237.869 229.078 237.225 231.227C236.56 233.367 236.587 235.216 236.479 235.213Z" fill="#FAF9F6"/>
<path fill-rule="evenodd" clip-rule="evenodd" d="M232.003 224.67C232.084 224.746 230.621 226.079 229.552 228.222C228.459 230.353 228.25 232.327 228.142 232.306C228.101 232.302 228.098 231.806 228.24 231.018C228.381 230.232 228.695 229.16 229.246 228.067C229.8 226.974 230.478 226.087 231.027 225.509C231.576 224.929 231.976 224.639 232.003 224.67Z" fill="#FAF9F6"/>
<path fill-rule="evenodd" clip-rule="evenodd" d="M261.571 215.438C261.641 215.49 260.932 216.337 259.699 216.822C258.47 217.317 257.376 217.188 257.391 217.101C257.39 216.997 258.421 216.969 259.573 216.501C260.73 216.05 261.502 215.361 261.571 215.438Z" fill="#FAF9F6"/>
<path fill-rule="evenodd" clip-rule="evenodd" d="M258.555 206.16C258.634 206.199 258.222 207.067 257.323 207.8C256.429 208.541 255.5 208.775 255.478 208.689C255.442 208.594 256.267 208.231 257.105 207.534C257.952 206.846 258.469 206.105 258.555 206.16Z" fill="#FAF9F6"/>
<path fill-rule="evenodd" clip-rule="evenodd" d="M247.811 199.987C247.868 199.918 248.598 200.493 249.136 201.486C249.68 202.475 249.77 203.403 249.682 203.414C249.582 203.435 249.351 202.585 248.835 201.651C248.328 200.712 247.741 200.059 247.811 199.987Z" fill="#FAF9F6"/>
<path fill-rule="evenodd" clip-rule="evenodd" d="M263.78 224.165C263.83 224.238 262.982 224.851 261.75 225.168C260.52 225.492 259.481 225.369 259.49 225.282C259.491 225.18 260.489 225.146 261.664 224.835C262.841 224.534 263.73 224.077 263.78 224.165Z" fill="#FAF9F6"/>
<path fill-rule="evenodd" clip-rule="evenodd" d="M268.383 232.298C268.391 232.392 266.787 232.606 264.8 232.775C262.814 232.943 261.197 233.003 261.189 232.908C261.18 232.814 262.785 232.6 264.772 232.432C266.758 232.263 268.374 232.202 268.383 232.298Z" fill="#FAF9F6"/>
<path fill-rule="evenodd" clip-rule="evenodd" d="M271.577 238.842C271.574 238.937 269.202 238.955 266.279 238.881C263.353 238.807 260.985 238.671 260.987 238.576C260.989 238.481 263.362 238.464 266.287 238.537C269.211 238.611 271.579 238.748 271.577 238.842Z" fill="#FAF9F6"/>
<path fill-rule="evenodd" clip-rule="evenodd" d="M248.284 173.255C248.721 175.496 251.927 176.387 252.243 178.647C252.378 179.617 251.918 180.581 251.952 181.56C251.997 182.877 252.908 183.981 253.373 185.212C254.333 187.749 253.249 190.756 251.221 192.549C249.193 194.343 246.407 195.066 243.706 195.122" fill="#132529"/>
<path fill-rule="evenodd" clip-rule="evenodd" d="M230.131 175.568C230.409 176.763 229.784 177.97 229.125 179.004C228.466 180.039 227.723 181.127 227.739 182.354C227.766 184.531 230.151 186.177 230.054 188.351C230.003 189.516 229.225 190.569 229.241 191.735C229.256 192.863 230.014 193.849 230.875 194.573C231.737 195.297 232.563 195.04 233.351 195.844C234.181 196.692 235.43 197.498 236.544 197.898C239.071 198.809 241.57 196.517 242.639 196.007" fill="#132529"/>
<path fill-rule="evenodd" clip-rule="evenodd" d="M248.938 174.481C248.797 173.379 247.653 172.691 246.573 172.451C245.492 172.211 244.339 172.238 243.335 171.769C242.447 171.354 241.774 170.593 240.986 170.01C239.051 168.577 236.337 168.286 234.145 169.276C231.954 170.267 230.372 172.499 230.157 174.904C230.012 176.528 230.57 178.333 231.959 179.176C233.573 180.155 235.641 179.553 237.406 178.889C239.171 178.225 241.178 177.528 242.87 178.362C243.89 178.865 244.583 179.837 245.298 180.724C246.012 181.612 246.875 182.497 247.994 182.695C249.113 182.894 250.455 182.031 250.319 180.898" fill="#132529"/>
<path fill-rule="evenodd" clip-rule="evenodd" d="M249.324 197.88L246.661 176.477C246.532 175.522 245.695 174.823 244.735 174.871L234.647 173.925C231.487 174.08 230.016 178.246 230.305 181.409C230.626 184.923 231.156 189.201 231.97 191.734C233.606 196.826 237.694 196.868 237.694 196.868C237.693 196.861 238.457 204.387 238.755 206.249" fill="#F1AD92"/>
<path fill-rule="evenodd" clip-rule="evenodd" d="M231.688 185.317C231.73 185.672 232.065 185.929 232.436 185.892C232.805 185.854 233.072 185.536 233.03 185.18C232.987 184.825 232.653 184.567 232.282 184.605C231.912 184.642 231.645 184.961 231.688 185.317Z" fill="#132529"/>
<path fill-rule="evenodd" clip-rule="evenodd" d="M231.498 183.999C231.594 184.074 232.042 183.619 232.76 183.509C233.475 183.389 234.059 183.678 234.123 183.577C234.156 183.532 234.047 183.388 233.791 183.255C233.54 183.124 233.13 183.021 232.684 183.093C232.237 183.165 231.887 183.39 231.696 183.593C231.502 183.797 231.451 183.966 231.498 183.999Z" fill="#132529"/>
<path fill-rule="evenodd" clip-rule="evenodd" d="M238.918 184.257C238.961 184.613 239.296 184.869 239.667 184.832C240.036 184.795 240.303 184.476 240.261 184.12C240.218 183.765 239.883 183.508 239.513 183.545C239.143 183.582 238.876 183.901 238.918 184.257Z" fill="#132529"/>
<path fill-rule="evenodd" clip-rule="evenodd" d="M238.573 183.031C238.669 183.105 239.117 182.651 239.835 182.542C240.551 182.421 241.134 182.709 241.198 182.608C241.231 182.563 241.123 182.419 240.867 182.287C240.614 182.156 240.204 182.053 239.758 182.125C239.312 182.197 238.962 182.421 238.771 182.625C238.578 182.828 238.527 182.998 238.573 183.031Z" fill="#132529"/>
<path fill-rule="evenodd" clip-rule="evenodd" d="M236.797 188.782C236.795 188.741 236.336 188.733 235.599 188.753C235.412 188.762 235.234 188.753 235.183 188.633C235.12 188.506 235.166 188.296 235.221 188.068C235.324 187.596 235.432 187.101 235.545 186.582C235.989 184.47 236.279 182.744 236.194 182.727C236.11 182.71 235.681 184.409 235.238 186.521C235.133 187.041 235.033 187.537 234.937 188.011C234.901 188.231 234.819 188.488 234.955 188.748C235.025 188.878 235.176 188.957 235.297 188.97C235.421 188.989 235.524 188.974 235.616 188.965C236.349 188.891 236.801 188.824 236.797 188.782Z" fill="#132529"/>
<path fill-rule="evenodd" clip-rule="evenodd" d="M237.694 196.868C237.694 196.868 241.171 196.632 244.312 193.999C244.256 194.02 242.906 198.024 237.839 198.267L237.694 196.868Z" fill="#EA8E6C"/>
<path fill-rule="evenodd" clip-rule="evenodd" d="M237.37 190.472C237.575 190.088 237.998 189.829 238.454 189.808C238.771 189.792 239.109 189.895 239.338 190.12C239.567 190.344 239.662 190.7 239.528 190.97C239.376 191.273 238.982 191.399 238.624 191.356C238.267 191.311 237.937 191.131 237.622 190.949C237.535 190.898 237.446 190.846 237.384 190.768C237.322 190.69 237.294 190.58 237.344 190.5" fill="#EA8E6C"/>
<path fill-rule="evenodd" clip-rule="evenodd" d="M238.987 188.95C238.869 188.962 238.989 189.744 238.408 190.403C237.829 191.064 236.985 191.107 236.996 191.217C236.992 191.268 237.204 191.339 237.557 191.294C237.901 191.253 238.387 191.063 238.742 190.66C239.096 190.256 239.201 189.774 239.178 189.449C239.156 189.118 239.04 188.937 238.987 188.95Z" fill="#132529"/>
<path fill-rule="evenodd" clip-rule="evenodd" d="M237.931 181.066C238.032 181.252 238.735 181.047 239.592 181.017C240.449 180.97 241.166 181.111 241.251 180.918C241.288 180.826 241.141 180.661 240.837 180.513C240.536 180.367 240.073 180.255 239.559 180.277C239.045 180.301 238.595 180.454 238.307 180.626C238.018 180.8 237.886 180.979 237.931 181.066Z" fill="#132529"/>
<path fill-rule="evenodd" clip-rule="evenodd" d="M231.439 181.873C231.59 182.017 232.058 181.77 232.652 181.669C233.241 181.547 233.766 181.607 233.856 181.418C233.893 181.327 233.789 181.175 233.545 181.055C233.304 180.934 232.922 180.865 232.516 180.941C232.109 181.018 231.778 181.222 231.597 181.421C231.414 181.622 231.37 181.802 231.439 181.873Z" fill="#132529"/>
<path fill-rule="evenodd" clip-rule="evenodd" d="M249.612 192.502C248.228 193.018 247.986 192.307 246.76 191.48C245.536 190.653 244.744 189.213 244.698 187.731C244.659 186.424 245.141 185.011 244.508 183.868C243.671 182.356 241.353 182.218 240.507 180.711C240.015 179.836 240.154 178.698 239.619 177.849C239.116 177.05 238.14 176.698 237.215 176.519C236.291 176.34 235.319 176.27 234.495 175.814C233.671 175.357 233.042 174.348 233.39 173.47C237.342 173.322 241.31 173.648 245.185 174.44C246.084 174.623 247.035 174.865 247.656 175.541C248.312 176.259 248.45 177.297 248.557 178.266C249.076 182.987 249.595 187.708 250.115 192.429" fill="#132529"/>
<path fill-rule="evenodd" clip-rule="evenodd" d="M251.207 181.336C251.1 179.589 252.257 177.841 253.9 177.262C255.545 176.683 257.535 177.321 258.54 178.751C259.494 180.111 259.526 181.944 259.087 183.548C258.565 185.454 257.178 187.34 255.223 187.56C253.382 187.766 251.657 186.388 250.854 184.713C250.05 183.037 249.966 181.117 249.896 179.259" fill="#132529"/>
<path fill-rule="evenodd" clip-rule="evenodd" d="M253.35 188.323C253.357 188.328 253.463 188.22 253.575 187.976C253.689 187.735 253.8 187.352 253.798 186.871C253.801 186.39 253.696 185.823 253.492 185.229C253.289 184.631 252.981 184.021 252.724 183.361C252.463 182.705 252.288 182.051 252.307 181.448C252.321 180.85 252.516 180.313 252.564 179.835C252.623 179.356 252.542 178.956 252.419 178.714C252.297 178.47 252.168 178.381 252.161 178.391C252.146 178.403 252.248 178.511 252.337 178.749C252.427 178.986 252.478 179.361 252.402 179.813C252.338 180.266 252.125 180.793 252.094 181.441C252.061 182.085 252.243 182.777 252.509 183.446C252.771 184.118 253.085 184.726 253.29 185.301C253.501 185.874 253.616 186.416 253.634 186.874C253.682 187.805 253.301 188.306 253.35 188.323Z" fill="#334F55"/>
<path fill-rule="evenodd" clip-rule="evenodd" d="M252.439 182.043C252.423 182.059 252.727 182.383 253.36 182.7C253.982 183.017 254.967 183.287 256.047 183.136C257.126 182.983 257.999 182.452 258.512 181.975C259.033 181.497 259.237 181.101 259.217 181.09C259.185 181.065 258.935 181.42 258.406 181.85C257.883 182.28 257.039 182.761 256.015 182.906C254.99 183.049 254.048 182.82 253.427 182.55C252.8 182.283 252.463 182.01 252.439 182.043Z" fill="#334F55"/>
<path fill-rule="evenodd" clip-rule="evenodd" d="M252.825 182.82C252.805 182.834 252.985 183.151 253.395 183.569C253.801 183.988 254.46 184.485 255.289 184.824C256.12 185.161 256.937 185.264 257.519 185.247C258.104 185.231 258.452 185.13 258.447 185.106C258.442 185.067 258.088 185.109 257.522 185.082C256.956 185.057 256.176 184.933 255.376 184.609C254.577 184.282 253.93 183.827 253.507 183.45C253.081 183.074 252.856 182.796 252.825 182.82Z" fill="#334F55"/>
<path fill-rule="evenodd" clip-rule="evenodd" d="M252.65 190.225L252.696 190.15C252.721 190.099 252.768 190.026 252.806 189.92C252.895 189.711 252.987 189.384 253.006 188.952C253.023 188.523 252.946 187.981 252.679 187.424C252.425 186.867 251.922 186.304 251.213 185.983C250.527 185.644 249.676 185.467 249.057 184.853C248.749 184.555 248.571 184.131 248.582 183.672C248.581 183.213 248.715 182.742 248.821 182.246C249.072 181.248 248.891 180.079 248.263 179.141C247.949 178.675 247.525 178.26 247.001 177.992C246.481 177.712 245.884 177.62 245.302 177.582C244.72 177.541 244.147 177.556 243.6 177.481C243.056 177.407 242.522 177.252 242.103 176.943C241.676 176.639 241.439 176.161 241.29 175.668C241.139 175.174 241.019 174.657 240.805 174.189C240.398 173.25 239.765 172.462 239.015 171.943C238.263 171.419 237.406 171.186 236.633 171.193C235.856 171.194 235.164 171.449 234.671 171.817C234.172 172.18 233.856 172.625 233.668 173.012C233.482 173.403 233.42 173.737 233.4 173.961C233.381 174.187 233.403 174.306 233.403 174.306C233.439 174.314 233.367 173.809 233.749 173.052C233.943 172.683 234.26 172.261 234.747 171.922C235.227 171.579 235.889 171.348 236.633 171.357C237.373 171.361 238.192 171.593 238.905 172.1C239.619 172.604 240.222 173.366 240.611 174.275C240.814 174.727 240.925 175.22 241.079 175.734C241.228 176.241 241.491 176.786 241.968 177.125C242.433 177.47 243.003 177.632 243.569 177.709C244.141 177.788 244.717 177.774 245.287 177.813C245.855 177.851 246.418 177.94 246.896 178.198C247.381 178.445 247.777 178.831 248.076 179.268C248.669 180.154 248.846 181.244 248.612 182.203C248.513 182.689 248.374 183.173 248.378 183.674C248.368 184.173 248.58 184.669 248.921 184.989C249.606 185.648 250.479 185.808 251.142 186.131C251.828 186.432 252.305 186.95 252.563 187.482C252.83 188.012 252.92 188.533 252.916 188.951C252.902 189.799 252.613 190.216 252.65 190.225Z" fill="#334F55"/>
<path fill-rule="evenodd" clip-rule="evenodd" d="M250.009 175.707C250.009 175.707 250.045 175.624 250.035 175.457C250.027 175.292 249.962 175.037 249.753 174.791C249.55 174.547 249.218 174.306 248.771 174.206C248.319 174.11 247.795 174.199 247.27 174.394C246.741 174.584 246.211 174.892 245.611 175.111C245.023 175.324 244.301 175.456 243.684 175.112C243.065 174.777 242.673 174.091 242.275 173.409C241.882 172.712 241.371 172.028 240.736 171.451C239.468 170.294 237.89 169.613 236.401 169.52C235.656 169.477 234.933 169.606 234.332 169.904C233.732 170.2 233.259 170.642 232.966 171.132C232.667 171.62 232.568 172.158 232.608 172.607C232.642 173.059 232.79 173.431 232.956 173.698C233.122 173.969 233.308 174.136 233.441 174.232C233.575 174.329 233.655 174.363 233.658 174.358C233.681 174.334 233.339 174.186 233.034 173.652C232.885 173.388 232.757 173.029 232.738 172.599C232.711 172.17 232.815 171.673 233.106 171.218C233.39 170.762 233.843 170.35 234.415 170.077C234.986 169.804 235.674 169.687 236.387 169.734C237.816 169.833 239.352 170.5 240.58 171.622C241.197 172.185 241.688 172.836 242.08 173.525C242.481 174.2 242.887 174.926 243.584 175.3C243.924 175.488 244.313 175.548 244.671 175.525C245.032 175.502 245.367 175.405 245.677 175.291C246.298 175.056 246.818 174.741 247.328 174.547C247.831 174.349 248.33 174.257 248.745 174.334C249.163 174.414 249.485 174.631 249.686 174.85C249.892 175.072 249.965 175.306 249.989 175.461C250.014 175.619 249.994 175.707 250.009 175.707Z" fill="#334F55"/>
</g>
<defs>
<clipPath id="clip0">
<rect width="312" height="295.415" fill="white"/>
</clipPath>
</defs>
</svg>
