<svg width="13" height="12" viewBox="0 0 13 12" fill="none" xmlns="http://www.w3.org/2000/svg">
<path d="M6.34329 0.643224C6.04474 0.967874 6.04474 1.49424 6.34329 1.81884L9.49418 5.24377L1.21502 5.24377C0.792578 5.24377 0.450194 5.61602 0.450194 6.07505C0.450194 6.53418 0.792578 6.90634 1.21502 6.90634L9.49767 6.90634L6.27489 10.4094C5.97635 10.734 5.97635 11.2604 6.27489 11.585C6.57361 11.9096 7.05778 11.9096 7.35641 11.585L11.741 6.81907C11.7636 6.79445 11.7841 6.76826 11.8032 6.74147C11.9905 6.59017 12.1123 6.3483 12.1123 6.07515C12.1123 5.81039 11.998 5.57498 11.8205 5.42279C11.8167 5.41826 11.8133 5.41362 11.8092 5.40923L7.42463 0.643373C7.12622 0.318772 6.64187 0.318772 6.34329 0.643224Z" fill="white"/>
</svg>
