<svg width="13" height="12" viewBox="0 0 13 12" fill="none" xmlns="http://www.w3.org/2000/svg">
<path d="M6.65671 11.3568C6.95526 11.0321 6.95526 10.5058 6.65671 10.1812L3.50582 6.75623L11.785 6.75623C12.2074 6.75623 12.5498 6.38398 12.5498 5.92495C12.5498 5.46582 12.2074 5.09366 11.785 5.09366L3.50233 5.09366L6.72511 1.59059C7.02365 1.26599 7.02365 0.739577 6.72511 0.414976C6.42639 0.0903754 5.94222 0.0903753 5.64359 0.414976L1.259 5.18093C1.23635 5.20555 1.21588 5.23174 1.19678 5.25853C1.00952 5.40983 0.887662 5.6517 0.887661 5.92485C0.887661 6.18961 1.00199 6.42502 1.17949 6.57721C1.18334 6.58174 1.18675 6.58638 1.19079 6.59077L5.57537 11.3566C5.87378 11.6812 6.35813 11.6812 6.65671 11.3568Z" fill="white"/>
</svg>
