<svg width="80" height="80" viewBox="0 0 80 80" fill="none" xmlns="http://www.w3.org/2000/svg">
<path d="M58.1146 80H21.8846C9.84283 80 0 70.1699 0 58.0392V21.8562C0 9.83007 9.84283 0 21.8846 0H58.1146C70.261 0 79.9992 9.83007 79.9992 21.8562V58.0392C80.1039 70.1699 70.261 80 58.1146 80Z" fill="white"/>
<path d="M23.8161 35.8889C23.6201 35.8889 23.4754 35.8469 23.3821 35.7629C23.2981 35.6696 23.2561 35.5249 23.2561 35.3289V26.5089C23.2561 26.2102 23.5361 26.0609 24.0961 26.0609H24.5721C25.1321 26.0609 25.4121 26.2102 25.4121 26.5089V34.0549H28.4361C28.5854 34.0549 28.6927 34.1109 28.7581 34.2229C28.8234 34.3349 28.8561 34.5122 28.8561 34.7549V35.1889C28.8561 35.4316 28.8234 35.6089 28.7581 35.7209C28.6927 35.8329 28.5854 35.8889 28.4361 35.8889H23.8161ZM33.8239 36.0009C32.3772 36.0009 31.2665 35.5716 30.4919 34.7129C29.7172 33.8449 29.3299 32.6036 29.3299 30.9889C29.3299 29.3742 29.7172 28.1376 30.4919 27.2789C31.2665 26.4109 32.3772 25.9769 33.8239 25.9769C35.2705 25.9769 36.3765 26.4109 37.1419 27.2789C37.9165 28.1376 38.3039 29.3742 38.3039 30.9889C38.3039 32.6036 37.9165 33.8449 37.1419 34.7129C36.3765 35.5716 35.2705 36.0009 33.8239 36.0009ZM33.8239 34.1669C34.5705 34.1669 35.1352 33.8962 35.5179 33.3549C35.9005 32.8136 36.0919 32.0249 36.0919 30.9889C36.0919 29.9529 35.9005 29.1689 35.5179 28.6369C35.1352 28.0956 34.5705 27.8249 33.8239 27.8249C33.0772 27.8249 32.5079 28.0956 32.1159 28.6369C31.7332 29.1689 31.5419 29.9529 31.5419 30.9889C31.5419 32.0249 31.7332 32.8136 32.1159 33.3549C32.5079 33.8962 33.0772 34.1669 33.8239 34.1669ZM46.8781 30.4429C47.0741 30.4429 47.2141 30.4896 47.2981 30.5829C47.3915 30.6669 47.4381 30.8069 47.4381 31.0029V34.8949C47.4381 35.3149 47.0881 35.6042 46.3881 35.7629C45.6881 35.9216 44.9508 36.0009 44.1761 36.0009C42.6081 36.0009 41.4461 35.5949 40.6901 34.7829C39.9435 33.9616 39.5701 32.6876 39.5701 30.9609C39.5701 27.6382 41.1288 25.9769 44.2461 25.9769C44.6755 25.9769 45.1235 26.0189 45.5901 26.1029C46.0568 26.1869 46.4488 26.3036 46.7661 26.4529C47.0835 26.6022 47.2421 26.7702 47.2421 26.9569C47.2421 27.0876 47.1908 27.2602 47.0881 27.4749C46.9855 27.6802 46.8595 27.8669 46.7101 28.0349C46.5701 28.1936 46.4441 28.2729 46.3321 28.2729C46.3041 28.2729 46.1875 28.2309 45.9821 28.1469C45.7768 28.0629 45.5248 27.9882 45.2261 27.9229C44.9368 27.8576 44.5961 27.8249 44.2041 27.8249C43.3828 27.8249 42.7715 28.0862 42.3701 28.6089C41.9781 29.1316 41.7821 29.9202 41.7821 30.9749C41.7821 33.1029 42.5801 34.1669 44.1761 34.1669C44.5495 34.1669 44.9135 34.1342 45.2681 34.0689V32.2909H44.0361C43.8868 32.2909 43.7795 32.2349 43.7141 32.1229C43.6488 32.0109 43.6161 31.8336 43.6161 31.5909V31.1429C43.6161 30.9002 43.6488 30.7229 43.7141 30.6109C43.7795 30.4989 43.8868 30.4429 44.0361 30.4429H46.8781ZM53.4704 36.0009C52.0237 36.0009 50.913 35.5716 50.1384 34.7129C49.3637 33.8449 48.9764 32.6036 48.9764 30.9889C48.9764 29.3742 49.3637 28.1376 50.1384 27.2789C50.913 26.4109 52.0237 25.9769 53.4704 25.9769C54.917 25.9769 56.023 26.4109 56.7884 27.2789C57.563 28.1376 57.9504 29.3742 57.9504 30.9889C57.9504 32.6036 57.563 33.8449 56.7884 34.7129C56.023 35.5716 54.917 36.0009 53.4704 36.0009ZM53.4704 34.1669C54.217 34.1669 54.7817 33.8962 55.1644 33.3549C55.547 32.8136 55.7384 32.0249 55.7384 30.9889C55.7384 29.9529 55.547 29.1689 55.1644 28.6369C54.7817 28.0956 54.217 27.8249 53.4704 27.8249C52.7237 27.8249 52.1544 28.0956 51.7624 28.6369C51.3797 29.1689 51.1884 29.9529 51.1884 30.9889C51.1884 32.0249 51.3797 32.8136 51.7624 33.3549C52.1544 33.8962 52.7237 34.1669 53.4704 34.1669ZM10.2031 51.9169C9.64315 51.9169 9.36315 51.7676 9.36315 51.4689V42.6489C9.36315 42.4529 9.40515 42.3129 9.48915 42.2289C9.58248 42.1356 9.72715 42.0889 9.92315 42.0889H12.8631C13.7405 42.0889 14.5151 42.3036 15.1871 42.7329C15.8591 43.1529 16.1951 43.9602 16.1951 45.1549C16.1951 45.9762 15.9991 46.6156 15.6071 47.0729C15.2151 47.5209 14.7765 47.8242 14.2911 47.9829C13.8058 48.1416 13.3765 48.2209 13.0031 48.2209H11.5191V51.4689C11.5191 51.7676 11.2391 51.9169 10.6791 51.9169H10.2031ZM12.7651 46.3729C13.1011 46.3729 13.3858 46.2842 13.6191 46.1069C13.8618 45.9296 13.9831 45.6122 13.9831 45.1549C13.9831 44.6976 13.8618 44.3802 13.6191 44.2029C13.3858 44.0162 13.1011 43.9229 12.7651 43.9229H11.5191V46.3729H12.7651ZM18.1875 51.9169C17.6275 51.9169 17.3475 51.7676 17.3475 51.4689V42.6489C17.3475 42.4529 17.3895 42.3129 17.4735 42.2289C17.5669 42.1356 17.7115 42.0889 17.9075 42.0889H20.6375C22.9615 42.0889 24.1235 42.9662 24.1235 44.7209C24.1235 45.2436 23.9742 45.7009 23.6755 46.0929C23.3862 46.4756 22.9895 46.7602 22.4855 46.9469V47.0029C22.6629 47.0682 22.8449 47.2269 23.0315 47.4789C23.2182 47.7216 23.3722 47.9922 23.4935 48.2909L24.7255 51.3709C24.7722 51.4922 24.7955 51.5809 24.7955 51.6369C24.7955 51.7209 24.7255 51.7909 24.5855 51.8469C24.4455 51.8936 24.2355 51.9169 23.9555 51.9169H23.3815C22.9242 51.9169 22.6535 51.8189 22.5695 51.6229L21.4635 48.8929C21.3049 48.5849 21.1322 48.3702 20.9455 48.2489C20.7682 48.1182 20.4695 48.0529 20.0495 48.0529H19.5035V51.4689C19.5035 51.7676 19.2235 51.9169 18.6635 51.9169H18.1875ZM20.8335 46.1909C21.1229 46.1909 21.3749 46.0742 21.5895 45.8409C21.8042 45.6076 21.9115 45.3229 21.9115 44.9869C21.9115 44.6602 21.8042 44.4036 21.5895 44.2169C21.3842 44.0209 21.0995 43.9229 20.7355 43.9229H19.5035V46.1909H20.8335ZM29.9137 52.0009C28.4671 52.0009 27.3564 51.5716 26.5817 50.7129C25.8071 49.8449 25.4197 48.6036 25.4197 46.9889C25.4197 45.3742 25.8071 44.1376 26.5817 43.2789C27.3564 42.4109 28.4671 41.9769 29.9137 41.9769C31.3604 41.9769 32.4664 42.4109 33.2317 43.2789C34.0064 44.1376 34.3937 45.3742 34.3937 46.9889C34.3937 48.6036 34.0064 49.8449 33.2317 50.7129C32.4664 51.5716 31.3604 52.0009 29.9137 52.0009ZM29.9137 50.1669C30.6604 50.1669 31.2251 49.8962 31.6077 49.3549C31.9904 48.8136 32.1817 48.0249 32.1817 46.9889C32.1817 45.9529 31.9904 45.1689 31.6077 44.6369C31.2251 44.0956 30.6604 43.8249 29.9137 43.8249C29.1671 43.8249 28.5977 44.0956 28.2057 44.6369C27.8231 45.1689 27.6317 45.9529 27.6317 46.9889C27.6317 48.0249 27.8231 48.8136 28.2057 49.3549C28.5977 49.8962 29.1671 50.1669 29.9137 50.1669ZM36.654 51.8889C36.458 51.8889 36.3133 51.8469 36.22 51.7629C36.136 51.6696 36.094 51.5249 36.094 51.3289V42.6489C36.094 42.4529 36.136 42.3129 36.22 42.2289C36.3133 42.1356 36.458 42.0889 36.654 42.0889H39.65C41.0966 42.0889 42.2026 42.5136 42.968 43.3629C43.7426 44.2029 44.13 45.4116 44.13 46.9889C44.13 48.5662 43.7426 49.7796 42.968 50.6289C42.2026 51.4689 41.0966 51.8889 39.65 51.8889H36.654ZM39.65 50.0549C40.3966 50.0549 40.9613 49.7936 41.344 49.2709C41.7266 48.7482 41.918 47.9876 41.918 46.9889C41.918 45.9902 41.7266 45.2296 41.344 44.7069C40.9613 44.1842 40.3966 43.9229 39.65 43.9229H38.264V50.0549H39.65ZM49.7483 52.0009C48.4603 52.0009 47.4617 51.7069 46.7523 51.1189C46.043 50.5216 45.6883 49.6862 45.6883 48.6129V42.5089C45.6883 42.2102 45.9683 42.0609 46.5283 42.0609H47.0043C47.5643 42.0609 47.8443 42.2102 47.8443 42.5089V48.4729C47.8443 48.9676 48.0217 49.3736 48.3763 49.6909C48.731 50.0082 49.1883 50.1669 49.7483 50.1669C50.3083 50.1669 50.7657 50.0082 51.1203 49.6909C51.4843 49.3736 51.6663 48.9676 51.6663 48.4729V42.5089C51.6663 42.2102 51.9463 42.0609 52.5063 42.0609H52.9683C53.5283 42.0609 53.8083 42.2102 53.8083 42.5089V48.6129C53.8083 49.6862 53.4537 50.5216 52.7443 51.1189C52.035 51.7069 51.0363 52.0009 49.7483 52.0009ZM58.3291 51.9169C57.7691 51.9169 57.4891 51.7676 57.4891 51.4689V43.9229H55.2631C55.1138 43.9229 55.0065 43.8669 54.9411 43.7549C54.8758 43.6429 54.8431 43.4656 54.8431 43.2229V42.7889C54.8431 42.5462 54.8758 42.3689 54.9411 42.2569C55.0065 42.1449 55.1138 42.0889 55.2631 42.0889H61.8851C62.0345 42.0889 62.1418 42.1449 62.2071 42.2569C62.2725 42.3689 62.3051 42.5462 62.3051 42.7889V43.2229C62.3051 43.4656 62.2725 43.6429 62.2071 43.7549C62.1418 43.8669 62.0345 43.9229 61.8851 43.9229H59.6591V51.4689C59.6591 51.7676 59.3791 51.9169 58.8191 51.9169H58.3291ZM67.2653 52.0009C65.8186 52.0009 64.708 51.5716 63.9333 50.7129C63.1586 49.8449 62.7713 48.6036 62.7713 46.9889C62.7713 45.3742 63.1586 44.1376 63.9333 43.2789C64.708 42.4109 65.8186 41.9769 67.2653 41.9769C68.712 41.9769 69.818 42.4109 70.5833 43.2789C71.358 44.1376 71.7453 45.3742 71.7453 46.9889C71.7453 48.6036 71.358 49.8449 70.5833 50.7129C69.818 51.5716 68.712 52.0009 67.2653 52.0009ZM67.2653 50.1669C68.012 50.1669 68.5766 49.8962 68.9593 49.3549C69.342 48.8136 69.5333 48.0249 69.5333 46.9889C69.5333 45.9529 69.342 45.1689 68.9593 44.6369C68.5766 44.0956 68.012 43.8249 67.2653 43.8249C66.5186 43.8249 65.9493 44.0956 65.5573 44.6369C65.1746 45.1689 64.9833 45.9529 64.9833 46.9889C64.9833 48.0249 65.1746 48.8136 65.5573 49.3549C65.9493 49.8962 66.5186 50.1669 67.2653 50.1669Z" fill="#263238"/>
</svg>
