<svg width="33" height="35" viewBox="0 0 33 35" fill="none" xmlns="http://www.w3.org/2000/svg">
<path d="M7.71528 0.628967C3.73661 0.628967 0.5 3.91053 0.5 7.94446V25.7579C0.5 29.7918 3.73661 33.0734 7.71528 33.0734H17.6852C18.0129 33.0734 18.2778 32.8048 18.2778 32.4726C18.2778 32.1403 18.0129 31.8718 17.6852 31.8718H7.71528C4.38965 31.8718 1.68519 29.1297 1.68519 25.7579V7.94446C1.68519 4.57264 4.38965 1.83061 7.71528 1.83061H25.2847C28.6104 1.83061 31.3148 4.57264 31.3148 7.94446V19.2545C31.3148 19.5867 31.5797 19.8553 31.9074 19.8553C32.2351 19.8553 32.5 19.5867 32.5 19.2545V7.94446C32.5 3.91053 29.2634 0.628967 25.2847 0.628967H7.71528ZM12.2639 4.8359C12.1127 4.84739 11.9663 4.91831 11.86 5.04478L8.15741 9.42305L5.89236 7.70155C5.63103 7.50267 5.25981 7.55508 5.06366 7.82124C4.86692 8.08621 4.91979 8.46258 5.18171 8.66146L7.8912 10.7221C7.99728 10.8032 8.12152 10.8418 8.24537 10.8418C8.41307 10.8418 8.57886 10.7705 8.6956 10.6317L12.7593 5.82515C12.9726 5.574 12.9433 5.19536 12.6944 4.97907C12.5706 4.87152 12.4151 4.82441 12.2639 4.8359ZM16.5 7.83884C16.1723 7.83884 15.9074 8.10741 15.9074 8.43967C15.9074 8.77192 16.1723 9.04049 16.5 9.04049H27.1667C27.4944 9.04049 27.7593 8.77192 27.7593 8.43967C27.7593 8.10741 27.4944 7.83884 27.1667 7.83884H16.5ZM12.2639 13.2474C12.1127 13.2591 11.9663 13.3301 11.86 13.4563L8.15741 17.8346L5.89236 16.1131C5.63103 15.9142 5.25981 15.9666 5.06366 16.2328C4.86692 16.4977 4.91979 16.8741 5.18171 17.073L7.8912 19.1336C7.99728 19.2147 8.12152 19.2533 8.24537 19.2533C8.41307 19.2533 8.57886 19.182 8.6956 19.0433L12.7593 14.2367C12.9726 13.9855 12.9433 13.6069 12.6944 13.3906C12.5706 13.2827 12.4151 13.2358 12.2639 13.2474ZM16.5 16.2504C16.1723 16.2504 15.9074 16.5189 15.9074 16.8512C15.9074 17.1834 16.1723 17.452 16.5 17.452H27.1667C27.4944 17.452 27.7593 17.1834 27.7593 16.8512C27.7593 16.5189 27.4944 16.2504 27.1667 16.2504H16.5ZM25.3889 19.2545C21.4677 19.2545 18.2778 22.4887 18.2778 26.4644C18.2778 30.44 21.4677 33.6742 25.3889 33.6742C29.3101 33.6742 32.5 30.44 32.5 26.4644C32.5 22.4887 29.3101 19.2545 25.3889 19.2545ZM25.3889 20.4561C28.6564 20.4561 31.3148 23.1514 31.3148 26.4644C31.3148 29.7773 28.6564 32.4726 25.3889 32.4726C22.1213 32.4726 19.463 29.7773 19.463 26.4644C19.463 23.1514 22.1213 20.4561 25.3889 20.4561ZM25.3889 22.2586C25.0612 22.2586 24.7963 22.5272 24.7963 22.8594V26.4644C24.7963 26.7966 25.0612 27.0652 25.3889 27.0652H28.9444C29.2721 27.0652 29.537 26.7966 29.537 26.4644C29.537 26.1321 29.2721 25.8635 28.9444 25.8635H25.9815V22.8594C25.9815 22.5272 25.7166 22.2586 25.3889 22.2586ZM12.2639 22.2609C12.1126 22.2726 11.9663 22.3422 11.86 22.4686L8.15741 26.8469L5.89236 25.1254C5.63103 24.9271 5.25981 24.9789 5.06366 25.2451C4.86692 25.5101 4.91979 25.8864 5.18171 26.0853L7.8912 28.146C7.99728 28.2271 8.12152 28.2657 8.24537 28.2657C8.41307 28.2657 8.57886 28.1944 8.6956 28.0556L12.7593 23.2502C12.9726 22.9984 12.9445 22.6186 12.6956 22.4029C12.5715 22.2954 12.4151 22.2493 12.2639 22.2609V22.2609Z" fill="#00AAFF" stroke="#00AAFF"/>
</svg>
