<svg width="140" height="31" viewBox="0 0 140 31" fill="none" xmlns="http://www.w3.org/2000/svg">
<g clip-path="url(#clip0)">
<path d="M22.0739 30.2105H8.3125C3.73864 30.2105 0 26.4984 0 21.9174V8.2536C0 3.71214 3.73864 0 8.3125 0H22.0739C26.6875 0 30.3864 3.71214 30.3864 8.2536V21.9174C30.4261 26.4984 26.6875 30.2105 22.0739 30.2105Z" fill="white"/>
<path d="M18.8919 8.17477C18.1362 7.54291 17.3805 6.87157 16.6248 6.23971C16.2271 5.92379 15.8691 5.56837 15.4714 5.25244C15.4316 5.29193 15.3919 5.33142 15.3521 5.37091C14.5169 6.08175 13.7214 6.79259 12.8862 7.50342C11.7725 8.4512 10.6191 9.43847 9.5055 10.3863C7.99414 11.6895 6.443 13.0321 4.93164 14.3353C4.81232 14.4538 4.61346 14.5328 4.61346 14.6908C4.61346 17.6131 4.49414 20.5354 4.49414 23.4577C4.49414 23.5367 4.49414 23.6157 4.49414 23.6947C4.49414 23.6947 4.73278 23.6947 4.77255 23.6947C6.32369 23.6947 7.91459 23.6947 9.42596 23.6947C9.62482 23.6947 9.66459 23.6157 9.66459 23.4577C9.66459 21.9176 9.66459 20.338 9.66459 18.7978C9.26687 18.4424 9.02823 17.929 9.02823 17.3366C9.02823 16.2309 9.943 15.3621 11.0169 15.3621H11.0566C12.3294 14.2169 13.6419 13.0716 14.9146 11.9264C16.2271 10.7417 17.5396 9.59644 18.8521 8.4512C19.051 8.33273 19.0112 8.29324 18.8919 8.17477Z" fill="#232323"/>
<path d="M19.0111 15.2437C19.0111 14.138 19.9258 13.2692 20.9997 13.2692C21.1986 13.2692 21.3974 13.3087 21.5565 13.3482C22.0338 12.9138 22.5111 12.5189 22.9883 12.0845C23.0281 12.045 23.1076 11.966 23.1474 11.9265C22.7895 11.6106 22.4713 11.3341 22.1133 11.0182C21.5963 10.5838 21.0792 10.1494 20.602 9.715C20.5224 9.63602 20.4429 9.63602 20.3633 9.715C20.0849 9.99143 19.8065 10.2284 19.5281 10.4653C18.2554 11.5711 16.9826 12.7163 15.7099 13.822C14.7554 14.6908 13.7611 15.5596 12.8065 16.389C12.9656 16.6654 13.0451 17.0208 13.0451 17.3367C13.0451 18.245 12.2497 19.0348 11.4145 19.2718C11.4145 20.654 11.2554 22.0362 11.2554 23.4578C11.2554 23.5368 11.2554 23.5763 11.2554 23.6553C11.6531 23.6553 11.494 23.6553 11.5338 23.6553C12.6474 23.6553 13.8008 23.6553 14.9145 23.6553C15.0736 23.6553 15.1133 23.5763 15.1133 23.4578C15.1133 22.0756 15.1531 20.654 15.1133 19.2718C15.1133 19.0743 15.1929 18.9164 15.352 18.7979C16.3861 17.8896 17.4201 16.9418 18.4542 16.0335C18.6531 15.8756 18.8122 15.7176 19.0111 15.5596C19.0508 15.4807 19.0111 15.3622 19.0111 15.2437Z" fill="#232323"/>
<path d="M26.1702 14.6118C26.1702 14.5328 26.1305 14.4539 26.0509 14.3749C25.6134 13.98 25.1759 13.6246 24.7384 13.2296C24.6589 13.1507 24.5793 13.1507 24.4998 13.2296C23.9827 13.7035 23.4259 14.1774 22.9089 14.6513C22.9486 14.8488 22.9884 15.0067 22.9884 15.2042C22.9884 16.3099 22.0736 17.1787 20.9998 17.1787C20.7214 17.1787 20.4827 17.1392 20.2441 17.0208C19.2498 17.8896 18.2555 18.7979 17.2611 19.6667C17.1418 19.7456 17.1021 19.8641 17.1021 19.9826C17.1021 20.5355 17.1021 21.1278 17.1021 21.6807C17.1021 22.2731 17.1021 22.8259 17.1021 23.4183C17.1021 23.5763 17.1418 23.6157 17.3009 23.6157C18.3748 23.6157 19.4486 23.6157 20.5225 23.6157C20.6418 23.6157 20.7214 23.5763 20.7214 23.4578C20.7214 22.9444 20.7611 22.431 20.7214 21.9571C20.7214 21.9176 20.7214 21.8781 20.7214 21.8781C20.602 21.6017 20.5225 21.3253 20.5225 21.0488C20.5225 19.9431 21.4373 19.0743 22.5111 19.0743C22.7498 19.0743 22.9884 19.1138 23.1873 19.1928C24.1418 18.3635 25.0964 17.5342 26.0111 16.7048C26.0907 16.6654 26.1305 16.5469 26.1305 16.4679C26.1702 15.836 26.1702 15.2437 26.1702 14.6118Z" fill="#232323"/>
<path d="M26.1702 19.3902C26.1702 19.3112 26.1702 19.2322 26.1702 19.1138C26.0906 19.1928 26.0111 19.2322 25.9713 19.2717C25.494 19.7061 24.977 20.1405 24.4997 20.5749C24.5395 20.7329 24.5395 20.8514 24.5395 21.0093C24.5395 22.0756 23.7042 22.9444 22.6304 22.9839C22.6304 23.1418 22.6304 23.2603 22.6304 23.4183C22.6304 23.5762 22.6701 23.6157 22.869 23.6157C23.9031 23.6157 24.9372 23.6157 25.9713 23.6157C26.1702 23.6157 26.2099 23.5762 26.2099 23.3788C26.1702 22.1151 26.1702 20.7329 26.1702 19.3902Z" fill="#232323"/>
<path d="M37.7842 14.3747C37.7842 10.0702 40.2103 7.74023 43.8694 7.74023C47.4887 7.74023 49.9546 10.0307 49.9546 14.3747C49.9546 18.7187 47.5285 21.0092 43.8694 21.0092C40.2103 21.0092 37.7842 18.7187 37.7842 14.3747ZM46.9717 14.3747C46.9717 11.1759 45.6989 10.1887 43.8694 10.1887C42.0399 10.1887 40.7671 11.1759 40.7671 14.3747C40.7671 17.5735 42.0399 18.5607 43.8694 18.5607C45.6989 18.5607 46.9717 17.613 46.9717 14.3747ZM48.0853 25.0372L43.8296 23.892C43.2728 23.734 43.0342 23.3786 43.1137 22.7863C43.233 22.1939 43.591 21.9569 44.1478 22.0359L48.4433 22.6283C49.0399 22.7073 49.3183 23.0627 49.2387 23.6551L49.1194 24.3264C49.0796 24.9583 48.6819 25.1952 48.0853 25.0372Z" fill="white"/>
<path d="M59.3806 11.0972H60.3351C60.9317 11.0972 61.2499 11.4131 61.2499 12.0055V16.4284C61.2499 19.9826 59.4601 21.0094 56.3579 21.0094C53.2556 21.0094 51.4658 19.9826 51.4658 16.4284V12.0055C51.4658 11.4131 51.784 11.0972 52.3806 11.0972H53.3351C53.9317 11.0972 54.2499 11.4131 54.2499 12.0055V16.4679C54.2499 18.2055 54.8863 18.6794 56.3976 18.6794C57.909 18.6794 58.5454 18.2055 58.5454 16.4679V12.0055C58.4658 11.4131 58.784 11.0972 59.3806 11.0972Z" fill="white"/>
<path d="M71.8693 14.7301V18.0078C71.8693 20.0614 70.9148 20.8512 68.767 20.8512H66.5C64.0739 20.8512 62.5625 20.2193 62.5625 17.8894C62.5625 15.5594 64.0739 14.8881 66.5 14.8881H69.0852V14.7301C69.0852 13.6244 68.2102 13.1505 66.7784 13.1505C66.0625 13.1505 65.1477 13.2689 64.1932 13.4664C63.5568 13.5849 63.1989 13.3084 63.1989 12.6766V12.3212C63.1989 11.7683 63.517 11.4129 64.1534 11.2944C65.2273 11.0574 66.3011 10.939 67.1761 10.939C69.8807 10.8995 71.8693 12.0447 71.8693 14.7301ZM69.125 17.8499V16.8626H66.6989C65.5057 16.8626 65.2273 17.139 65.2273 17.8894C65.2273 18.6002 65.4659 18.8766 66.6591 18.8766H68.1307C68.9659 18.8372 69.125 18.5212 69.125 17.8499Z" fill="white"/>
<path d="M79.5853 11.8868V12.4792C79.5853 13.0715 79.2273 13.3875 78.591 13.3875C76.483 13.427 76.4035 13.5849 76.4035 14.3352V19.9035C76.4035 20.4958 76.0853 20.8117 75.4887 20.8117H74.4944C73.8978 20.8117 73.5796 20.4958 73.5796 19.9035V13.9403C73.5796 11.6894 74.4148 11.0575 78.6307 10.9785C79.2273 10.9785 79.5853 11.2944 79.5853 11.8868Z" fill="white"/>
<path d="M86.1876 13.3481H83.483V17.2182C83.483 18.245 83.9205 18.6399 85.0342 18.6399C85.5512 18.6399 85.9092 18.5214 86.2671 18.5214C86.9035 18.5214 87.1421 18.7583 87.1421 19.2322V19.7456C87.1421 20.259 86.9035 20.6144 86.3865 20.7329C83.2046 21.4832 80.6592 20.6934 80.6592 17.2182V9.71493C80.6592 9.12257 80.9774 8.80664 81.574 8.80664H82.5683C83.1649 8.80664 83.483 9.12257 83.483 9.71493V11.0576H86.1876C86.7842 11.0576 87.1024 11.3735 87.1024 11.9659V12.4003C87.1024 13.0322 86.7444 13.3481 86.1876 13.3481Z" fill="white"/>
<path d="M97.1252 14.7301V18.0078C97.1252 20.0614 96.1706 20.8512 94.0229 20.8512H91.7559C89.3297 20.8512 87.8184 20.2193 87.8184 17.8894C87.8184 15.5594 89.3297 14.8881 91.7559 14.8881H94.3411V14.7301C94.3411 13.6244 93.4661 13.1505 92.0343 13.1505C91.3184 13.1505 90.4036 13.2689 89.449 13.4664C88.8127 13.5849 88.4547 13.3084 88.4547 12.6766V12.3212C88.4547 11.7683 88.7729 11.4129 89.4093 11.2944C90.4831 11.0574 91.557 10.939 92.432 10.939C95.1365 10.8995 97.1252 12.0447 97.1252 14.7301ZM94.3411 17.8499V16.8626H91.9149C90.7218 16.8626 90.4434 17.139 90.4434 17.8894C90.4434 18.6002 90.682 18.8766 91.8752 18.8766H93.3468C94.2218 18.8372 94.3411 18.5212 94.3411 17.8499Z" fill="white"/>
<path d="M107.426 8.13527C107.983 8.25375 108.222 8.60917 108.222 9.16204V9.83338C108.222 10.4652 107.824 10.7417 107.148 10.6232C102.972 9.79389 101.54 11.0971 101.54 14.4143C101.54 17.7316 102.972 19.0348 107.148 18.2054C107.824 18.0475 108.222 18.3634 108.222 18.9953V19.6666C108.222 20.2195 107.943 20.5749 107.347 20.7329C102.017 21.9966 98.5967 19.5086 98.5967 14.4538C98.5967 9.28051 102.057 6.79258 107.426 8.13527Z" fill="white"/>
<path d="M118.602 14.7301V18.0078C118.602 20.0614 117.648 20.8512 115.5 20.8512H113.233C110.807 20.8512 109.295 20.2193 109.295 17.8894C109.295 15.5594 110.807 14.8881 113.233 14.8881H115.818V14.7301C115.818 13.6244 114.943 13.1505 113.511 13.1505C112.795 13.1505 111.881 13.2689 110.926 13.4664C110.29 13.5849 109.932 13.3084 109.932 12.6766V12.3212C109.932 11.7683 110.25 11.4129 110.886 11.2944C111.96 11.0574 113.034 10.939 113.909 10.939C116.614 10.8995 118.602 12.0447 118.602 14.7301ZM115.818 17.8499V16.8626H113.352C112.159 16.8626 111.881 17.139 111.881 17.8894C111.881 18.6002 112.119 18.8766 113.312 18.8766H114.784C115.659 18.8372 115.818 18.5212 115.818 17.8499Z" fill="white"/>
<path d="M120.074 19.5875V19.3111C120.074 18.6792 120.472 18.3633 121.108 18.4818C123.415 18.9162 125.801 19.0741 125.801 17.9684C125.801 17.534 125.483 17.297 124.807 17.1391L122.699 16.5862C120.75 16.0728 119.915 15.125 119.915 13.7824C119.915 10.9785 123.534 10.3861 127.034 11.2549C127.591 11.3734 127.83 11.7288 127.83 12.2817V12.5186C127.83 13.1505 127.432 13.4269 126.796 13.3085C124.847 12.8741 122.58 12.7951 122.58 13.7034C122.58 14.0193 122.858 14.2562 123.296 14.3747L125.523 14.9671C127.472 15.4805 128.426 16.4282 128.426 17.9289C128.426 21.0092 124.37 21.5621 120.83 20.6143C120.313 20.4563 120.074 20.1009 120.074 19.5875Z" fill="white"/>
<path d="M138.767 14.7301V18.0078C138.767 20.0614 137.813 20.8512 135.665 20.8512H133.398C130.972 20.8512 129.46 20.2193 129.46 17.8894C129.46 15.5594 130.972 14.8881 133.398 14.8881H135.983V14.7301C135.983 13.6244 135.108 13.1505 133.676 13.1505C132.96 13.1505 132.046 13.2689 131.091 13.4664C130.455 13.5849 130.097 13.3084 130.097 12.6766V12.3212C130.097 11.7683 130.415 11.4129 131.051 11.2944C132.125 11.0574 133.199 10.939 134.074 10.939C136.779 10.8995 138.767 12.0447 138.767 14.7301ZM136.023 17.8499V16.8626H133.597C132.404 16.8626 132.125 17.139 132.125 17.8894C132.125 18.6002 132.364 18.8766 133.557 18.8766H135.029C135.864 18.8372 136.023 18.5212 136.023 17.8499Z" fill="white"/>
</g>
<defs>
<clipPath id="clip0">
<rect width="140" height="30.2105" fill="white"/>
</clipPath>
</defs>
</svg>
